<?xml version="1.0" standalone="no"?>
<!DOCTYPE svg PUBLIC "-//W3C//DTD SVG 20010904//EN"
 "http://www.w3.org/TR/2001/REC-SVG-20010904/DTD/svg10.dtd">
<svg version="1.0" xmlns="http://www.w3.org/2000/svg"
 width="3500.000000pt" height="3500.000000pt" viewBox="0 0 3500.000000 3500.000000"
 preserveAspectRatio="xMidYMid meet">

<g transform="translate(0.000000,3500.000000) scale(0.100000,-0.100000)"
fill="#000000" stroke="none">
<path d="M18565 31240 c-103 -9 -265 -42 -385 -77 -324 -95 -626 -256 -881
-469 l-86 -72 -59 60 c-113 116 -379 305 -549 391 -399 202 -717 213 -1173 41
-117 -44 -329 -148 -439 -215 -35 -22 -66 -39 -69 -39 -2 0 -48 -32 -102 -72
-117 -87 -279 -248 -347 -346 -27 -39 -53 -72 -56 -72 -4 0 -26 26 -50 58 -63
83 -281 299 -374 369 -240 181 -493 305 -745 366 -333 81 -714 81 -1060 1 -96
-22 -253 -70 -317 -95 -15 -6 -37 -15 -48 -19 -54 -21 -285 -136 -323 -161
-24 -16 -45 -29 -47 -29 -9 0 -154 -103 -229 -163 -283 -225 -527 -530 -679
-849 -18 -38 -38 -68 -45 -68 -7 0 -36 13 -65 28 -65 35 -189 73 -317 98 -74
15 -140 19 -295 19 -237 0 -341 -13 -560 -72 -357 -96 -700 -297 -975 -573
-126 -126 -206 -226 -293 -367 -50 -82 -147 -271 -147 -288 0 -4 -6 -21 -14
-38 -94 -216 -135 -584 -86 -782 11 -47 16 -83 10 -89 -5 -5 -39 -1 -82 10
-113 29 -471 27 -622 -4 -364 -75 -710 -253 -957 -493 -188 -184 -352 -448
-420 -679 -10 -36 -23 -78 -28 -95 -30 -95 -46 -238 -45 -410 0 -181 2 -198
50 -362 7 -27 11 -25 -116 -48 -287 -52 -492 -119 -777 -257 -171 -81 -385
-212 -528 -321 -389 -298 -642 -563 -809 -847 -70 -121 -95 -171 -136 -278
-31 -81 -59 -185 -80 -302 -35 -188 -23 -477 26 -603 19 -50 18 -76 -4 -84
-21 -7 -272 -130 -292 -143 -8 -5 -68 -41 -133 -80 -65 -38 -137 -84 -160
-101 -23 -17 -74 -54 -113 -82 -151 -110 -275 -219 -454 -397 -279 -277 -490
-537 -724 -890 -143 -216 -236 -363 -236 -374 0 -3 -26 -49 -58 -103 -53 -90
-199 -378 -253 -498 -46 -103 -61 -141 -69 -165 -5 -14 -18 -50 -30 -80 -12
-30 -25 -66 -30 -80 -5 -14 -18 -50 -30 -80 -11 -30 -25 -71 -30 -90 -5 -19
-16 -60 -25 -90 -39 -133 -74 -289 -102 -460 -14 -83 -18 -163 -17 -375 0
-236 3 -283 21 -375 42 -205 81 -325 154 -475 107 -222 190 -339 358 -505 230
-228 486 -359 784 -400 62 -9 90 -17 96 -29 4 -9 9 -47 10 -86 6 -269 121
-585 313 -860 155 -223 444 -492 697 -649 158 -97 437 -225 559 -256 19 -5 46
-13 60 -18 76 -28 251 -64 411 -86 142 -19 539 -14 681 8 348 55 667 179 857
333 47 39 73 52 73 38 0 -17 56 -216 84 -300 171 -506 486 -913 926 -1197 89
-57 282 -155 360 -183 143 -50 191 -63 340 -95 30 -7 112 -14 181 -17 134 -6
175 1 306 53 34 13 66 24 72 24 6 0 11 -20 11 -45 0 -118 38 -374 80 -545 33
-135 132 -398 204 -547 14 -29 26 -55 26 -57 0 -7 141 -259 161 -288 29 -40
24 -52 -33 -83 -176 -94 -199 -109 -328 -204 -366 -270 -775 -696 -992 -1031
-279 -433 -423 -954 -378 -1375 18 -159 17 -186 0 -195 -8 -5 -46 -18 -85 -30
-205 -63 -458 -191 -660 -333 -301 -212 -670 -592 -934 -965 -68 -96 -143
-206 -166 -243 -310 -501 -463 -878 -525 -1297 -47 -318 -7 -676 107 -942 161
-379 362 -595 648 -697 62 -22 211 -53 254 -53 32 0 44 6 65 31 49 57 36 85
-69 155 -302 201 -540 563 -631 959 -27 115 -27 442 -1 570 74 357 193 639
450 1061 316 520 668 911 1055 1174 125 85 294 175 417 222 95 37 123 47 175
61 143 40 172 52 195 79 39 46 48 92 41 213 -18 329 -18 523 -1 627 26 160 81
345 139 473 165 361 390 668 771 1051 182 184 290 278 414 362 97 67 221 132
250 132 12 0 49 -35 99 -93 94 -109 140 -153 242 -229 331 -248 835 -332 1340
-222 70 15 239 66 320 96 84 31 256 124 327 177 43 31 111 92 150 135 67 71
93 86 93 52 0 -15 54 -121 95 -186 164 -262 472 -524 810 -690 187 -92 335
-140 610 -197 119 -25 555 -25 680 0 269 54 400 97 640 212 50 24 107 55 128
69 21 14 40 26 43 26 11 0 163 117 233 178 131 118 230 258 302 433 35 84 51
96 84 59 26 -29 159 -117 244 -162 146 -77 304 -133 486 -172 258 -55 628 -55
890 0 151 32 325 82 400 114 11 5 45 19 75 31 345 142 709 451 877 745 60 106
123 272 138 367 7 45 19 46 53 6 85 -97 284 -223 420 -265 95 -29 246 -54 331
-54 187 0 403 61 566 160 126 77 164 107 286 229 93 94 145 156 203 244 70
106 187 334 212 412 l9 30 215 2 c383 4 762 65 979 157 178 77 279 145 397
268 168 175 271 377 327 638 9 41 19 111 22 155 10 135 15 155 35 155 10 0 22
-4 25 -10 3 -5 38 -20 78 -32 63 -20 93 -22 247 -22 148 0 186 3 245 21 197
59 361 142 570 287 136 95 310 258 439 411 337 399 489 725 582 1250 14 79 18
153 18 350 0 260 -7 323 -55 502 -24 93 -24 93 10 93 42 0 154 43 235 91 135
81 302 272 373 429 30 64 52 119 68 168 9 28 20 52 25 52 4 0 27 -7 51 -16
237 -85 529 -100 764 -37 135 35 290 99 380 156 209 131 381 324 474 532 72
160 94 271 87 445 -5 143 -18 202 -61 294 -14 30 -24 60 -20 66 3 5 32 10 63
10 94 0 190 47 274 133 150 155 170 400 54 653 -20 42 -36 80 -36 85 0 4 44
36 98 72 272 178 569 475 788 787 223 317 397 690 458 980 35 168 39 203 43
388 7 239 -9 376 -74 642 -25 103 -91 296 -132 385 -49 106 -94 195 -126 250
-19 33 -38 67 -41 75 -18 41 -163 247 -240 344 -230 287 -437 460 -736 619
-104 55 -285 111 -418 128 -52 7 -101 17 -108 24 -10 9 -10 24 3 81 25 113 74
269 145 464 17 47 36 101 42 120 5 19 14 39 19 45 5 5 9 15 9 23 0 24 114 244
168 325 79 116 229 267 377 377 256 190 327 220 523 220 127 0 129 0 154 28
63 65 62 169 -1 226 -25 23 -27 59 -6 176 28 162 67 309 110 415 7 17 20 50
29 75 37 96 98 209 162 302 94 134 293 342 311 325 3 -4 1 -32 -6 -64 -33
-169 -44 -286 -44 -508 0 -189 4 -256 22 -374 42 -272 103 -446 189 -538 43
-48 63 -52 92 -23 16 16 20 33 20 95 0 42 -7 111 -15 153 -70 363 -78 432 -78
707 0 190 4 276 17 360 18 111 61 311 77 352 11 31 88 65 254 112 65 19 239
41 318 41 103 0 266 -26 288 -45 25 -24 121 -215 159 -320 17 -49 36 -99 41
-110 34 -77 93 -375 104 -520 9 -130 31 -255 51 -298 25 -52 60 -48 91 9 92
166 15 711 -148 1060 -16 34 -29 66 -29 72 0 17 25 15 40 -3 7 -8 16 -15 20
-15 15 0 110 -67 177 -126 141 -121 227 -236 317 -419 32 -66 63 -128 67 -137
10 -20 25 -62 58 -158 13 -36 28 -78 36 -95 17 -40 57 -205 75 -310 161 -970
134 -1409 -110 -1776 -22 -33 -40 -67 -40 -74 0 -23 51 -56 74 -49 65 20 188
166 264 312 24 45 46 82 49 82 12 0 118 -74 197 -138 258 -207 489 -502 640
-817 48 -101 72 -157 81 -185 4 -14 13 -38 20 -55 19 -42 69 -215 89 -305 37
-168 46 -264 46 -464 -1 -242 -19 -363 -89 -591 -31 -102 -130 -321 -190 -420
-17 -27 -34 -57 -38 -65 -18 -34 -106 -160 -158 -225 -290 -362 -638 -614
-1090 -789 -66 -26 -166 -65 -222 -87 -88 -34 -105 -38 -127 -28 -41 19 -102
-6 -134 -54 l-26 -39 18 -91 c9 -51 23 -121 31 -157 7 -36 21 -103 30 -150 9
-47 23 -114 30 -150 14 -67 31 -159 60 -315 9 -49 20 -108 25 -130 5 -22 18
-98 30 -170 11 -71 25 -155 30 -185 56 -318 53 -681 -6 -930 -109 -459 -452
-850 -904 -1030 -123 -49 -178 -66 -325 -97 -109 -23 -612 -23 -825 1 -80 9
-179 16 -221 16 -66 0 -78 -3 -97 -23 -31 -32 -30 -96 1 -124 51 -46 187 -112
324 -159 29 -10 55 -25 57 -33 31 -106 37 -420 11 -554 -32 -166 -89 -360
-135 -462 -48 -106 -91 -192 -125 -250 -19 -33 -38 -67 -41 -75 -14 -30 -152
-228 -213 -305 -90 -114 -258 -293 -376 -399 -120 -108 -408 -326 -431 -326
-3 0 -24 -13 -47 -29 -149 -101 -465 -250 -692 -326 -338 -113 -548 -148
-1000 -171 -341 -17 -460 -27 -498 -43 -16 -6 -62 -11 -103 -11 -70 0 -78 -2
-105 -29 -30 -31 -37 -65 -16 -92 7 -8 50 -38 97 -65 81 -49 115 -65 188 -94
99 -39 429 -487 572 -779 43 -86 58 -119 104 -226 68 -157 125 -361 172 -620
25 -137 25 -517 0 -650 -46 -245 -100 -414 -192 -600 -131 -265 -257 -429
-523 -681 -104 -99 -126 -115 -147 -110 -29 8 -82 -13 -109 -43 -13 -15 -19
-35 -18 -64 1 -25 -5 -53 -17 -72 -52 -86 0 -155 105 -140 37 6 45 4 60 -17
44 -61 215 -333 215 -343 0 -2 19 -36 43 -77 55 -95 140 -269 211 -433 25 -56
65 -170 96 -270 17 -55 38 -121 46 -146 7 -26 14 -57 14 -70 0 -13 6 -44 14
-69 16 -48 30 -132 47 -275 15 -120 5 -494 -16 -600 -35 -183 -83 -355 -114
-412 -5 -10 -20 -40 -33 -68 -73 -158 -181 -307 -324 -445 -132 -128 -233
-206 -390 -301 -172 -103 -263 -169 -279 -199 -19 -36 -1 -69 50 -95 53 -26
265 -27 335 -2 25 9 51 17 57 17 21 0 161 69 237 116 106 66 217 157 301 245
40 44 78 79 84 79 22 0 181 -251 181 -286 0 -7 4 -15 9 -18 9 -6 60 -163 88
-271 14 -56 17 -111 17 -280 0 -215 -4 -244 -54 -395 -60 -182 -183 -373 -409
-639 -72 -84 -134 -164 -137 -178 -10 -39 13 -99 47 -124 38 -27 72 -21 170
28 111 55 177 103 267 193 99 99 174 204 241 337 106 210 149 358 172 591 20
206 -5 428 -72 633 -60 185 -196 425 -318 561 -28 31 -51 59 -51 63 0 4 22 46
49 94 62 109 132 275 164 391 71 250 81 327 81 625 1 265 -5 329 -50 525 -72
316 -218 682 -381 958 -24 41 -43 75 -43 77 0 6 -80 137 -144 235 -59 92 -88
134 -172 252 -29 42 -54 81 -54 87 0 6 28 29 63 52 258 174 503 466 677 804
105 206 170 405 222 679 19 95 22 148 22 371 0 226 -3 275 -22 375 -64 337
-139 559 -280 831 -126 244 -256 440 -399 606 -29 33 -53 66 -53 72 0 7 24 11
63 11 83 1 356 25 437 40 183 33 281 54 400 87 68 18 301 95 355 118 110 44
137 57 300 138 658 326 1203 844 1512 1437 45 87 86 175 104 225 4 11 17 45
29 75 66 168 103 335 126 570 16 167 8 360 -22 519 -7 41 -11 77 -8 80 3 3 58
4 122 3 299 -7 648 70 930 205 352 169 673 482 835 815 44 90 103 260 126 363
38 173 53 521 31 719 -23 200 -63 471 -89 596 -5 25 -17 83 -26 130 -18 90
-50 238 -66 305 -5 22 -13 60 -18 85 -9 47 -64 298 -79 360 -13 54 -7 60 61
60 66 0 217 22 270 39 18 6 64 20 102 32 39 12 74 26 80 31 5 4 15 8 23 8 7 0
57 21 110 47 423 207 823 562 1060 943 195 313 301 625 347 1025 46 402 -27
884 -195 1275 -34 79 -135 276 -153 299 -6 7 -16 22 -22 32 -5 10 -34 54 -64
96 -155 223 -436 496 -641 623 -30 19 -57 37 -60 41 -3 3 -31 21 -63 39 -32
18 -61 39 -64 46 -3 8 2 44 10 82 31 134 42 302 42 617 -1 392 -16 543 -89
870 -91 416 -319 821 -598 1064 -202 175 -361 261 -633 341 -139 41 -436 53
-612 24 -165 -26 -273 -58 -421 -126 -34 -15 -64 -28 -67 -28 -9 0 -188 -112
-238 -149 -139 -103 -284 -257 -385 -411 -186 -282 -284 -594 -310 -985 l-7
-110 -30 -3 c-210 -18 -517 -193 -783 -446 -120 -115 -281 -311 -282 -344 -1
-4 -10 -18 -21 -31 -17 -21 -22 -22 -30 -10 -5 7 -9 25 -9 38 0 26 -46 168
-80 246 -94 219 -219 401 -413 602 -65 67 -117 127 -115 132 7 23 189 242 322
389 317 348 680 659 1076 919 94 62 358 223 366 223 2 0 21 11 42 23 20 13 75
44 122 69 47 25 117 63 155 83 134 72 231 123 404 211 96 49 187 101 203 116
33 30 36 67 9 92 -20 18 -22 18 -186 -5 -109 -15 -318 -73 -400 -109 -11 -5
-45 -19 -75 -30 -58 -22 -71 -28 -185 -80 -630 -290 -1271 -785 -1766 -1365
-82 -97 -261 -322 -283 -357 -16 -27 -30 -23 -125 36 -195 121 -400 195 -594
215 -101 10 -305 -2 -382 -24 -27 -7 -66 -15 -85 -17 l-35 -3 -12 135 c-14
159 -34 249 -96 441 -111 338 -268 592 -462 747 -79 63 -250 155 -322 174
-253 65 -403 72 -633 29 -171 -32 -367 -117 -550 -239 -69 -46 -106 -65 -108
-57 -2 8 2 40 7 71 16 85 13 323 -4 439 -86 557 -396 952 -857 1094 -122 37
-215 51 -346 51 -106 0 -250 -19 -320 -41 -95 -30 -132 -44 -197 -74 -78 -36
-203 -113 -253 -156 -18 -16 -40 -29 -48 -29 -9 0 -49 36 -90 79 -195 207
-448 370 -706 455 -197 64 -467 89 -723 66z m-2494 -281 c91 -11 228 -45 244
-60 5 -5 15 -9 22 -9 22 0 144 -61 253 -127 111 -66 198 -130 349 -252 81 -66
90 -76 79 -92 -7 -9 -41 -53 -74 -97 -132 -172 -237 -365 -337 -617 -73 -183
-74 -232 -5 -249 47 -12 83 10 105 62 173 429 483 798 906 1080 26 18 50 32
52 32 3 0 33 17 67 38 129 77 331 167 468 207 180 52 230 63 375 80 152 18
215 18 351 1 263 -35 448 -112 664 -276 141 -107 336 -338 465 -552 93 -154
171 -285 174 -292 7 -17 141 -238 189 -311 69 -105 90 -125 131 -125 68 0 99
62 72 146 -5 16 -17 56 -26 89 -27 97 -87 269 -96 279 -5 6 -9 16 -9 24 0 38
-196 405 -267 500 -24 33 -25 34 -6 54 45 52 260 168 310 168 10 0 24 5 30 11
11 11 98 26 217 36 72 6 210 -9 288 -33 26 -8 52 -14 58 -14 12 0 42 -12 130
-52 154 -71 322 -224 400 -364 91 -164 128 -268 165 -462 24 -129 21 -481 -5
-609 -39 -190 -59 -243 -120 -318 -22 -27 -52 -64 -66 -82 -36 -45 -34 -84 7
-131 35 -40 68 -62 95 -62 25 0 109 86 160 163 26 40 58 88 71 108 45 68 249
216 413 298 104 52 115 56 340 127 25 8 97 17 160 20 221 11 385 -29 548 -135
191 -123 320 -320 469 -716 8 -22 19 -51 24 -63 17 -44 67 -246 74 -301 4 -29
8 -106 9 -170 4 -212 38 -243 161 -151 44 32 63 39 140 51 225 33 489 -1 685
-87 295 -130 615 -403 802 -684 179 -270 270 -494 304 -750 36 -271 -4 -478
-149 -769 -22 -43 -45 -73 -75 -94 -24 -18 -45 -42 -48 -56 -14 -63 -27 -91
-69 -149 -50 -69 -54 -86 -24 -103 30 -15 76 -3 130 34 26 18 71 49 101 70 40
27 72 40 119 48 70 12 239 5 304 -12 22 -5 57 -14 78 -20 21 -5 45 -13 55 -18
9 -5 44 -21 77 -36 322 -146 692 -514 942 -935 73 -123 213 -425 213 -460 0
-9 4 -20 9 -25 6 -6 14 -28 20 -50 5 -22 19 -71 30 -110 48 -170 64 -300 65
-515 1 -275 -20 -391 -119 -668 -8 -23 -19 -50 -24 -60 -5 -9 -37 -75 -72
-147 -105 -218 -232 -411 -404 -617 -202 -243 -428 -439 -643 -560 -89 -50
-210 -108 -225 -108 -7 0 -17 -4 -22 -9 -27 -27 -424 -141 -488 -141 -52 0
-93 -59 -69 -97 38 -59 352 -77 533 -29 70 18 148 43 175 57 47 24 66 9 98
-76 26 -70 30 -93 30 -185 0 -83 -4 -112 -18 -140 -58 -109 -147 -171 -287
-199 -24 -5 -51 -12 -61 -15 -11 -5 -33 8 -74 45 -31 28 -91 74 -133 100 -92
59 -127 63 -165 18 -45 -54 -33 -81 69 -154 185 -132 295 -449 240 -692 -40
-175 -121 -317 -260 -458 -101 -102 -176 -152 -335 -223 -251 -111 -619 -126
-824 -32 -52 23 -55 29 -48 97 7 73 -24 270 -60 383 -51 163 -119 285 -221
403 -46 54 -160 149 -190 160 -13 4 19 47 35 47 5 0 44 27 87 59 270 206 470
589 545 1046 28 166 36 259 36 398 0 653 -268 1274 -715 1655 -148 127 -282
211 -441 277 -49 21 -103 44 -121 51 -17 8 -37 14 -45 14 -27 0 -26 12 7 104
46 129 62 281 46 448 -30 315 -109 585 -247 846 -31 59 -63 114 -70 123 -8 8
-14 19 -14 23 0 5 -44 67 -99 140 -161 214 -381 416 -605 556 -100 63 -283
156 -361 184 -27 10 -63 24 -80 32 -106 46 -431 123 -522 124 -44 0 -83 -47
-83 -101 0 -53 35 -86 98 -95 152 -21 403 -107 567 -194 502 -265 915 -780
1065 -1325 64 -236 66 -550 5 -853 -31 -151 -14 -210 57 -199 29 4 37 -1 66
-34 22 -25 49 -43 85 -55 210 -68 382 -178 563 -358 250 -250 395 -528 478
-916 23 -108 46 -321 46 -428 0 -227 -59 -557 -127 -712 -44 -100 -84 -179
-107 -213 -14 -21 -26 -41 -26 -45 0 -4 -39 -54 -88 -112 -144 -172 -312 -306
-515 -409 -60 -31 -114 -63 -120 -72 -15 -24 -1 -64 28 -77 14 -7 46 -12 70
-12 60 0 246 -50 320 -86 139 -68 266 -242 306 -419 5 -22 13 -58 19 -80 16
-64 12 -339 -5 -414 -34 -145 -82 -261 -144 -345 -57 -76 -161 -169 -243 -217
-40 -23 -85 -50 -100 -60 -38 -26 -57 -24 -69 9 -6 15 -17 39 -25 54 -8 14
-14 32 -14 40 0 7 -13 28 -29 46 -24 25 -38 32 -68 32 -83 0 -105 -47 -72
-154 12 -39 28 -90 35 -114 9 -30 10 -51 4 -68 -8 -19 -4 -38 14 -82 59 -139
47 -668 -20 -962 -34 -147 -62 -243 -90 -307 -8 -17 -14 -36 -14 -42 0 -6 -4
-19 -10 -29 -5 -9 -19 -39 -31 -67 -157 -367 -397 -673 -714 -912 -187 -140
-388 -245 -610 -317 -160 -52 -228 -66 -313 -66 -88 0 -92 3 -92 67 0 38 -25
178 -47 258 -21 81 -81 102 -138 49 -28 -25 -28 -26 -19 -112 16 -152 11 -426
-9 -522 -44 -207 -130 -402 -248 -556 -190 -251 -391 -362 -754 -418 -327 -50
-534 -59 -725 -30 -103 15 -106 15 -152 -5 -48 -22 -73 -50 -101 -111 -33 -73
-55 -127 -73 -175 -16 -45 -93 -200 -119 -243 -159 -257 -372 -439 -594 -508
-369 -115 -770 0 -942 271 -39 62 -75 79 -135 63 -39 -11 -50 -20 -72 -58 -14
-25 -49 -74 -78 -110 -28 -36 -79 -110 -113 -165 -243 -393 -479 -622 -806
-780 -117 -56 -341 -133 -465 -159 -41 -8 -100 -20 -130 -27 -96 -21 -423 -24
-547 -4 -398 61 -697 199 -914 422 -181 184 -264 376 -276 631 -5 98 -9 117
-26 133 -29 27 -73 24 -104 -7 l-26 -26 6 -156 c5 -169 11 -199 63 -364 51
-161 131 -311 228 -426 20 -24 36 -50 36 -58 0 -21 -466 -365 -646 -477 -66
-41 -215 -118 -269 -138 -27 -11 -59 -24 -70 -29 -37 -17 -209 -67 -285 -83
-234 -50 -503 -49 -750 3 -85 18 -232 62 -287 86 -17 8 -34 14 -37 14 -8 0
-202 95 -251 123 -287 164 -549 415 -649 621 -24 50 -47 107 -51 126 -12 55
-41 105 -70 118 -66 30 -131 5 -176 -68 -17 -28 -37 -50 -45 -50 -15 0 -172
-80 -313 -159 -82 -46 -233 -119 -271 -131 -14 -5 -50 -18 -80 -30 -306 -119
-733 -133 -1005 -32 -183 68 -289 137 -418 272 -390 406 -708 1091 -777 1670
-22 188 -6 500 30 596 16 42 12 109 -7 127 -37 33 -100 30 -126 -7 -30 -45
-105 -355 -120 -495 -4 -41 -28 -47 -109 -29 -135 31 -233 48 -273 48 -83 0
-284 48 -429 104 -71 27 -231 109 -298 153 -367 240 -633 593 -781 1033 -163
488 -179 1122 -41 1720 46 200 71 287 145 500 26 75 84 203 137 304 121 231
120 226 58 294 -31 34 -38 36 -97 38 -35 1 -67 2 -71 3 -8 1 -42 74 -62 135
-21 66 -22 275 -1 365 28 120 43 167 105 331 35 92 142 317 187 392 127 212
290 424 437 568 41 39 46 49 46 88 0 38 -5 49 -40 83 -22 22 -42 50 -44 62 -3
12 -7 36 -10 52 -3 17 -16 82 -30 145 -40 189 -52 348 -37 497 24 236 73 424
172 658 63 151 167 355 244 483 133 220 347 452 528 574 99 67 116 91 97 138
-23 57 -78 76 -130 45 -14 -8 -32 -17 -40 -21 -8 -4 -44 -28 -80 -52 -185
-127 -390 -334 -536 -542 -282 -402 -469 -854 -515 -1249 -36 -310 12 -625
122 -804 16 -26 29 -53 29 -60 0 -7 -18 -31 -41 -52 -64 -62 -209 -231 -277
-323 -206 -278 -363 -614 -444 -946 -19 -76 -22 -119 -22 -261 0 -148 3 -179
22 -239 27 -84 71 -172 123 -246 22 -31 39 -60 39 -65 0 -5 -24 -59 -54 -120
-83 -171 -95 -199 -158 -360 -24 -61 -77 -219 -88 -260 -61 -232 -71 -277 -94
-405 -45 -249 -50 -311 -51 -641 -1 -179 -5 -331 -9 -338 -7 -11 -104 -59
-251 -126 -112 -51 -352 -134 -488 -169 -196 -51 -267 -59 -522 -59 -311 -1
-435 18 -745 108 -100 30 -207 73 -345 141 -123 61 -114 56 -245 141 -236 153
-440 368 -562 593 -39 71 -109 249 -127 320 -22 89 -52 274 -49 304 3 28 9 33
58 49 215 71 429 222 554 392 105 142 147 256 147 402 1 87 -1 97 -33 155 -26
48 -48 72 -94 103 -58 39 -60 40 -149 40 -74 0 -99 -4 -140 -24 -228 -109
-430 -378 -532 -706 -8 -27 -19 -55 -24 -61 -25 -31 -277 29 -412 97 -274 138
-495 405 -620 749 -78 213 -100 350 -100 615 1 219 6 274 49 485 45 225 182
630 278 827 14 29 26 55 26 59 0 8 181 372 238 479 523 979 1122 1617 1877
1999 73 37 87 41 158 41 l78 0 42 47 c36 40 54 50 122 71 44 14 121 35 170 46
219 51 225 54 225 109 0 21 -9 48 -20 62 -33 43 -141 34 -400 -36 -47 -13 -88
-20 -91 -16 -3 4 -14 52 -24 107 -20 116 -18 384 5 470 57 218 146 400 288
588 68 91 341 366 457 461 381 313 890 609 1188 692 222 62 337 81 379 63 29
-12 33 -11 53 13 29 34 40 134 25 238 -27 198 -32 264 -27 400 10 247 79 461
219 680 81 126 219 269 353 368 109 80 105 78 230 146 173 94 306 142 565 203
114 27 449 26 544 -2 64 -19 73 -25 139 -98 80 -89 99 -102 126 -88 25 14 32
36 21 67 -9 21 -6 31 15 56 40 47 34 75 -30 133 l-55 50 -12 118 c-22 218 21
561 92 732 7 17 19 46 27 65 162 395 562 779 998 959 44 18 89 37 100 42 26
11 112 40 150 50 17 4 65 17 109 28 149 40 281 54 491 55 215 1 291 -10 384
-57 65 -33 69 -43 44 -134 -43 -159 -53 -230 -53 -389 0 -293 55 -402 166
-333 19 11 34 25 34 31 0 5 6 24 14 41 22 50 42 113 76 237 17 63 37 133 44
155 7 22 21 67 31 100 21 73 33 105 80 220 251 607 714 1048 1305 1244 249 82
474 116 718 108 223 -7 371 -33 597 -103 207 -64 443 -189 635 -334 272 -207
484 -480 609 -785 18 -44 38 -91 45 -105 15 -33 56 -38 81 -10 20 22 20 25
-32 175 -13 39 -29 84 -34 102 -5 17 -48 107 -94 199 -47 92 -85 172 -85 178
0 6 9 17 20 24 11 6 32 31 46 54 35 56 148 165 239 233 41 30 77 55 80 55 2 0
45 25 96 55 125 77 399 214 469 236 14 4 50 17 80 28 72 28 160 49 262 65 109
17 139 18 239 5z m-13404 -12925 c45 -28 55 -58 51 -141 -4 -91 -34 -159 -107
-250 -54 -67 -99 -101 -196 -146 -76 -36 -215 -73 -240 -63 -19 7 -15 42 16
146 78 261 287 495 424 473 17 -3 40 -11 52 -19z"/>
<path d="M19390 24984 c-589 -107 -984 -662 -885 -1244 27 -158 50 -223 133
-375 33 -58 130 -181 188 -235 526 -497 1365 -358 1707 281 71 133 127 356
127 505 0 69 -24 226 -47 303 -48 165 -134 312 -261 443 -101 104 -196 175
-307 227 -38 19 -78 38 -87 42 -24 12 -86 27 -198 49 -112 22 -262 24 -370 4z"/>
<path d="M9590 22210 c-58 -8 -148 -31 -190 -48 -14 -5 -45 -18 -70 -28 -25
-10 -79 -38 -120 -63 -216 -128 -376 -321 -469 -566 -50 -133 -72 -349 -52
-511 42 -338 255 -646 565 -813 60 -33 81 -41 191 -78 179 -61 448 -64 610 -7
23 8 46 14 53 14 13 0 201 89 237 112 55 35 163 128 217 187 135 147 231 340
270 546 25 136 7 422 -32 495 -5 10 -10 26 -10 35 0 24 -84 194 -130 263 -86
128 -236 266 -370 339 -60 33 -182 81 -275 108 -68 20 -331 30 -425 15z"/>
<path d="M14440 22131 c-253 -40 -441 -111 -635 -239 -83 -55 -212 -176 -266
-248 -84 -114 -129 -229 -136 -349 -9 -152 22 -252 112 -368 67 -84 138 -135
305 -216 73 -36 249 -71 390 -78 l126 -6 14 -111 c22 -176 25 -581 5 -696 -51
-308 -148 -506 -335 -691 -84 -83 -110 -102 -201 -147 -181 -90 -353 -122
-657 -122 -358 1 -627 61 -908 206 -295 150 -500 351 -628 614 -26 52 -52 106
-59 120 -9 18 -21 25 -42 25 -28 0 -30 -3 -29 -35 2 -43 21 -96 84 -225 226
-467 691 -827 1237 -960 40 -10 77 -23 82 -29 5 -6 32 -67 60 -136 29 -69 56
-134 60 -145 5 -11 19 -45 31 -75 11 -30 25 -64 30 -75 4 -11 29 -72 53 -135
119 -303 161 -411 189 -480 16 -41 37 -93 45 -115 9 -22 21 -53 28 -70 8 -16
28 -66 45 -110 18 -44 36 -89 41 -100 4 -11 44 -105 88 -210 44 -104 91 -214
105 -242 15 -29 26 -55 26 -58 0 -15 168 -358 235 -480 183 -332 422 -643 655
-850 130 -115 133 -117 254 -199 127 -84 274 -156 401 -194 171 -52 242 -62
429 -62 183 0 294 16 421 60 33 12 69 24 80 27 41 13 182 88 255 136 244 160
467 423 604 712 26 55 52 108 57 117 16 31 66 175 92 268 40 140 61 245 82
414 19 146 17 538 -4 726 -17 156 -58 434 -80 550 -40 200 -43 214 -86 423
-32 153 -79 345 -130 542 -7 28 -38 147 -68 265 -30 118 -66 250 -81 292 -14
42 -26 85 -26 95 0 12 24 36 63 65 186 133 370 335 492 538 50 82 145 274 145
292 0 8 4 18 9 24 11 12 67 191 86 279 58 270 60 619 3 845 -20 81 -55 100
-98 55 -23 -25 -23 -27 -12 -114 33 -246 2 -531 -84 -780 -204 -588 -749
-1056 -1334 -1146 -448 -68 -846 143 -1069 567 -51 96 -97 202 -151 348 -18
47 -38 102 -46 123 -8 20 -22 55 -31 78 -22 53 -14 64 67 93 343 123 622 392
684 660 61 261 -59 492 -327 635 -194 102 -490 143 -747 102z m1690 -4641 c10
-6 52 -10 92 -10 45 0 84 -6 102 -15 15 -8 45 -15 65 -15 21 0 46 -7 57 -15
10 -8 35 -15 55 -15 20 0 42 -7 49 -15 7 -8 25 -15 40 -15 15 0 33 -7 40 -15
7 -8 23 -15 35 -15 12 0 28 -7 35 -15 7 -8 23 -15 35 -15 13 0 25 -7 29 -15 3
-8 14 -15 24 -15 11 0 25 -7 32 -15 7 -8 17 -15 23 -15 5 0 25 -11 44 -26 l33
-25 0 -214 c0 -158 -4 -229 -15 -272 -8 -31 -15 -87 -15 -123 0 -36 -5 -71
-10 -76 -6 -6 -13 -35 -16 -65 -3 -30 -9 -63 -14 -74 -5 -11 -11 -41 -15 -67
-3 -27 -10 -48 -16 -48 -5 0 -9 -12 -9 -27 0 -16 -7 -41 -15 -57 -8 -15 -15
-36 -15 -45 0 -10 -7 -26 -15 -37 -8 -10 -15 -29 -15 -40 0 -12 -7 -27 -15
-34 -8 -7 -15 -23 -15 -37 0 -13 -7 -26 -15 -29 -8 -4 -15 -17 -15 -30 0 -14
-7 -27 -15 -30 -8 -4 -15 -14 -15 -24 0 -11 -4 -21 -9 -25 -6 -3 -20 -26 -33
-51 -12 -26 -28 -49 -35 -51 -7 -3 -13 -14 -13 -24 0 -10 -3 -19 -7 -19 -5 0
-26 -25 -48 -55 -22 -30 -43 -55 -47 -55 -4 0 -8 -4 -8 -10 0 -16 -128 -138
-190 -180 -13 -8 -28 -20 -34 -25 -19 -18 -111 -72 -134 -79 -12 -4 -22 -12
-22 -17 0 -5 -11 -9 -24 -9 -13 0 -29 -7 -36 -15 -7 -8 -27 -15 -45 -15 -18 0
-38 -7 -45 -15 -8 -9 -30 -15 -60 -15 -26 0 -64 -7 -83 -15 -46 -19 -169 -19
-222 0 -22 8 -63 15 -91 15 -34 0 -56 5 -64 15 -7 8 -29 15 -49 15 -21 0 -46
7 -57 15 -10 8 -29 15 -42 15 -13 0 -30 7 -38 15 -9 8 -26 15 -38 15 -13 0
-29 7 -36 15 -7 8 -18 15 -25 15 -16 0 -79 32 -83 43 -2 4 -10 7 -18 7 -15 0
-76 39 -82 53 -2 4 -8 7 -13 7 -11 0 -72 42 -77 53 -2 4 -8 7 -13 7 -5 0 -17
8 -28 18 -28 26 -83 72 -86 72 -5 0 -165 161 -165 166 0 2 -8 12 -17 22 -41
42 -103 114 -103 118 0 3 -5 10 -10 17 -6 7 -33 44 -60 82 -28 39 -53 75 -58
80 -4 6 -19 28 -32 50 -13 22 -28 42 -32 43 -4 2 -8 12 -8 23 0 11 -7 22 -15
25 -8 4 -15 14 -15 24 0 10 -7 20 -15 24 -8 3 -15 12 -15 19 0 8 -7 20 -15 27
-24 20 -18 59 15 100 17 21 30 42 30 48 0 5 7 15 15 22 8 7 15 19 15 27 0 7 4
19 10 26 5 7 38 50 72 97 35 47 74 98 88 114 56 66 196 199 256 243 35 26 64
50 64 55 0 4 5 8 11 8 6 0 28 14 49 30 21 17 42 30 48 30 6 0 12 3 14 8 6 13
67 52 83 52 8 0 15 4 15 9 0 5 10 13 23 17 12 4 24 9 27 13 8 10 96 51 109 51
6 0 11 5 11 10 0 6 11 10 24 10 13 0 29 7 36 15 7 8 23 15 35 15 12 0 28 7 35
15 7 8 25 15 40 15 15 0 33 7 40 15 7 8 26 15 42 15 16 0 36 7 44 15 9 8 30
15 47 15 18 0 41 7 51 15 11 8 37 15 59 15 21 0 48 6 60 12 12 7 58 16 102 20
44 4 103 11 130 17 58 11 238 5 265 -9z"/>
<path d="M26195 29551 c-95 -19 -365 -155 -563 -285 -266 -173 -572 -466 -775
-738 -37 -50 -36 -89 4 -122 49 -41 65 -35 148 57 321 354 691 625 1096 802
163 72 226 108 260 149 43 52 47 98 12 121 -28 18 -127 27 -182 16z"/>
<path d="M32525 27993 c-24 -24 -15 -60 45 -186 52 -110 135 -301 150 -347 5
-14 18 -50 30 -80 25 -66 111 -323 133 -400 56 -192 109 -414 141 -590 41
-228 66 -415 92 -685 23 -239 23 -891 0 -1135 -31 -324 -73 -617 -116 -815 -5
-22 -12 -56 -16 -75 -9 -50 -82 -356 -100 -415 -35 -119 -45 -154 -70 -230
-14 -44 -30 -93 -34 -110 -5 -16 -25 -75 -45 -130 -20 -55 -40 -111 -45 -125
-8 -25 -89 -224 -126 -309 -27 -65 -227 -464 -270 -541 -164 -294 -247 -491
-248 -584 0 -43 4 -52 37 -82 55 -51 96 -48 178 15 258 197 467 537 726 1176
163 401 273 771 348 1170 38 200 58 337 96 660 6 55 14 291 16 525 7 570 -18
850 -119 1380 -56 299 -174 735 -238 885 -5 11 -30 74 -56 140 -25 66 -60 148
-75 183 -16 35 -29 66 -29 68 0 7 -92 199 -168 349 -87 173 -151 288 -165 297
-20 13 -55 9 -72 -9z"/>
<path d="M34290 25855 c-49 -26 -54 -52 -31 -146 72 -292 95 -502 95 -869 -1
-338 -12 -439 -74 -670 -17 -63 -35 -131 -41 -150 -5 -19 -25 -80 -44 -135
-94 -266 -146 -432 -140 -452 11 -44 41 -38 114 20 110 89 262 308 301 435 5
15 18 52 29 82 35 92 76 275 90 405 5 44 14 81 20 83 15 5 15 469 1 474 -5 2
-15 41 -20 88 -11 85 -19 134 -46 265 -32 150 -51 226 -89 355 -7 25 -21 76
-32 114 -13 49 -26 75 -46 92 -32 27 -51 29 -87 9z"/>
<path d="M18765 10975 c-56 -16 -99 -58 -109 -106 -7 -38 19 -103 52 -130 23
-18 35 -19 122 -13 85 6 100 4 135 -14 50 -25 95 -73 131 -137 26 -45 28 -59
28 -150 0 -72 -5 -116 -18 -155 -32 -94 -106 -240 -180 -355 -63 -99 -70 -115
-70 -162 -1 -37 5 -59 20 -80 32 -43 92 -73 147 -73 43 0 60 7 133 56 143 93
216 125 349 149 99 18 178 19 275 1 290 -51 511 -227 620 -493 128 -315 29
-690 -253 -960 -72 -69 -239 -183 -268 -183 -16 0 -72 -30 -96 -53 -31 -27
-31 -86 -2 -113 51 -46 291 4 467 98 195 104 350 269 440 468 46 104 50 115
73 207 29 116 32 370 5 478 -59 238 -152 408 -308 563 -119 118 -239 195 -393
254 -165 63 -373 90 -520 68 -179 -26 -159 -27 -151 6 31 127 39 221 27 306
-22 154 -87 284 -193 384 -137 130 -307 181 -463 139z"/>
<path d="M11030 9803 c-8 -3 -27 -17 -42 -31 -23 -21 -28 -34 -28 -73 0 -45 3
-49 106 -160 367 -395 567 -732 635 -1072 40 -205 17 -467 -57 -645 -8 -18
-14 -37 -14 -43 0 -14 -88 -195 -124 -254 -100 -166 -227 -308 -476 -535 -334
-304 -357 -333 -309 -394 19 -24 26 -26 99 -26 177 0 385 76 553 202 43 32 84
58 90 58 7 0 33 -37 59 -83 314 -550 286 -1207 -73 -1703 -110 -152 -312 -349
-529 -514 -108 -82 -160 -142 -160 -182 0 -79 57 -106 186 -88 89 11 94 13
211 66 334 151 684 569 820 979 78 234 96 342 96 585 0 195 -8 267 -50 440
-49 205 -151 439 -270 618 -32 48 -61 95 -65 104 -5 13 9 42 48 99 164 239
254 449 315 733 27 128 27 406 -1 537 -43 202 -125 401 -231 563 -22 32 -39
60 -39 63 0 16 -194 257 -314 389 -229 253 -345 364 -386 369 -19 2 -42 2 -50
-2z"/>
</g>
</svg>
