<?xml version="1.0" standalone="no"?>
<!DOCTYPE svg PUBLIC "-//W3C//DTD SVG 20010904//EN"
 "http://www.w3.org/TR/2001/REC-SVG-20010904/DTD/svg10.dtd">
<svg version="1.0" xmlns="http://www.w3.org/2000/svg"
 width="655.000000pt" height="363.000000pt" viewBox="0 0 655.000000 363.000000"
 preserveAspectRatio="xMidYMid meet">

<g transform="translate(0.000000,363.000000) scale(0.100000,-0.100000)"
fill="#000000" stroke="none">
<path d="M0 1815 l0 -1815 3275 0 3275 0 0 1815 0 1815 -3275 0 -3275 0 0
-1815z m1263 1756 c5 -5 15 -7 22 -5 24 10 26 -29 4 -60 -12 -16 -22 -41 -23
-55 -1 -24 -5 -26 -50 -29 -70 -5 -81 1 -60 33 16 24 15 25 -10 35 -35 13 -33
32 9 68 26 24 41 30 66 27 18 -3 37 -9 42 -14z m1163 -2 c28 -31 26 -102 -3
-131 -21 -20 -31 -22 -130 -20 -126 1 -143 12 -143 88 0 73 19 84 148 84 98 0
111 -2 128 -21z m-686 -24 c10 -13 10 -19 -5 -35 -18 -20 -17 -20 21 -20 31 1
36 3 22 11 -39 22 -6 62 40 50 31 -8 33 -25 4 -29 -19 -3 -21 -6 -11 -18 23
-28 4 -40 -65 -42 -36 0 -69 4 -72 9 -3 6 4 21 17 35 19 20 20 24 6 24 -9 0
-17 7 -17 15 0 20 44 20 60 0z m174 -28 c11 -44 1 -59 -39 -59 -48 0 -53 34
-12 80 27 29 40 24 51 -21z m86 28 c10 -13 10 -19 -5 -35 -18 -19 -17 -20 3
-20 12 0 22 -4 22 -9 0 -20 -74 -29 -85 -10 -4 6 3 21 14 33 l22 23 -21 6
c-12 3 -19 10 -15 16 9 16 51 13 65 -4z m-610 -24 c8 -16 6 -22 -6 -29 -15 -8
-15 -10 -1 -15 10 -4 18 1 22 13 7 22 32 50 45 50 4 0 10 -9 13 -20 3 -11 10
-20 15 -20 6 0 14 9 17 20 7 23 35 27 35 5 0 -19 14 -19 30 0 19 23 33 3 25
-34 -7 -31 -25 -43 -25 -17 0 18 -52 15 -58 -3 -6 -17 -22 -13 -23 7 -1 16 -2
16 -6 0 -2 -10 -11 -18 -19 -18 -8 0 -12 5 -9 10 9 14 -16 8 -34 -8 -7 -7 -21
-10 -30 -6 -9 4 -24 6 -33 6 -23 -1 -24 35 -1 60 21 23 30 23 43 -1z m260 -1
c0 -11 4 -20 9 -20 5 0 7 -9 4 -20 -3 -11 -12 -20 -20 -20 -8 0 -12 4 -9 8 3
5 -1 9 -9 9 -8 0 -15 -4 -15 -9 0 -4 -5 -8 -11 -8 -16 0 -2 52 18 68 24 17 33
15 33 -8z m-838 -250 l3 -50 -35 0 -35 0 3 50 c4 47 5 50 32 50 27 0 28 -3 32
-50z m1068 11 l0 -40 -60 1 c-56 1 -60 3 -60 26 0 30 -22 24 -31 -9 -7 -24 -7
-24 -8 4 -1 15 -5 27 -10 27 -5 0 -12 -12 -14 -27 -4 -26 -4 -26 -6 4 -1 31 1
32 35 31 28 -1 38 -7 45 -25 11 -29 39 -31 39 -2 0 16 -4 20 -17 14 -14 -5
-15 -3 -6 6 15 15 33 3 34 -24 1 -20 2 -20 8 3 4 15 14 24 24 24 9 -1 17 4 17
12 0 8 2 14 5 14 3 0 5 -18 5 -39z m300 -2 c0 -36 -2 -40 -22 -37 -29 4 -34
54 -5 52 9 -1 17 4 17 12 0 8 2 14 5 14 3 0 5 -18 5 -41z m521 24 c13 -16 12
-17 -3 -4 -17 13 -22 21 -14 21 2 0 10 -8 17 -17z m-1713 -33 c10 -27 9 -29
-8 -18 -14 9 -22 9 -36 -3 -10 -8 -15 -9 -11 -3 3 6 11 23 17 38 12 32 24 28
38 -14z m1102 10 c7 -17 10 -33 6 -37 -3 -3 -6 -1 -6 5 0 7 -9 12 -20 12 -11
0 -20 -5 -20 -12 0 -6 -2 -9 -5 -6 -7 7 15 68 25 68 4 0 13 -14 20 -30z m197
-22 c-2 -13 -4 -5 -4 17 -1 22 1 32 4 23 2 -10 2 -28 0 -40z m106 15 l-4 -28
13 25 c7 14 20 25 28 25 9 0 15 -10 15 -25 0 -21 -5 -25 -31 -27 -28 -1 -33 2
-36 28 -5 30 -1 42 12 34 4 -3 5 -17 3 -32z m261 -12 c-8 -8 -44 32 -37 42 3
5 14 -1 24 -14 10 -13 16 -26 13 -28z m-1608 3 c2 -29 2 -29 -3 -1 -2 15 -9
27 -14 27 -5 0 -10 -12 -10 -27 -1 -18 -3 -22 -6 -10 -6 25 4 50 20 45 6 -3
13 -18 13 -34z m21 -11 c-3 -10 -5 -2 -5 17 0 19 2 27 5 18 2 -10 2 -26 0 -35z
m89 14 c1 -25 1 -25 -3 -2 -6 34 -23 32 -24 -2 -1 -26 -1 -27 -7 -5 -4 13 -11
23 -17 23 -5 0 -13 -10 -17 -23 -6 -22 -6 -22 -7 4 -1 29 10 36 49 34 20 -1
25 -7 26 -29z m54 18 c15 -18 6 -45 -15 -45 -18 0 -30 24 -21 45 7 19 20 19
36 0z m75 5 c3 -6 -1 -7 -9 -4 -12 4 -16 0 -16 -16 0 -16 4 -20 16 -16 8 3 12
2 9 -4 -12 -19 -35 -10 -35 13 0 34 21 50 35 27z m55 -5 c15 -18 6 -45 -15
-45 -18 0 -30 24 -21 45 7 19 20 19 36 0z m56 -21 c2 -29 2 -29 -3 -1 -2 15
-9 27 -14 27 -5 0 -10 -12 -10 -27 -1 -18 -3 -22 -6 -10 -6 25 4 50 20 45 6
-3 13 -18 13 -34z m69 26 c4 -6 -1 -7 -12 -4 -16 5 -16 4 1 -10 21 -17 11 -22
-13 -7 -7 5 -10 14 -7 20 9 14 23 14 31 1z m65 -21 c0 -26 -3 -30 -22 -27 -16
2 -23 10 -24 26 -1 18 -1 19 3 2 6 -29 33 -25 33 5 0 14 2 25 5 25 3 0 5 -14
5 -31z m45 21 c3 -6 -1 -7 -9 -4 -10 4 -16 1 -16 -7 0 -7 -3 -10 -6 -6 -7 7 4
27 16 27 5 0 12 -4 15 -10z m45 -30 c0 -22 -3 -40 -8 -40 -4 0 -6 18 -4 40 2
22 6 40 8 40 2 0 4 -18 4 -40z m55 10 c0 -16 -6 -26 -18 -28 -19 -4 -32 20
-23 44 9 25 41 13 41 -16z m255 4 c3 -11 15 -20 30 -21 l25 -3 -22 12 c-13 6
-23 15 -23 19 0 15 22 21 33 10 9 -9 7 -11 -8 -6 -17 6 -17 4 4 -13 28 -23 21
-29 -36 -31 -32 -1 -43 3 -43 14 0 8 5 15 11 15 5 0 7 -4 4 -10 -3 -5 -1 -10
4 -10 6 0 11 9 11 21 0 15 -5 19 -16 15 -9 -3 -12 -2 -9 5 10 15 29 6 35 -17z
m301 -5 c6 -22 7 -22 8 -3 1 12 9 25 19 29 14 5 15 4 5 -6 -7 -7 -13 -21 -13
-31 0 -13 -8 -18 -30 -18 -20 0 -30 5 -30 15 0 8 5 15 11 15 5 0 7 -4 4 -10
-3 -5 -1 -10 4 -10 6 0 11 9 11 21 0 15 -5 19 -16 15 -9 -3 -12 -2 -9 5 10 16
29 5 36 -22z m107 10 c3 -12 2 -12 -6 0 -6 8 -15 10 -22 6 -9 -5 -11 -4 -6 4
10 15 28 10 34 -10z m167 10 c-3 -3 4 -14 15 -24 16 -15 22 -16 35 -5 13 11
14 10 9 -4 -7 -17 -44 -23 -44 -6 0 6 -5 10 -11 10 -5 0 -8 -4 -5 -8 2 -4 -4
-9 -15 -9 -11 -1 -23 5 -26 13 -8 22 4 43 26 41 11 0 18 -4 16 -8z m49 3 c2
-4 -4 -8 -14 -8 -10 0 -16 4 -14 8 3 4 9 8 14 8 5 0 11 -4 14 -8z m-974 -37
c0 -8 -9 -15 -20 -15 -11 0 -20 4 -20 10 0 5 7 6 17 3 11 -4 14 -3 9 5 -4 7
-2 12 3 12 6 0 11 -7 11 -15z m-119 -13 c-7 -2 -18 1 -23 6 -8 8 -4 9 13 5 13
-4 18 -8 10 -11z m879 6 c0 -4 -9 -8 -20 -8 -11 0 -20 4 -20 8 0 4 9 8 20 8
11 0 20 -4 20 -8z m-700 -218 c0 -5 -4 -10 -10 -10 -5 0 -10 5 -10 10 0 6 5
10 10 10 6 0 10 -4 10 -10z m-80 -17 c10 -17 10 -17 20 0 17 27 30 20 30 -18
0 -19 -4 -35 -10 -35 -5 0 -10 6 -10 13 0 7 -9 13 -20 13 -11 0 -20 -6 -20
-13 0 -7 -4 -13 -10 -13 -5 0 -10 16 -10 35 0 38 13 45 30 18z m192 5 c6 -17
-3 -58 -12 -58 -9 0 -18 41 -12 58 2 7 7 12 12 12 5 0 10 -5 12 -12z m-112
-33 c0 -14 -4 -25 -10 -25 -5 0 -10 11 -10 25 0 14 5 25 10 25 6 0 10 -11 10
-25z m37 18 c-18 -5 -18 -5 0 -19 15 -12 16 -15 3 -23 -8 -5 -18 -7 -23 -4 -5
3 -3 9 4 14 10 6 11 9 2 9 -7 0 -13 7 -13 15 0 9 9 15 23 14 18 -1 18 -2 4 -6z
m143 -17 c0 -28 -33 -41 -51 -20 -17 20 -3 44 26 44 20 0 25 -5 25 -24z m160
-1 c0 -27 -34 -40 -51 -19 -6 8 -21 13 -33 13 -17 -1 -18 -2 -3 -6 9 -2 15 -9
12 -14 -9 -13 -45 8 -45 26 0 24 -18 17 -23 -7 -4 -21 -4 -21 -6 3 -1 26 0 26
74 27 72 0 75 -1 75 -23z m35 15 c-17 -7 -17 -9 -2 -9 9 -1 17 -7 17 -15 0
-17 -27 -29 -35 -16 -4 6 2 11 12 11 17 1 17 2 1 6 -26 7 -22 33 5 32 21 0 21
-1 2 -9z m-715 -130 c0 -5 -4 -10 -10 -10 -5 0 -11 -15 -12 -32 l-1 -33 -4 33
c-2 17 -8 32 -14 32 -5 0 -9 5 -9 10 0 6 11 10 25 10 14 0 25 -4 25 -10z m58
-16 c2 -15 -4 -23 -18 -27 -12 -3 -19 -10 -15 -16 3 -6 1 -11 -4 -11 -6 0 -11
18 -11 41 0 36 2 40 23 37 13 -2 23 -11 25 -24z m87 18 c-11 -4 -20 -13 -21
-19 -5 -57 -5 -59 -14 -30 -12 39 -3 57 29 56 22 -1 23 -2 6 -7z m165 -32 c0
-22 -4 -40 -10 -40 -5 0 -10 18 -10 40 0 22 5 40 10 40 6 0 10 -18 10 -40z
m123 17 c18 -7 25 -57 7 -57 -5 0 -10 12 -10 27 0 29 -15 22 -23 -12 -3 -11
-5 0 -6 25 0 25 3 40 7 34 4 -6 15 -13 25 -17z m82 13 c-4 -6 6 -10 22 -11 58
-2 66 -4 70 -16 3 -7 -2 -13 -11 -13 -9 0 -16 -5 -16 -11 0 -6 7 -9 15 -5 8 3
15 1 15 -4 0 -19 -42 -10 -47 10 -7 26 -23 26 -23 -1 0 -11 -4 -17 -10 -14 -6
4 -8 16 -4 27 4 14 2 19 -7 16 -7 -2 -16 -15 -19 -29 -6 -22 -7 -22 -11 8 -5
31 5 53 24 53 4 0 5 -4 2 -10z m203 -19 c-10 -17 -10 -25 0 -41 16 -27 15 -35
-3 -20 -18 15 -20 61 -3 78 17 17 21 7 6 -17z m352 5 c0 -13 3 -31 6 -40 4
-11 0 -16 -13 -16 -17 0 -19 6 -17 38 2 20 3 38 3 40 1 1 6 2 11 2 6 0 10 -11
10 -24z m-1960 -17 c0 -18 -8 -21 -45 -21 -27 0 -31 2 -32 21 -1 14 6 21 25
23 38 5 52 -1 52 -23z m1821 -11 l-5 -33 -6 30 c-7 32 -3 48 9 41 4 -3 5 -20
2 -38z m189 2 c0 -10 -6 -22 -12 -28 -10 -8 -13 -2 -13 28 0 30 3 36 13 28 6
-6 12 -18 12 -28z m-960 0 c0 -16 -4 -30 -10 -30 -5 0 -10 14 -10 30 0 17 5
30 10 30 6 0 10 -13 10 -30z m57 -5 c2 -25 1 -26 -5 -7 -4 13 -11 23 -17 23
-5 0 -13 -10 -17 -23 -5 -19 -6 -18 -7 10 -1 29 2 33 22 30 17 -2 22 -10 24
-33z m63 5 c0 -23 -4 -30 -20 -30 -11 0 -23 7 -26 15 -9 23 3 45 26 45 16 0
20 -7 20 -30z m91 21 c-11 -7 -10 -11 4 -19 10 -5 15 -14 11 -21 -9 -14 -36
-15 -36 0 0 5 6 7 13 3 10 -6 10 -4 0 7 -18 19 -16 39 5 39 13 0 14 -2 3 -9z
m96 -38 c-3 -10 -5 -2 -5 17 0 19 2 27 5 18 2 -10 2 -26 0 -35z m193 36 c0 -5
-6 -7 -12 -3 -9 5 -8 2 1 -10 18 -22 -1 -48 -21 -27 -11 10 -9 11 7 6 19 -6
19 -6 1 9 -10 8 -15 19 -11 25 8 14 35 14 35 0z m126 0 c4 -8 9 -8 17 0 6 6
21 11 34 11 19 0 23 -5 23 -30 0 -25 -4 -30 -24 -30 -14 0 -28 4 -31 10 -6 10
-43 -6 -57 -25 -4 -5 -8 9 -8 33 0 35 3 42 19 42 11 0 23 -5 27 -11z m106 -1
c-5 -7 -12 -22 -15 -33 -3 -13 -5 -9 -6 13 -1 23 3 32 15 32 12 0 14 -3 6 -12z
m106 -5 c2 -8 -5 -13 -18 -13 -12 0 -19 -4 -15 -10 3 -5 13 -6 22 -3 11 4 14
3 9 -5 -18 -30 -55 -1 -42 34 7 18 37 15 44 -3z m-888 -163 c0 -22 -2 -40 -4
-40 -2 0 -6 18 -8 40 -2 22 0 40 4 40 5 0 8 -18 8 -40z m237 29 c-9 -6 -15
-14 -12 -20 4 -5 1 -9 -4 -9 -6 0 -11 -10 -12 -22 -1 -22 -1 -22 -8 2 -10 33
4 60 32 60 20 -1 20 -2 4 -11z m160 -51 c-2 -13 -4 -3 -4 22 0 25 2 35 4 23 2
-13 2 -33 0 -45z m93 21 c0 -36 -2 -40 -22 -37 -15 2 -24 11 -26 26 -3 20 6
27 31 23 4 0 7 6 7 14 0 8 2 15 5 15 3 0 5 -18 5 -41z m30 1 c0 -22 -2 -40 -4
-40 -2 0 -6 18 -8 40 -2 22 0 40 4 40 5 0 8 -18 8 -40z m235 30 c-3 -5 -1 -18
4 -27 6 -10 11 -13 11 -7 0 5 7 19 16 30 8 10 13 14 10 7 -4 -6 1 -16 10 -21
9 -5 14 -17 12 -28 -4 -23 -37 -31 -49 -12 -6 10 -9 10 -9 1 0 -7 -4 -13 -10
-13 -5 0 -10 18 -10 40 0 22 5 40 11 40 5 0 7 -4 4 -10z m392 -52 c-2 -13 -4
-3 -4 22 0 25 2 35 4 23 2 -13 2 -33 0 -45z m-2147 8 c0 -22 -66 -22 -74 0 -8
21 -8 36 2 31 4 -3 16 -1 27 3 22 8 45 -10 45 -34z m735 24 c4 -6 12 -7 18 -3
19 12 37 12 37 1 0 -7 4 -7 13 -1 6 6 20 10 30 10 15 0 17 -7 15 -36 -3 -30
-7 -36 -28 -38 -21 -2 -22 -1 -6 5 19 8 19 9 -2 14 -12 4 -22 13 -22 22 0 9
-4 16 -10 16 -5 0 -10 -9 -10 -20 0 -11 -4 -20 -10 -20 -5 0 -10 6 -10 13 0 9
-3 9 -9 -1 -12 -19 -45 -11 -49 12 -6 27 30 48 43 26z m175 -22 c0 -23 -4 -28
-25 -28 -20 0 -25 5 -25 23 0 29 6 36 31 34 14 -1 19 -9 19 -29z m59 -6 c-2
-24 -2 -24 -6 -4 -5 27 -23 29 -23 2 0 -11 -4 -20 -10 -20 -18 0 -11 48 8 53
25 5 32 -1 31 -31z m81 31 c0 -5 -4 -15 -10 -23 -6 -9 -5 -17 3 -22 8 -5 4 -8
-10 -8 -25 0 -29 10 -11 28 9 9 9 12 0 12 -7 0 -12 5 -12 10 0 6 9 10 20 10
11 0 20 -3 20 -7z m60 -25 c0 -25 -4 -29 -22 -26 -25 3 -37 36 -19 48 25 15
41 7 41 -22z m50 20 c0 -4 -4 -8 -10 -8 -5 0 -10 -9 -10 -20 0 -11 -4 -20 -10
-20 -10 0 -14 42 -5 52 8 8 35 5 35 -4z m87 -35 c-3 -10 -5 -2 -5 17 0 19 2
27 5 18 2 -10 2 -26 0 -35z m60 12 c1 -20 0 -23 -4 -7 -6 27 -23 29 -23 2 0
-11 -4 -20 -10 -20 -5 0 -10 13 -10 29 0 23 4 28 23 27 17 -1 22 -7 24 -31z
m63 3 c0 -25 -4 -29 -22 -26 -25 3 -37 36 -19 48 25 15 41 7 41 -22z m248 -1
c3 -22 -1 -27 -18 -27 -13 0 -24 8 -27 20 -3 11 -9 20 -14 20 -5 0 -9 -9 -9
-20 0 -11 -4 -20 -10 -20 -15 0 -12 48 3 53 6 2 26 3 42 3 25 -1 31 -6 33 -29z
m57 23 c5 -8 11 -7 21 1 11 9 18 9 26 1 9 -9 8 -12 -5 -12 -9 0 -17 -7 -17
-16 0 -10 6 -14 15 -10 8 3 15 1 15 -4 0 -5 -21 -8 -47 -7 -38 2 -48 6 -51 21
-6 27 30 48 43 26z m202 -25 c1 -20 0 -23 -4 -7 -2 12 -11 22 -18 22 -7 0 -16
-10 -18 -22 -3 -18 -5 -15 -6 8 -1 26 2 31 22 30 17 -1 22 -7 24 -31z m83 25
c9 -6 19 -5 28 2 17 15 45 -12 36 -35 -9 -24 -45 -21 -51 3 -6 24 -43 27 -43
4 0 -10 6 -14 15 -10 8 3 15 1 15 -4 0 -16 -30 -11 -36 5 -7 17 2 45 13 45 4
0 15 -4 23 -10z m110 -3 c0 -6 5 -6 13 0 25 20 47 11 47 -19 0 -23 -4 -28 -26
-28 -17 0 -28 6 -31 20 -7 27 -21 25 -26 -2 -3 -18 -5 -16 -6 8 -1 21 4 31 14
31 8 0 15 -5 15 -10z m-1050 -137 c0 -5 -4 -10 -10 -10 -5 0 -10 5 -10 10 0 6
5 10 10 10 6 0 10 -4 10 -10z m270 -9 c0 -5 9 -11 21 -14 28 -8 21 -41 -10
-45 -13 -2 -28 2 -32 10 -7 11 -9 11 -9 0 0 -8 -9 -12 -22 -10 -15 2 -23 10
-23 23 0 23 34 33 46 13 6 -9 9 -7 9 10 0 12 5 22 10 22 6 0 10 -4 10 -9z
m402 -39 l-6 -27 -6 25 c-8 30 -1 58 10 40 4 -6 5 -23 2 -38z m300 25 c7 -37
0 -46 -26 -34 -22 11 -23 12 -7 34 20 29 28 29 33 0z m-1999 4 c4 -1 7 -10 7
-21 0 -16 -7 -20 -34 -20 -22 0 -36 6 -40 17 -8 20 11 34 39 28 11 -2 23 -4
28 -4z m941 -17 c4 -9 -2 -14 -17 -15 -21 0 -21 -1 -2 -9 19 -8 19 -9 -3 -9
-16 -1 -26 6 -29 19 -7 27 -21 25 -26 -2 -4 -21 -4 -20 -6 3 -1 24 2 27 38 27
25 1 41 -4 45 -14z m26 -1 c0 -15 2 -14 15 3 17 23 20 11 4 -18 -11 -21 -12
-21 -25 -3 -16 22 -18 35 -4 35 6 0 10 -8 10 -17z m60 -8 c0 -14 -4 -25 -10
-25 -5 0 -10 11 -10 25 0 14 5 25 10 25 6 0 10 -11 10 -25z m36 16 c-18 -7
-18 -8 -3 -14 25 -9 21 -27 -5 -26 -22 0 -22 1 -3 9 17 7 17 9 3 9 -10 1 -18
8 -18 16 0 9 9 15 23 14 20 0 20 -1 3 -8z m74 -16 c0 -20 -5 -25 -24 -25 -13
0 -26 6 -29 13 -7 22 4 37 29 37 19 0 24 -5 24 -25z m43 18 c-7 -2 -13 -13
-13 -24 0 -10 -4 -19 -10 -19 -5 0 -10 11 -10 25 0 19 5 25 23 24 12 0 16 -3
10 -6z m257 -18 c0 -20 -5 -25 -26 -25 -17 0 -28 6 -31 20 -7 27 -21 25 -26
-2 -4 -21 -4 -20 -6 3 -1 25 2 27 44 27 41 1 45 -1 45 -23z m35 15 c-17 -7
-17 -9 -2 -9 9 -1 17 -8 17 -16 0 -9 -9 -15 -22 -14 -22 0 -22 1 -3 9 17 7 17
9 3 9 -10 1 -18 8 -18 16 0 9 9 15 23 14 21 0 21 -1 2 -9z m105 -25 c0 -38
-22 -57 -43 -36 -8 8 -5 11 14 12 20 1 21 2 4 6 -41 11 -40 53 1 53 21 0 24
-5 24 -35z m30 15 c0 -27 18 -25 23 3 4 18 4 17 6 -6 1 -24 -2 -28 -21 -25
-23 3 -40 48 -19 48 6 0 11 -9 11 -20z m57 -17 c-3 -10 -5 -4 -5 12 0 17 2 24
5 18 2 -7 2 -21 0 -30z m103 12 c0 -20 -5 -25 -25 -25 -20 0 -25 5 -25 25 0
20 5 25 25 25 20 0 25 -5 25 -25z m43 18 c-7 -2 -13 -13 -13 -24 0 -10 -4 -19
-10 -19 -5 0 -10 11 -10 25 0 19 5 25 23 24 12 0 16 -3 10 -6z m107 -18 c0
-20 -5 -25 -26 -25 -17 0 -28 6 -31 20 -7 27 -21 25 -26 -2 -4 -21 -4 -20 -6
3 -1 25 2 27 44 27 41 1 45 -1 45 -23z m-380 -115 c0 -5 -5 -10 -11 -10 -5 0
-7 5 -4 10 3 6 8 10 11 10 2 0 4 -4 4 -10z m390 0 c0 -5 -5 -10 -11 -10 -5 0
-7 5 -4 10 3 6 8 10 11 10 2 0 4 -4 4 -10z m-1155 -20 c-3 -5 -1 -11 5 -15 5
-3 10 -2 10 4 0 14 103 8 108 -6 2 -8 -6 -13 -20 -14 -21 0 -21 -1 -4 -8 11
-4 15 -10 9 -14 -5 -3 -19 0 -29 8 -10 8 -28 14 -39 14 -17 -1 -17 -2 -2 -6 9
-2 15 -9 12 -14 -4 -5 -14 -5 -26 1 -11 6 -24 8 -29 5 -6 -4 -10 9 -10 30 0
22 4 34 10 30 6 -4 8 -10 5 -15z m255 -14 c0 -25 -5 -35 -20 -39 -23 -6 -45
16 -36 38 3 8 12 15 21 15 8 0 15 5 15 10 0 6 5 10 10 10 6 0 10 -15 10 -34z
m183 27 c-7 -2 -19 -2 -25 0 -7 3 -2 5 12 5 14 0 19 -2 13 -5z m464 -45 c-2
-13 -4 -5 -4 17 -1 22 1 32 4 23 2 -10 2 -28 0 -40z m420 0 c-2 -13 -4 -5 -4
17 -1 22 1 32 4 23 2 -10 2 -28 0 -40z m-2094 33 c4 -1 7 -10 7 -21 0 -16 -7
-20 -34 -20 -22 0 -36 6 -40 17 -8 20 7 31 37 27 12 -1 25 -3 30 -3z m931 -9
c-7 -4 -14 -16 -17 -27 -4 -15 -5 -14 -6 8 -1 20 4 27 17 27 11 0 13 -3 6 -8z
m113 -29 c-3 -10 -5 -4 -5 12 0 17 2 24 5 18 2 -7 2 -21 0 -30z m172 9 c-2
-24 -2 -24 -6 -4 -5 27 -23 29 -23 2 0 -11 -4 -20 -10 -20 -5 0 -10 5 -10 10
0 6 -10 10 -22 9 -21 0 -21 -1 -4 -8 15 -6 16 -10 7 -15 -7 -5 -18 -3 -23 2
-7 7 -17 8 -28 2 -9 -5 -22 -5 -31 1 -11 7 -10 9 6 10 11 0 14 3 8 6 -7 2 -13
11 -13 18 0 9 20 13 75 13 l75 0 -1 -26z m68 12 c3 -8 -1 -22 -9 -30 -12 -12
-17 -12 -33 -1 -23 17 -14 47 15 47 11 0 23 -7 27 -16z m83 6 c0 -5 -7 -7 -15
-4 -9 4 -15 0 -15 -10 0 -9 8 -16 17 -16 13 0 14 -3 5 -12 -16 -16 -47 13 -39
36 7 17 47 22 47 6z m39 -30 c5 0 12 10 14 23 4 19 4 18 6 -5 1 -24 -3 -28
-24 -28 -21 0 -25 5 -24 28 0 26 1 26 9 5 5 -13 14 -23 19 -23z m131 15 c0
-14 -4 -25 -10 -25 -5 0 -9 3 -9 8 3 18 -2 32 -11 32 -5 0 -10 -9 -10 -20 0
-11 -4 -20 -10 -20 -5 0 -10 9 -10 20 0 11 -4 20 -10 20 -5 0 -10 -9 -10 -20
0 -11 -4 -20 -10 -20 -5 0 -10 11 -10 25 0 23 3 25 50 25 47 0 50 -2 50 -25z
m43 18 c-13 -2 -23 -11 -23 -19 0 -8 10 -14 23 -14 17 0 19 -2 8 -9 -19 -12
-41 -3 -41 18 0 23 9 31 34 30 19 -2 19 -2 -1 -6z m48 -33 c5 0 9 9 9 20 0 11
5 20 10 20 19 0 11 -47 -9 -53 -25 -6 -31 0 -30 32 2 24 2 24 6 4 2 -13 9 -23
14 -23z m119 16 c0 -24 -22 -37 -47 -29 -14 5 -18 35 -6 46 3 4 17 7 30 7 18
0 23 -6 23 -24z m34 16 c-7 -4 -14 -16 -17 -27 -4 -15 -5 -14 -6 8 -1 20 4 27
17 27 11 0 13 -3 6 -8z m53 -29 c-3 -10 -5 -4 -5 12 0 17 2 24 5 18 2 -7 2
-21 0 -30z m62 10 c-2 -24 -2 -25 -6 -5 -5 27 -23 29 -23 2 0 -11 -4 -20 -10
-20 -5 0 -10 11 -10 25 0 20 5 25 25 25 21 0 25 -4 24 -27z m28 -10 c-3 -10
-5 -4 -5 12 0 17 2 24 5 18 2 -7 2 -21 0 -30z m63 28 c0 -5 -7 -8 -16 -7 -9 0
-19 -5 -21 -11 -3 -8 4 -13 19 -13 18 0 20 -2 8 -10 -19 -12 -45 12 -37 34 7
17 47 23 47 7z m17 -28 c-3 -10 -5 -4 -5 12 0 17 2 24 5 18 2 -7 2 -21 0 -30z
m73 13 c0 -28 -33 -41 -51 -20 -17 20 -3 44 26 44 20 0 25 -5 25 -24z m1500
-79 c0 -7 11 -20 24 -31 14 -10 22 -24 19 -32 -8 -21 -23 -17 -23 6 0 15 -7
20 -25 20 -20 0 -25 -5 -25 -25 0 -20 5 -25 25 -25 29 0 31 -6 11 -26 -20 -20
-49 -17 -66 6 -8 11 -20 20 -27 20 -7 0 -13 11 -13 25 0 16 6 25 15 25 8 0 15
7 15 16 0 8 5 12 10 9 6 -3 10 1 10 9 0 10 9 16 25 16 14 0 25 -6 25 -13z
m620 2 c0 -14 25 -39 39 -39 6 0 11 -9 11 -20 0 -11 -6 -20 -13 -20 -8 0 -20
-11 -27 -25 -9 -16 -22 -25 -37 -25 -14 0 -21 4 -18 10 3 6 1 10 -5 10 -18 0
-40 26 -40 47 0 10 9 25 20 33 11 8 20 20 20 27 0 7 11 13 25 13 14 0 25 -5
25 -11z m-2458 -47 c-13 -4 -23 -10 -23 -14 1 -5 1 -20 0 -35 l-1 -28 -8 28
c-12 39 -3 57 29 56 25 -1 25 -1 3 -7z m148 -22 c10 0 21 8 23 18 3 9 5 -3 5
-28 0 -25 -2 -37 -5 -27 -2 9 -13 17 -23 17 -10 0 -21 -8 -23 -17 -3 -10 -5 2
-5 27 0 25 2 37 5 28 2 -10 13 -18 23 -18z m94 24 c24 -9 21 -61 -4 -69 -39
-12 -66 35 -38 63 14 14 20 14 42 6z m71 -4 c9 8 15 9 15 2 0 -6 -4 -14 -10
-17 -5 -3 -10 -17 -10 -31 0 -13 -4 -24 -10 -24 -5 0 -10 11 -10 24 0 14 -4
28 -10 31 -5 3 -10 11 -10 17 0 7 6 6 15 -2 12 -10 18 -10 30 0z m-2052 -9 c4
-1 7 -10 7 -21 0 -17 -7 -20 -38 -20 -30 0 -39 4 -39 18 0 22 12 29 40 26 12
-1 25 -3 30 -3z m818 -33 c-3 -24 -6 -27 -9 -13 -2 11 -8 25 -13 32 -7 7 -5
13 3 16 21 7 25 0 19 -35z m67 15 c2 -8 -5 -13 -18 -13 -12 0 -18 -4 -15 -10
4 -6 11 -8 16 -5 5 4 9 1 9 -4 0 -16 -26 -13 -40 4 -10 12 -10 18 0 30 15 18
41 16 48 -2z m34 5 c-5 -7 -12 -22 -15 -33 -3 -13 -5 -9 -6 13 -1 23 3 32 15
32 12 0 14 -3 6 -12z m95 -23 c1 -18 -1 -22 -4 -10 -8 31 -23 42 -23 18 0 -12
-4 -25 -10 -28 -6 -4 -10 6 -10 21 0 30 -15 23 -23 -11 -3 -13 -5 -8 -6 13 -1
31 0 32 37 30 33 -3 37 -6 39 -33z m33 5 c0 -16 -4 -30 -10 -30 -5 0 -10 14
-10 30 0 17 5 30 10 30 6 0 10 -13 10 -30z m58 -4 c2 -18 0 -26 -7 -21 -7 3
-10 12 -9 18 5 23 -17 18 -24 -5 -5 -19 -6 -18 -7 10 -1 29 2 33 22 30 16 -2
23 -11 25 -32z m62 6 c0 -21 -5 -28 -21 -29 -11 -1 -23 5 -26 13 -8 22 4 44
27 44 15 0 20 -7 20 -28z m43 21 c-7 -2 -13 -16 -13 -29 0 -13 -4 -24 -10 -24
-5 0 -10 14 -10 30 0 25 4 30 23 29 12 0 16 -3 10 -6z m120 -5 c3 -10 7 -10
20 1 22 17 47 7 47 -19 0 -25 -25 -37 -45 -20 -10 9 -15 9 -15 1 0 -6 -4 -11
-10 -11 -5 0 -10 12 -10 26 0 30 -19 22 -21 -9 -1 -20 -2 -20 -6 -2 -8 34 -23
41 -23 12 0 -15 -4 -27 -10 -27 -5 0 -10 14 -10 30 0 28 2 30 39 30 23 0 41
-5 44 -12z m125 -20 c2 -16 -1 -28 -7 -28 -6 0 -11 12 -11 27 0 29 -15 22 -23
-12 -3 -13 -5 -8 -6 13 -1 29 2 33 22 30 16 -2 23 -11 25 -30z m57 2 c0 -29
-32 -41 -41 -16 -9 24 4 48 23 44 12 -2 18 -12 18 -28z m75 6 c0 -39 -11 -56
-34 -55 -20 0 -20 1 -2 8 19 7 19 8 -2 13 -13 4 -22 14 -22 25 0 26 8 33 37
33 18 0 23 -6 23 -24z m32 12 c-5 -7 -12 -22 -15 -33 -3 -13 -5 -9 -6 13 -1
23 3 32 15 32 12 0 14 -3 6 -12z m68 -16 c0 -20 -5 -28 -19 -29 -11 -1 -25 4
-31 11 -16 20 -1 46 26 46 20 0 24 -5 24 -28z m57 -19 c-3 -10 -5 -2 -5 17 0
19 2 27 5 18 2 -10 2 -26 0 -35z m73 17 c0 -23 -5 -30 -19 -30 -24 0 -45 25
-37 45 3 8 17 15 31 15 21 0 25 -5 25 -30z m-1250 -137 c0 -22 2 -25 10 -13 5
8 18 16 30 16 16 1 20 -5 20 -27 0 -24 -4 -29 -25 -29 -14 0 -25 6 -26 13 0
10 -2 10 -6 0 -10 -27 -23 -11 -23 27 0 22 5 40 10 40 6 0 10 -12 10 -27z
m220 6 c0 -16 3 -19 13 -12 25 20 47 11 47 -19 0 -23 -4 -28 -25 -28 -14 0
-25 6 -26 13 0 10 -2 10 -6 0 -7 -20 -23 -15 -23 6 0 19 -23 35 -34 24 -13
-13 -6 -35 9 -29 8 3 15 1 15 -5 0 -6 -8 -9 -17 -7 -12 2 -18 12 -18 28 0 19
5 25 23 24 12 0 22 5 22 13 0 7 5 13 10 13 6 0 10 -10 10 -21z m310 -19 c0
-36 -3 -40 -24 -40 -13 0 -26 6 -29 13 -6 18 11 47 28 47 8 0 15 5 15 10 0 6
2 10 5 10 3 0 5 -18 5 -40z m107 -22 c-2 -13 -4 -3 -4 22 0 25 2 35 4 23 2
-13 2 -33 0 -45z m1223 21 c0 -36 -2 -40 -22 -37 -13 2 -24 12 -28 25 -6 26
-25 19 -33 -12 -3 -14 -5 -10 -6 11 -1 30 0 31 39 30 27 -1 40 2 40 11 0 7 2
13 5 13 3 0 5 -18 5 -41z m277 -21 c-2 -13 -4 -3 -4 22 0 25 2 35 4 23 2 -13
2 -33 0 -45z m-449 27 c-9 -19 -9 -28 0 -37 17 -17 15 -33 -3 -18 -22 18 -17
80 6 80 5 0 3 -11 -3 -25z m-2120 2 c8 -7 16 -7 20 -1 10 14 32 16 32 3 0 -8
4 -8 15 1 19 16 35 4 35 -26 0 -31 -39 -34 -47 -4 -7 27 -23 25 -23 -2 0 -19
-2 -20 -11 -8 -8 11 -12 12 -16 3 -2 -7 -13 -13 -23 -13 -10 0 -21 -6 -23 -12
-3 -7 -6 5 -6 28 -1 32 3 41 17 41 9 0 23 -4 30 -10z m160 1 c8 -8 15 -8 24
-1 25 20 48 11 48 -19 0 -23 -4 -28 -25 -28 -14 0 -25 4 -25 9 0 5 -11 4 -25
-2 -14 -7 -25 -15 -25 -19 0 -5 -4 -8 -10 -8 -5 0 -10 18 -10 40 0 32 4 40 18
40 10 0 23 -5 30 -12z m172 -21 c0 -24 -4 -28 -22 -25 -14 2 -24 12 -28 28
l-6 25 -17 -30 -16 -30 -1 31 c0 29 1 30 45 30 43 0 45 -1 45 -29z m50 23 c0
-5 -4 -10 -10 -10 -5 0 -10 -9 -10 -20 0 -11 -4 -20 -10 -20 -5 0 -10 14 -10
30 0 23 4 30 20 30 11 0 20 -4 20 -10z m156 -2 c4 -7 3 -8 -4 -4 -7 4 -12 2
-12 -3 0 -6 5 -11 10 -11 6 0 10 -7 10 -15 0 -8 -9 -15 -19 -15 -16 0 -19 6
-17 28 2 15 4 28 5 30 3 6 21 1 27 -10z m220 0 c4 -7 3 -8 -4 -4 -7 4 -12 2
-12 -3 0 -6 5 -11 10 -11 6 0 10 -7 10 -15 0 -8 -9 -15 -19 -15 -16 0 -19 6
-17 28 2 15 4 28 5 30 3 6 21 1 27 -10z m62 -21 c3 -22 -1 -27 -18 -27 -23 0
-35 22 -26 46 10 25 41 12 44 -19z m48 21 c5 -8 1 -9 -12 -5 -18 7 -18 6 -1
-7 23 -18 22 -36 -2 -36 -16 0 -19 6 -17 28 2 15 4 28 5 30 3 7 21 1 27 -10z
m152 -21 c3 -22 -1 -27 -18 -27 -23 0 -35 22 -26 46 10 25 41 12 44 -19z m122
2 c0 -27 -3 -30 -27 -27 -49 5 -40 57 10 58 12 0 17 -8 17 -31z m70 20 c0 -5
-6 -7 -12 -3 -9 6 -9 3 1 -9 12 -15 14 -15 31 5 15 19 20 20 34 9 10 -9 16
-10 16 -2 0 12 67 11 87 -2 6 -4 14 -3 18 2 3 5 14 9 25 8 15 -1 20 -9 20 -29
0 -23 -4 -28 -25 -28 -14 0 -25 6 -26 13 0 10 -2 10 -6 0 -9 -23 -23 -14 -23
14 0 29 -15 22 -23 -12 -4 -18 -5 -18 -6 3 -1 27 -21 30 -21 2 0 -11 -4 -20
-10 -20 -5 0 -10 6 -10 13 0 8 -2 9 -8 1 -8 -14 -92 -15 -92 -2 0 5 6 6 13 2
10 -6 10 -4 0 7 -18 18 -16 39 2 39 8 0 15 -5 15 -11z m277 -24 c1 -18 -1 -22
-4 -10 -9 34 -23 41 -23 12 0 -15 -4 -27 -10 -27 -5 0 -10 14 -10 31 0 26 3
30 23 27 17 -2 22 -10 24 -33z m73 5 c0 -25 -4 -30 -25 -30 -14 0 -28 7 -31
15 -10 25 4 45 31 45 21 0 25 -5 25 -30z m90 -10 c0 -22 -4 -40 -10 -40 -5 0
-10 5 -10 10 0 6 -6 10 -14 10 -19 0 -29 30 -15 46 6 8 20 14 30 14 15 0 19
-8 19 -40z m35 -1 c6 0 13 10 17 23 5 19 6 18 7 -10 1 -29 -2 -33 -21 -30 -18
2 -23 10 -25 33 -2 25 -1 26 5 7 4 -13 12 -23 17 -23z m83 8 c3 -22 -1 -27
-18 -27 -23 0 -35 22 -26 46 10 25 41 12 44 -19z m56 16 c6 -14 8 -14 21 3 18
23 19 14 3 -21 -15 -32 -21 -32 -35 5 -6 17 -8 30 -3 30 4 0 11 -7 14 -17z
m53 -30 c-3 -10 -5 -2 -5 17 0 19 2 27 5 18 2 -10 2 -26 0 -35z m61 35 c9 -9
12 -9 12 1 0 7 9 11 23 9 17 -2 22 -10 24 -33 1 -20 0 -23 -4 -7 -6 27 -23 29
-23 2 0 -21 -19 -28 -21 -7 0 10 -2 10 -6 0 -7 -18 -42 -16 -49 2 -6 15 11 45
25 45 4 0 12 -5 19 -12z m119 1 c16 -16 4 -49 -18 -49 -25 0 -35 26 -19 45 15
18 22 19 37 4z m128 -19 c0 -18 -6 -26 -21 -28 -26 -4 -40 24 -23 45 18 21 44
11 44 -17z m163 -4 c3 -24 0 -27 -20 -24 -15 2 -24 11 -26 27 -3 19 0 22 13
18 10 -5 14 -3 9 4 -4 7 -1 10 7 7 8 -2 15 -17 17 -32z m59 -1 c1 -18 -1 -22
-4 -10 -9 34 -23 41 -23 12 0 -15 -4 -27 -10 -27 -5 0 -10 14 -10 31 0 26 3
30 23 27 17 -2 22 -10 24 -33z m71 3 c3 -24 0 -28 -23 -28 -27 0 -41 20 -31
46 10 27 51 13 54 -18z m42 20 c0 -4 -4 -8 -9 -8 -5 0 -12 -10 -14 -22 -3 -18
-5 -16 -6 8 -1 21 4 31 14 31 8 0 15 -4 15 -9z m110 -20 c0 -21 -5 -28 -20
-28 -23 0 -35 22 -27 44 3 8 15 14 26 13 16 -1 21 -8 21 -29z m-2767 -47 c4
-1 7 -10 7 -21 0 -17 -7 -20 -38 -20 -30 0 -39 4 -39 18 0 22 12 29 40 26 12
-1 25 -3 30 -3z m1527 -91 c0 -36 -2 -40 -25 -40 -20 0 -25 5 -25 25 0 22 9
30 33 26 4 0 7 6 7 14 0 8 2 15 5 15 3 0 5 -18 5 -40z m101 6 c12 -26 -2 -66
-23 -66 -9 0 -9 3 0 12 7 7 12 21 12 33 0 12 -5 26 -12 33 -9 9 -9 12 0 12 7
0 17 -11 23 -24z m-351 -22 c0 -19 -5 -24 -25 -24 -20 0 -25 5 -25 24 0 13 6
26 13 29 22 7 37 -4 37 -29z m70 -4 c0 -34 -25 -59 -42 -42 -9 9 -7 12 8 13
17 0 17 1 -3 9 -38 16 -22 63 18 53 13 -4 19 -14 19 -33z m60 14 c0 -8 -10
-14 -22 -15 -22 -1 -22 -1 2 -10 l25 -8 -25 2 c-27 2 -41 34 -19 47 16 11 39
1 39 -16z m190 -10 c0 -19 -5 -24 -25 -24 -29 0 -43 24 -26 44 18 21 51 8 51
-20z m2498 16 c2 -5 19 -10 38 -10 19 0 34 -4 34 -10 0 -5 11 -10 25 -10 16 0
25 -6 25 -15 0 -8 5 -15 11 -15 14 0 39 -25 39 -39 0 -6 5 -11 11 -11 11 0 39
-25 39 -35 0 -11 28 -35 40 -35 6 0 8 -4 5 -10 -3 -5 1 -10 9 -10 10 0 16 -9
16 -25 0 -14 5 -25 10 -25 6 0 10 -11 10 -25 0 -16 6 -25 15 -25 9 0 15 -9 15
-25 0 -14 5 -25 10 -25 6 0 10 -11 10 -25 0 -18 4 -23 15 -19 11 5 15 -1 15
-20 0 -14 5 -26 10 -26 6 0 10 -16 10 -35 0 -19 5 -35 10 -35 6 0 10 -30 10
-70 0 -54 4 -72 15 -76 11 -5 15 -22 15 -65 0 -33 4 -59 10 -59 6 0 10 -50 10
-130 0 -80 -4 -130 -10 -130 -6 0 -10 -30 -10 -70 0 -56 -3 -70 -15 -70 -10 0
-15 -11 -15 -35 0 -19 -4 -35 -10 -35 -5 0 -10 -11 -10 -25 0 -14 -4 -25 -10
-25 -5 0 -10 -11 -10 -25 0 -14 -5 -25 -11 -25 -14 0 -39 -25 -39 -39 0 -6 -7
-11 -15 -11 -8 0 -15 -4 -15 -10 0 -5 -7 -10 -15 -10 -9 0 -12 -6 -8 -15 3 -9
1 -15 -4 -13 -11 4 -83 -67 -83 -82 0 -5 -11 -10 -25 -10 -14 0 -25 -4 -25
-10 0 -5 -7 -10 -15 -10 -8 0 -15 -7 -15 -15 0 -9 -9 -15 -25 -15 -14 0 -25
-4 -25 -10 0 -6 -108 -10 -304 -10 -253 0 -305 2 -309 14 -4 9 -14 12 -26 9
-12 -3 -21 -1 -21 6 0 6 -7 11 -15 11 -8 0 -15 7 -15 15 0 8 -9 15 -20 15 -22
0 -70 41 -70 60 0 5 -5 10 -11 10 -14 0 -39 25 -39 39 0 6 -5 11 -11 11 -14 0
-39 25 -39 39 0 6 -5 11 -11 11 -17 0 -39 27 -39 49 0 12 -4 21 -10 21 -5 0
-10 9 -10 19 0 10 -7 21 -15 25 -9 3 -15 19 -15 41 0 19 -4 35 -10 35 -6 0
-10 30 -10 70 0 40 -4 70 -10 70 -6 0 -10 52 -10 135 0 83 4 135 10 135 6 0
10 27 10 60 0 33 4 60 10 60 6 0 10 30 10 70 0 56 3 70 15 70 10 0 15 11 15
35 0 19 5 35 10 35 6 0 10 11 10 25 0 14 5 25 10 25 6 0 10 9 10 20 0 11 7 23
15 26 8 4 15 17 15 30 0 13 5 24 10 24 6 0 10 9 10 20 0 11 7 20 15 20 9 0 15
9 15 25 0 14 5 25 10 25 6 0 10 7 10 15 0 8 5 15 10 15 13 0 130 117 130 130
0 6 11 10 25 10 14 0 25 5 25 10 0 6 18 10 40 10 22 0 40 4 40 10 0 18 462 19
468 0z m-2629 -17 c-2 -24 -2 -25 -6 -5 -2 12 -11 22 -18 22 -7 0 -16 -10 -18
-22 -4 -20 -4 -19 -6 5 -1 23 3 27 24 27 21 0 25 -4 24 -27z m-444 -113 c3 -5
1 -10 -4 -10 -6 0 -11 5 -11 10 0 6 2 10 4 10 3 0 8 -4 11 -10z m-25 -41 c0
-24 -4 -38 -10 -34 -5 3 -10 22 -10 41 0 19 5 34 10 34 6 0 10 -18 10 -41z
m292 29 c-7 -7 -12 -21 -12 -33 0 -12 5 -26 12 -33 9 -9 9 -12 0 -12 -21 0
-36 44 -23 69 7 11 17 21 23 21 9 0 9 -3 0 -12z m188 -27 c0 -32 -3 -39 -17
-36 -10 2 -21 4 -25 4 -18 2 -7 43 12 48 11 3 20 9 20 14 0 5 2 9 5 9 3 0 5
-18 5 -39z m100 -2 c0 -24 -4 -38 -10 -34 -5 3 -10 15 -10 26 0 10 -4 19 -10
19 -5 0 -10 -9 -10 -20 0 -11 -4 -20 -10 -20 -5 0 -10 11 -10 25 0 18 5 25 20
25 11 0 20 5 20 10 0 6 5 10 10 10 6 0 10 -18 10 -41z m292 -9 c-4 -31 -22
-32 -22 -2 0 11 -8 18 -20 19 -29 2 -35 -16 -9 -25 16 -6 19 -11 10 -17 -17
-10 -45 19 -38 39 4 9 17 16 31 16 14 0 28 5 32 11 11 18 21 -8 16 -41z m158
15 c0 -19 -4 -35 -10 -35 -5 0 -10 16 -10 35 0 19 5 35 10 35 6 0 10 -16 10
-35z m200 -4 c0 -33 -3 -38 -22 -37 -32 1 -40 56 -9 56 12 0 21 5 21 10 0 6 2
10 5 10 3 0 5 -17 5 -39z m148 -14 c-2 -17 -10 -32 -18 -35 -12 -4 -13 -2 -2
9 6 7 12 22 12 34 0 12 -6 27 -12 35 -11 12 -10 12 5 0 12 -9 17 -23 15 -43z
m-2375 34 c4 -1 7 -10 7 -21 0 -16 -7 -20 -34 -20 -22 0 -36 6 -40 17 -8 20 7
31 37 27 12 -1 25 -3 30 -3z m1108 -4 c-1 -4 -1 -16 -1 -27 0 -11 -4 -20 -10
-20 -5 0 -10 9 -10 20 0 14 -7 20 -22 20 -21 0 -21 0 -2 -15 16 -12 17 -16 4
-24 -8 -5 -18 -7 -23 -4 -5 3 -3 9 4 14 10 6 11 9 2 9 -25 0 -12 29 15 33 34
5 44 4 43 -6z m-581 -9 c0 -9 2 -10 8 -2 4 6 28 12 55 12 45 1 47 0 47 -26 0
-30 -16 -52 -37 -52 -8 0 -13 6 -12 13 2 19 -12 57 -22 57 -5 0 -9 -12 -9 -26
0 -21 -3 -24 -13 -15 -10 8 -17 7 -25 -1 -16 -16 -47 14 -39 36 7 19 47 22 47
4z m170 -17 c0 -22 -4 -28 -17 -26 -10 2 -21 4 -25 4 -10 1 -10 35 -1 44 3 4
15 7 25 7 13 0 18 -8 18 -29z m59 -3 c-2 -31 -2 -31 -6 -5 -5 34 -23 36 -23 1
0 -14 -4 -23 -10 -19 -5 3 -10 17 -10 31 0 19 5 24 25 24 22 0 25 -4 24 -32z
m28 -15 c-3 -10 -5 -2 -5 17 0 19 2 27 5 18 2 -10 2 -26 0 -35z m53 39 c0 -4
-5 -13 -12 -20 -9 -9 -9 -12 0 -12 7 0 12 -4 12 -10 0 -5 -9 -10 -20 -10 -23
0 -26 10 -8 28 10 10 10 15 -2 22 -12 8 -10 10 8 10 12 0 22 -4 22 -8z m60
-21 c0 -22 -4 -28 -17 -26 -10 2 -21 4 -25 4 -10 1 -10 35 -1 44 3 4 15 7 25
7 13 0 18 -8 18 -29z m44 21 c-7 -4 -14 -18 -17 -32 -4 -21 -4 -20 -6 8 -1 24
3 32 17 32 11 0 13 -3 6 -8z m86 -16 c0 -14 -4 -28 -10 -31 -6 -4 -10 7 -10
24 0 17 5 31 10 31 6 0 10 -11 10 -24z m150 -4 c0 -31 -30 -41 -50 -16 -18 20
-4 44 25 44 21 0 25 -5 25 -28z m37 21 c-18 -5 -18 -5 0 -18 14 -10 15 -16 6
-25 -6 -7 -17 -9 -23 -5 -9 6 -9 10 1 16 10 6 11 9 2 9 -7 0 -13 7 -13 15 0 9
9 15 23 14 18 -1 18 -2 4 -6z m141 -20 c3 -21 -2 -25 -25 -22 -4 0 -10 -8 -14
-18 -5 -12 -8 -3 -8 25 -1 39 1 43 22 40 14 -2 23 -11 25 -25z m60 10 c2 -8
-6 -13 -20 -14 -23 -1 -23 -1 2 -8 15 -4 20 -10 13 -14 -27 -17 -59 24 -36 47
10 10 36 3 41 -11z m89 -30 c-3 -10 -5 -2 -5 17 0 19 2 27 5 18 2 -10 2 -26 0
-35z m133 18 c0 -23 -4 -28 -22 -27 -17 1 -24 8 -26 29 -3 23 0 27 22 27 22 0
26 -5 26 -29z m35 19 c-17 -7 -17 -9 -2 -9 18 -1 23 -26 7 -36 -5 -3 -15 -3
-22 1 -8 5 -6 10 8 15 17 7 17 8 2 8 -10 1 -18 8 -18 16 0 9 9 15 23 14 21 0
21 -1 2 -9z m105 -19 c0 -23 -4 -28 -22 -27 -17 1 -24 8 -26 29 -3 23 0 27 22
27 22 0 26 -5 26 -29z m131 -11 c5 0 9 9 9 20 0 21 19 28 21 8 0 -10 2 -10 6
0 2 6 16 12 29 12 20 0 24 -5 24 -29 0 -22 -4 -28 -20 -27 -12 0 -25 8 -30 16
-8 13 -10 12 -10 -2 0 -13 -7 -17 -22 -14 -17 2 -23 10 -25 32 -1 20 0 22 4 7
2 -13 9 -23 14 -23z m136 -7 c-3 -10 -5 -2 -5 17 0 19 2 27 5 18 2 -10 2 -26
0 -35z m123 22 c0 -24 -35 -42 -46 -24 -3 6 -11 5 -20 -2 -7 -6 -21 -8 -30 -5
-15 6 -15 8 0 25 17 18 17 19 -1 24 -10 2 8 4 40 5 53 1 57 -1 57 -23z m130 5
c0 -13 6 -20 18 -19 10 0 12 3 5 6 -19 7 -15 33 5 32 11 0 12 -2 4 -6 -10 -4
-8 -8 5 -18 10 -7 15 -16 11 -20 -13 -13 -88 -12 -99 2 -17 20 -3 43 26 43 18
0 25 -5 25 -20z m-1140 -195 c0 -45 0 -45 35 -45 24 0 35 -5 35 -15 0 -12 -14
-15 -70 -15 l-70 0 0 -130 c0 -109 -2 -130 -15 -130 -13 0 -15 21 -15 130 0
109 2 130 15 130 8 0 15 7 15 15 0 9 9 15 25 15 23 0 25 4 25 45 0 25 5 45 10
45 6 0 10 -20 10 -45z m0 -855 c0 -5 -4 -10 -10 -10 -5 0 -10 5 -10 10 0 6 5
10 10 10 6 0 10 -4 10 -10z m0 -70 c0 -5 -4 -10 -10 -10 -5 0 -10 5 -10 10 0
6 5 10 10 10 6 0 10 -4 10 -10z m-450 -126 c0 -9 -7 -14 -17 -12 -25 5 -28 28
-4 28 12 0 21 -6 21 -16z m130 1 c0 -8 -7 -15 -15 -15 -8 0 -15 7 -15 15 0 8
7 15 15 15 8 0 15 -7 15 -15z m-129 -62 c19 -16 42 -35 51 -43 41 -34 67 -63
63 -70 -2 -3 16 -16 42 -29 l45 -22 -7 -46 c-4 -26 -14 -57 -22 -69 -53 -82
-191 -86 -252 -8 -12 15 -21 22 -21 17 0 -5 11 -20 25 -33 29 -27 32 -40 10
-40 -31 0 -55 60 -56 140 -1 53 -3 65 -8 41 -3 -19 -12 -36 -20 -39 -11 -4
-13 5 -7 49 8 60 49 159 66 159 6 0 8 5 5 10 -14 23 55 9 86 -17z m1029 3 c0
-8 -7 -16 -15 -20 -10 -4 -15 1 -15 14 0 11 7 20 15 20 8 0 15 -6 15 -14z m80
-1 c0 -8 -4 -15 -10 -15 -5 0 -10 6 -10 13 0 7 -3 8 -8 2 -4 -5 -16 -11 -27
-12 -11 -1 -14 0 -6 4 10 4 10 7 2 13 -7 4 4 7 24 8 25 1 35 -3 35 -13z m60 0
c0 -8 -5 -15 -11 -15 -5 0 -8 4 -5 8 3 5 -1 9 -9 9 -8 0 -12 -4 -9 -9 3 -4 0
-8 -5 -8 -6 0 -11 7 -11 15 0 9 9 15 25 15 16 0 25 -6 25 -15z m-716 -11 c12
-30 6 -34 -53 -34 -44 0 -60 4 -65 16 -12 30 -6 34 53 34 44 0 60 -4 65 -16z
m-846 -19 c-3 -3 -9 2 -12 12 -6 14 -5 15 5 6 7 -7 10 -15 7 -18z m82 18 c0
-5 -5 -15 -10 -23 -8 -12 -10 -11 -10 8 0 12 5 22 10 22 6 0 10 -3 10 -7z
m1160 -3 c0 -5 -9 -10 -20 -10 -26 0 -26 -16 1 -23 15 -4 20 -12 17 -29 -3
-21 -8 -23 -70 -25 -58 -2 -68 0 -69 15 -1 16 -2 16 -6 0 -6 -23 -23 -23 -24
0 0 14 -2 14 -9 -3 -8 -19 -9 -19 -9 3 -1 18 4 22 29 22 17 0 30 -5 30 -12 0
-9 3 -8 10 2 7 12 14 12 43 2 41 -15 47 -15 47 -2 0 6 -9 10 -21 10 -15 0 -19
4 -15 16 3 9 6 22 6 30 0 9 11 14 30 14 17 0 30 -4 30 -10z m-1530 -6 c0 -8
-19 -13 -24 -6 -3 5 1 9 9 9 8 0 15 -2 15 -3z m243 -29 c-3 -9 -8 -14 -10 -11
-3 3 -2 9 2 15 9 16 15 13 8 -4z m1042 -5 c3 -5 15 -10 26 -10 12 0 19 -7 19
-20 0 -23 -28 -27 -49 -7 -11 10 -14 10 -18 0 -9 -24 -23 -13 -23 17 0 23 5
30 19 30 11 0 23 -4 26 -10z m505 -15 c0 -2 -5 -16 -12 -30 -14 -32 -31 -33
-18 -1 7 20 6 26 -8 29 -10 3 -5 5 11 6 15 0 27 -1 27 -4z m-780 -125 c0 -5
-5 -10 -11 -10 -5 0 -7 5 -4 10 3 6 8 10 11 10 2 0 4 -4 4 -10z m-830 -53 c0
-2 -8 -11 -18 -20 -15 -14 -19 -15 -19 -2 0 8 4 12 8 9 4 -2 10 0 14 6 6 10
15 14 15 7z"/>
<path d="M1200 3511 c0 -12 5 -21 10 -21 6 0 10 6 10 14 0 8 -4 18 -10 21 -5
3 -10 -3 -10 -14z"/>
<path d="M2184 3526 c-3 -8 -4 -25 -1 -38 3 -17 5 -15 6 10 1 30 3 32 40 32
37 0 40 -2 44 -32 4 -32 4 -32 5 5 l2 37 -45 0 c-30 0 -47 -5 -51 -14z"/>
<path d="M2357 3514 c4 -12 3 -15 -5 -10 -7 4 -12 3 -12 -2 0 -6 7 -12 15 -16
17 -6 22 29 5 39 -6 4 -7 -1 -3 -11z"/>
<path d="M2228 3503 c6 -2 18 -2 25 0 6 3 1 5 -13 5 -14 0 -19 -2 -12 -5z"/>
<path d="M2228 3483 c6 -2 18 -2 25 0 6 3 1 5 -13 5 -14 0 -19 -2 -12 -5z"/>
<path d="M1870 3505 c-7 -9 -11 -18 -8 -20 7 -8 38 5 38 15 0 17 -18 19 -30 5z"/>
<path d="M760 3270 c0 -27 4 -40 14 -40 9 0 14 13 14 40 1 28 -3 40 -14 40
-10 0 -14 -12 -14 -40z"/>
<path d="M1840 3271 c0 -12 6 -21 16 -21 9 0 14 7 12 17 -5 25 -28 28 -28 4z"/>
<path d="M2140 3271 c0 -12 6 -21 16 -21 9 0 14 7 12 17 -5 25 -28 28 -28 4z"/>
<path d="M960 3285 c0 -8 4 -15 10 -15 5 0 7 7 4 15 -4 8 -8 15 -10 15 -2 0
-4 -7 -4 -15z"/>
<path d="M2060 3280 c0 -5 5 -10 10 -10 6 0 10 5 10 10 0 6 -4 10 -10 10 -5 0
-10 -4 -10 -10z"/>
<path d="M2417 3283 c-13 -12 -7 -33 8 -33 8 0 15 9 15 20 0 20 -11 26 -23 13z"/>
<path d="M1180 3271 c0 -12 6 -21 16 -21 9 0 14 7 12 17 -5 25 -28 28 -28 4z"/>
<path d="M1310 3271 c0 -12 6 -21 16 -21 9 0 14 7 12 17 -5 25 -28 28 -28 4z"/>
<path d="M1640 3270 c0 -11 7 -20 15 -20 8 0 15 9 15 20 0 11 -7 20 -15 20 -8
0 -15 -9 -15 -20z"/>
<path d="M2470 3270 c0 -13 5 -20 13 -17 6 2 12 10 12 17 0 7 -6 15 -12 18 -8
2 -13 -5 -13 -18z"/>
<path d="M1780 2985 c0 -8 5 -15 10 -15 6 0 10 7 10 15 0 8 -4 15 -10 15 -5 0
-10 -7 -10 -15z"/>
<path d="M1940 2985 c0 -9 5 -15 11 -13 6 2 11 8 11 13 0 5 -5 11 -11 13 -6 2
-11 -4 -11 -13z"/>
<path d="M1330 2850 c0 -5 5 -10 10 -10 6 0 10 5 10 10 0 6 -4 10 -10 10 -5 0
-10 -4 -10 -10z"/>
<path d="M1545 2840 c-4 -6 -3 -16 3 -22 6 -6 12 -6 17 2 4 6 3 16 -3 22 -6 6
-12 6 -17 -2z"/>
<path d="M2055 2840 c-4 -6 -3 -16 3 -22 6 -6 12 -6 17 2 4 6 3 16 -3 22 -6 6
-12 6 -17 -2z"/>
<path d="M2115 2840 c-8 -13 4 -32 16 -25 12 8 12 35 0 35 -6 0 -13 -4 -16
-10z"/>
<path d="M1862 2668 c6 -18 28 -21 28 -4 0 9 -7 16 -16 16 -9 0 -14 -5 -12
-12z"/>
<path d="M2190 2664 c0 -17 22 -14 28 4 2 7 -3 12 -12 12 -9 0 -16 -7 -16 -16z"/>
<path d="M1112 2668 c6 -18 28 -21 28 -4 0 9 -7 16 -16 16 -9 0 -14 -5 -12
-12z"/>
<path d="M1217 2674 c-8 -8 1 -24 14 -24 5 0 9 7 9 15 0 15 -12 20 -23 9z"/>
<path d="M1280 2664 c0 -17 22 -14 28 4 2 7 -3 12 -12 12 -9 0 -16 -7 -16 -16z"/>
<path d="M1482 2668 c6 -18 28 -21 28 -4 0 9 -7 16 -16 16 -9 0 -14 -5 -12
-12z"/>
<path d="M1742 2668 c6 -18 28 -21 28 -4 0 9 -7 16 -16 16 -9 0 -14 -5 -12
-12z"/>
<path d="M2053 2668 c2 -7 10 -13 17 -13 7 0 15 6 18 13 2 7 -5 12 -18 12 -13
0 -20 -5 -17 -12z"/>
<path d="M2397 2674 c-8 -8 1 -24 14 -24 5 0 9 7 9 15 0 15 -12 20 -23 9z"/>
<path d="M2497 2674 c-8 -8 1 -24 14 -24 5 0 9 7 9 15 0 15 -12 20 -23 9z"/>
<path d="M1630 2505 c0 -8 7 -15 15 -15 8 0 15 7 15 15 0 8 -7 15 -15 15 -8 0
-15 -7 -15 -15z"/>
<path d="M1700 2505 c0 -9 5 -15 11 -13 6 2 11 8 11 13 0 5 -5 11 -11 13 -6 2
-11 -4 -11 -13z"/>
<path d="M1500 2505 c0 -9 5 -15 11 -13 6 2 11 8 11 13 0 5 -5 11 -11 13 -6 2
-11 -4 -11 -13z"/>
<path d="M1800 2505 c0 -9 5 -15 11 -13 6 2 11 8 11 13 0 5 -5 11 -11 13 -6 2
-11 -4 -11 -13z"/>
<path d="M1940 2505 c0 -8 7 -15 15 -15 8 0 15 7 15 15 0 8 -7 15 -15 15 -8 0
-15 -7 -15 -15z"/>
<path d="M2130 2505 c0 -8 7 -15 15 -15 8 0 15 7 15 15 0 8 -7 15 -15 15 -8 0
-15 -7 -15 -15z"/>
<path d="M2277 2514 c-8 -8 1 -24 14 -24 5 0 9 7 9 15 0 15 -12 20 -23 9z"/>
<path d="M1390 2345 c0 -8 5 -15 10 -15 6 0 10 7 10 15 0 8 -4 15 -10 15 -5 0
-10 -7 -10 -15z"/>
<path d="M1480 2356 c0 -2 7 -6 15 -10 8 -3 15 -1 15 4 0 6 -7 10 -15 10 -8 0
-15 -2 -15 -4z"/>
<path d="M1650 2345 c0 -9 5 -15 11 -13 6 2 11 8 11 13 0 5 -5 11 -11 13 -6 2
-11 -4 -11 -13z"/>
<path d="M2107 2353 c-12 -11 -8 -23 8 -23 8 0 15 7 15 15 0 16 -12 20 -23 8z"/>
<path d="M2440 2345 c0 -8 5 -15 10 -15 6 0 10 7 10 15 0 8 -4 15 -10 15 -5 0
-10 -7 -10 -15z"/>
<path d="M4530 2205 c0 -20 5 -25 25 -25 20 0 25 5 25 25 0 20 -5 25 -25 25
-20 0 -25 -5 -25 -25z"/>
<path d="M2350 2190 c0 -13 7 -20 20 -20 13 0 20 7 20 20 0 13 -7 20 -20 20
-13 0 -20 -7 -20 -20z"/>
<path d="M1535 2190 c-4 -6 -3 -16 3 -22 6 -6 12 -6 17 2 4 6 3 16 -3 22 -6 6
-12 6 -17 -2z"/>
<path d="M1762 2186 c1 -10 8 -17 13 -17 15 1 12 24 -3 29 -9 3 -13 -2 -10
-12z"/>
<path d="M1885 2190 c-4 -6 -3 -16 3 -22 6 -6 12 -6 17 2 4 6 3 16 -3 22 -6 6
-12 6 -17 -2z"/>
<path d="M1945 2190 c-8 -13 4 -32 16 -25 12 8 12 35 0 35 -6 0 -13 -4 -16
-10z"/>
<path d="M2050 2185 c0 -9 5 -15 11 -13 6 2 11 8 11 13 0 5 -5 11 -11 13 -6 2
-11 -4 -11 -13z"/>
<path d="M2180 2185 c0 -8 5 -15 10 -15 6 0 10 7 10 15 0 8 -4 15 -10 15 -5 0
-10 -7 -10 -15z"/>
<path d="M994 2026 c-8 -22 3 -33 18 -18 9 9 9 15 0 24 -9 9 -13 7 -18 -6z"/>
<path d="M1214 2026 c-8 -22 3 -33 18 -18 9 9 9 15 0 24 -9 9 -13 7 -18 -6z"/>
<path d="M1464 2026 c-8 -22 3 -33 18 -18 9 9 9 15 0 24 -9 9 -13 7 -18 -6z"/>
<path d="M2794 2026 c-8 -22 3 -33 18 -18 9 9 9 15 0 24 -9 9 -13 7 -18 -6z"/>
<path d="M507 2024 c-8 -8 1 -24 14 -24 5 0 9 7 9 15 0 15 -12 20 -23 9z"/>
<path d="M734 2026 c-8 -22 3 -33 18 -18 9 9 9 15 0 24 -9 9 -13 7 -18 -6z"/>
<path d="M670 2015 c0 -8 5 -15 10 -15 6 0 10 7 10 15 0 8 -4 15 -10 15 -5 0
-10 -7 -10 -15z"/>
<path d="M835 2030 c-4 -6 -3 -16 3 -22 6 -6 12 -6 17 2 4 6 3 16 -3 22 -6 6
-12 6 -17 -2z"/>
<path d="M1637 2024 c-8 -8 1 -24 14 -24 5 0 9 7 9 15 0 15 -12 20 -23 9z"/>
<path d="M1934 2026 c-8 -22 3 -33 18 -18 9 9 9 15 0 24 -9 9 -13 7 -18 -6z"/>
<path d="M2055 2030 c-7 -12 2 -30 16 -30 12 0 12 27 0 35 -5 3 -12 1 -16 -5z"/>
<path d="M2150 2015 c0 -8 5 -15 10 -15 6 0 10 7 10 15 0 8 -4 15 -10 15 -5 0
-10 -7 -10 -15z"/>
<path d="M2694 2026 c-8 -22 3 -33 18 -18 9 9 9 15 0 24 -9 9 -13 7 -18 -6z"/>
<path d="M2975 2030 c-7 -12 2 -30 16 -30 12 0 12 27 0 35 -5 3 -12 1 -16 -5z"/>
<path d="M3135 2030 c-4 -6 -3 -16 3 -22 6 -6 12 -6 17 2 4 6 3 16 -3 22 -6 6
-12 6 -17 -2z"/>
<path d="M1890 1865 c0 -8 7 -15 15 -15 8 0 15 7 15 15 0 8 -7 15 -15 15 -8 0
-15 -7 -15 -15z"/>
<path d="M1640 1865 c0 -8 7 -15 15 -15 8 0 15 7 15 15 0 8 -7 15 -15 15 -8 0
-15 -7 -15 -15z"/>
<path d="M1710 1865 c0 -8 5 -15 10 -15 6 0 10 7 10 15 0 8 -4 15 -10 15 -5 0
-10 -7 -10 -15z"/>
<path d="M1778 1873 c7 -3 16 -2 19 1 4 3 -2 6 -13 5 -11 0 -14 -3 -6 -6z"/>
<path d="M1957 1874 c-8 -8 1 -24 14 -24 5 0 9 7 9 15 0 15 -12 20 -23 9z"/>
<path d="M4043 1665 c-7 -8 -13 -19 -13 -25 0 -5 -7 -10 -15 -10 -19 0 -20
-36 0 -44 8 -3 25 5 39 19 25 25 66 34 66 15 0 -5 7 -10 15 -10 8 0 15 -4 15
-10 0 -5 9 -10 20 -10 13 0 20 7 20 20 0 11 -4 20 -10 20 -5 0 -10 7 -10 15 0
8 -7 15 -15 15 -8 0 -15 5 -15 10 0 15 -83 11 -97 -5z"/>
<path d="M4373 1665 c-7 -8 -13 -19 -13 -25 0 -5 -7 -10 -16 -10 -10 0 -14 -7
-12 -22 2 -17 11 -24 31 -26 15 -2 27 2 27 8 0 17 26 40 45 40 19 0 45 -23 45
-39 0 -6 11 -11 25 -11 20 0 25 5 25 25 0 14 -4 25 -10 25 -5 0 -10 7 -10 15
0 8 -7 15 -15 15 -8 0 -15 5 -15 10 0 16 -93 11 -107 -5z"/>
<path d="M4650 1648 c0 -10 -7 -18 -15 -18 -9 0 -15 -9 -15 -24 0 -18 6 -25
29 -28 23 -3 27 -1 23 14 -3 12 1 18 12 18 9 0 16 -5 16 -11 0 -17 27 -39 49
-39 15 0 21 6 21 21 0 22 -22 49 -39 49 -6 0 -11 6 -11 14 0 8 -14 15 -35 18
-29 3 -35 1 -35 -14z"/>
<path d="M3810 1649 c0 -14 -25 -39 -39 -39 -6 0 -11 -11 -11 -25 0 -20 5 -25
25 -25 14 0 25 5 25 11 0 14 25 39 39 39 6 0 11 -4 11 -9 0 -5 9 -11 20 -14
16 -4 20 0 20 19 0 13 -4 24 -10 24 -5 0 -10 7 -10 15 0 10 -11 15 -35 15 -19
0 -35 -5 -35 -11z"/>
<path d="M4220 1475 c0 -8 -5 -15 -10 -15 -6 0 -22 -11 -35 -25 -31 -30 -33
-65 -5 -65 11 0 20 5 20 10 0 6 7 10 15 10 8 0 15 7 15 15 0 26 65 19 94 -10
14 -14 37 -25 51 -25 20 0 25 5 25 25 0 14 -5 25 -11 25 -11 0 -39 25 -39 35
0 19 -34 35 -74 35 -34 0 -46 -4 -46 -15z"/>
<path d="M4480 1459 c0 -13 -25 -39 -38 -39 -5 0 -12 -11 -14 -25 -5 -24 -3
-25 38 -25 24 0 44 5 44 10 0 6 7 10 16 10 18 0 44 -23 44 -39 0 -6 14 -11 31
-11 27 0 30 3 27 28 -2 15 -8 26 -15 25 -7 -2 -13 3 -13 10 0 7 -9 19 -20 27
-11 8 -20 20 -20 27 0 8 -14 13 -40 13 -22 0 -40 -5 -40 -11z"/>
<path d="M3980 1452 c0 -5 -11 -15 -25 -22 -14 -7 -25 -19 -25 -27 0 -7 -4
-13 -10 -13 -5 0 -10 -9 -10 -20 0 -13 7 -20 20 -20 11 0 20 5 20 10 0 6 7 10
15 10 8 0 15 5 15 10 0 6 11 10 25 10 14 0 25 -4 25 -10 0 -5 16 -10 35 -10
45 0 46 22 5 61 -28 27 -90 41 -90 21z"/>
<path d="M3733 1425 c-7 -8 -13 -19 -13 -25 0 -5 -5 -10 -11 -10 -17 0 -39
-27 -39 -49 0 -29 26 -27 54 4 23 25 66 34 66 15 0 -5 9 -10 20 -10 13 0 20 7
20 20 0 11 -4 20 -10 20 -5 0 -10 5 -10 11 0 33 -54 50 -77 24z"/>
<path d="M4733 1425 c-7 -8 -13 -19 -13 -25 0 -5 -4 -10 -10 -10 -5 0 -10 -11
-10 -25 0 -20 5 -25 25 -25 16 0 25 6 25 15 0 8 9 15 20 15 11 0 20 -5 20 -11
0 -19 28 -39 54 -39 21 0 26 5 26 25 0 14 -5 25 -11 25 -11 0 -39 25 -39 35 0
4 -6 13 -14 21 -18 18 -57 18 -73 -1z"/>
<path d="M1847 1713 c-12 -11 -8 -23 8 -23 8 0 15 7 15 15 0 16 -12 20 -23 8z"/>
<path d="M2590 1706 c0 -9 7 -16 16 -16 17 0 14 22 -4 28 -7 2 -12 -3 -12 -12z"/>
<path d="M897 1714 c-8 -8 1 -24 14 -24 5 0 9 7 9 15 0 15 -12 20 -23 9z"/>
<path d="M995 1711 c-7 -12 12 -24 25 -16 11 7 4 25 -10 25 -5 0 -11 -4 -15
-9z"/>
<path d="M1067 1713 c-12 -11 -8 -23 8 -23 8 0 15 7 15 15 0 16 -12 20 -23 8z"/>
<path d="M1267 1713 c-12 -11 -8 -23 8 -23 8 0 15 7 15 15 0 16 -12 20 -23 8z"/>
<path d="M1540 1705 c0 -8 5 -15 10 -15 6 0 10 7 10 15 0 8 -4 15 -10 15 -5 0
-10 -7 -10 -15z"/>
<path d="M1720 1706 c0 -9 7 -16 16 -16 17 0 14 22 -4 28 -7 2 -12 -3 -12 -12z"/>
<path d="M2000 1706 c0 -9 7 -16 16 -16 17 0 14 22 -4 28 -7 2 -12 -3 -12 -12z"/>
<path d="M2140 1706 c0 -9 7 -16 16 -16 17 0 14 22 -4 28 -7 2 -12 -3 -12 -12z"/>
<path d="M2360 1706 c0 -9 7 -16 16 -16 17 0 14 22 -4 28 -7 2 -12 -3 -12 -12z"/>
<path d="M2496 1711 c-4 -7 -5 -15 -2 -18 9 -9 19 4 14 18 -4 11 -6 11 -12 0z"/>
<path d="M2527 1714 c-8 -8 1 -24 14 -24 5 0 9 7 9 15 0 15 -12 20 -23 9z"/>
<path d="M2657 1714 c-8 -8 1 -24 14 -24 5 0 9 7 9 15 0 15 -12 20 -23 9z"/>
<path d="M1068 364 c-15 -8 -33 -24 -39 -37 -11 -22 -11 -22 11 2 13 13 37 29
54 37 17 7 24 13 16 13 -8 0 -27 -6 -42 -15z"/>
<path d="M996 325 c-3 -9 -6 -24 -5 -33 0 -9 5 -4 10 12 9 32 6 48 -5 21z"/>
<path d="M1003 210 c0 -36 2 -50 4 -32 2 17 2 47 0 65 -2 17 -4 3 -4 -33z"/>
<path d="M1850 320 c0 -5 5 -10 10 -10 6 0 10 5 10 10 0 6 -4 10 -10 10 -5 0
-10 -4 -10 -10z"/>
<path d="M1730 320 c0 -5 5 -10 10 -10 6 0 10 5 10 10 0 6 -4 10 -10 10 -5 0
-10 -4 -10 -10z"/>
</g>
</svg>
