<?xml version="1.0" standalone="no"?>
<!DOCTYPE svg PUBLIC "-//W3C//DTD SVG 20010904//EN"
 "http://www.w3.org/TR/2001/REC-SVG-20010904/DTD/svg10.dtd">
<svg version="1.0" xmlns="http://www.w3.org/2000/svg"
 width="649.000000pt" height="362.000000pt" viewBox="0 0 649.000000 362.000000"
 preserveAspectRatio="xMidYMid meet">

<g transform="translate(0.000000,362.000000) scale(0.100000,-0.100000)"
fill="#000000" stroke="none">
<path d="M5350 3589 c-63 -15 -135 -28 -160 -29 -80 0 -164 -19 -225 -49 -33
-17 -116 -43 -185 -60 -119 -27 -416 -103 -976 -247 -138 -35 -253 -64 -256
-64 -3 0 -8 39 -11 87 -4 57 -11 92 -21 102 -14 13 -68 9 -498 -38 -266 -30
-488 -59 -495 -65 -11 -10 18 -494 67 -1126 14 -191 15 -184 -12 -166 -57 41
-138 -4 -138 -75 0 -32 6 -43 35 -66 42 -34 45 -62 9 -99 -26 -25 -27 -28 -21
-115 4 -56 3 -89 -3 -89 -6 0 -10 -5 -10 -11 0 -6 -13 -21 -29 -34 -34 -30
-54 -73 -49 -111 2 -23 8 -29 27 -30 14 -1 35 -13 47 -28 13 -14 30 -26 39
-26 11 0 15 -6 11 -18 -11 -35 -14 -87 -5 -104 6 -10 5 -19 -1 -23 -15 -9 -2
-25 19 -25 11 0 18 -6 17 -13 -2 -18 180 -190 196 -184 10 4 10 6 1 6 -7 1
-13 9 -13 19 0 12 -2 14 -8 4 -6 -8 -12 0 -20 25 -10 31 -9 40 5 55 12 13 13
21 5 31 -7 7 -10 23 -7 35 2 15 -1 22 -11 22 -8 0 -12 5 -9 10 3 5 15 10 25
10 28 0 29 20 3 66 -39 69 -50 73 -58 20 -10 -63 -27 -47 -24 23 1 31 -2 64
-6 74 -16 37 19 200 38 180 4 -3 7 -1 7 5 0 6 -7 18 -15 26 -11 10 -18 43 -21
98 -5 71 -9 86 -30 105 -38 35 -40 65 -6 90 l30 22 6 -67 c4 -37 9 -95 13
-130 3 -36 11 -66 18 -68 6 -3 34 -1 61 4 37 7 41 10 19 11 -26 1 -30 5 -30
29 -1 16 4 29 10 30 5 1 31 4 57 8 64 9 78 -3 74 -66 -3 -43 0 -51 20 -65 28
-18 29 -14 10 23 l-14 27 109 2 109 3 0 -64 c0 -34 3 -111 7 -170 l6 -107 -24
4 c-13 3 -29 -1 -36 -8 -9 -10 5 -12 68 -12 48 0 84 -4 91 -11 7 -7 22 -12 34
-12 13 0 26 -5 29 -11 4 -6 13 -8 21 -5 8 3 18 -2 21 -11 9 -22 35 -53 46 -53
5 0 15 -6 23 -14 12 -13 0 -14 -95 -9 -96 5 -196 -4 -245 -23 -9 -3 -15 41
-22 169 -9 162 -12 176 -34 205 -28 35 -37 39 -37 17 0 -8 5 -15 10 -15 5 0 7
-9 4 -21 -3 -12 -3 -18 0 -15 15 15 33 -50 26 -93 -4 -25 -6 -49 -5 -52 0 -4
3 -34 6 -68 4 -50 2 -63 -11 -68 -14 -5 -13 -8 3 -20 18 -14 18 -15 1 -28 -10
-7 -14 -16 -9 -19 5 -3 8 -18 7 -33 -1 -15 2 -44 6 -63 10 -44 3 -70 -21 -70
-20 0 -38 32 -21 38 6 2 11 12 11 23 0 10 3 19 8 19 4 0 7 14 7 30 1 17 -3 30
-7 30 -4 0 -8 7 -8 15 0 18 2 18 -50 0 -23 -8 -71 -15 -107 -15 l-64 0 37 -32
c37 -32 50 -38 92 -40 26 -1 37 -18 47 -70 l7 -37 -56 0 c-40 1 -64 7 -83 22
-65 48 47 -59 158 -153 l116 -97 86 -8 c72 -6 86 -10 90 -26 5 -19 -11 -19
-749 -19 -666 0 -753 2 -748 15 4 8 10 15 15 15 5 0 9 14 9 30 0 32 -16 39
-39 18 -12 -11 -13 -9 -6 7 4 11 9 28 12 37 7 22 -44 88 -63 81 -15 -5 -19 8
-7 21 5 4 8 19 8 32 1 17 -5 24 -18 24 -13 0 -17 5 -13 16 3 9 6 20 6 25 0 5
8 9 18 10 14 0 13 2 -4 9 -17 7 -22 17 -22 49 -1 54 -10 81 -28 81 -8 0 -14 5
-14 11 0 6 -7 9 -15 5 -9 -3 -15 0 -15 8 0 8 5 16 11 18 21 7 -2 54 -36 73
-28 14 -34 22 -29 40 5 19 0 24 -33 30 -21 5 -44 7 -51 6 -7 -1 -11 2 -10 7 2
5 -8 19 -22 30 -14 12 -19 21 -12 22 21 0 13 18 -11 24 -24 6 -28 19 -27 91 1
47 27 79 85 106 79 37 173 19 295 -57 118 -73 186 -104 227 -104 36 0 35 1
-52 51 -131 75 -210 136 -210 162 0 39 -134 118 -264 153 -47 13 -89 28 -94
33 -10 10 8 87 23 96 6 3 10 15 10 26 0 10 5 19 10 19 6 0 10 9 10 20 0 12 13
34 29 49 16 16 27 31 25 34 -8 8 50 45 62 40 6 -2 15 4 18 14 4 10 2 19 -3 21
-6 2 -8 8 -5 13 3 6 12 5 22 -3 15 -12 16 -11 4 4 -8 9 -11 21 -9 26 3 4 2 14
-3 22 -7 11 -12 12 -20 4 -13 -13 -53 -6 -44 8 3 5 15 6 26 2 14 -4 18 -2 14
5 -5 7 7 11 34 11 33 0 41 3 36 15 -3 9 0 15 10 15 12 0 12 3 -2 25 -15 24
-15 25 2 25 18 1 18 1 0 15 -16 12 -17 15 -4 15 18 0 32 27 17 32 -6 2 1 10
16 18 24 13 32 11 111 -28 l84 -42 0 26 c0 18 -9 30 -31 42 -17 9 -37 22 -46
28 -25 17 -41 128 -31 223 9 94 26 124 67 119 24 -3 26 -7 25 -50 0 -32 4 -48
12 -48 7 0 22 -15 33 -34 21 -33 43 -46 89 -50 16 -1 22 4 23 19 2 29 2 27 -5
68 -7 36 -6 37 24 37 17 0 41 -6 53 -12 12 -7 45 -13 72 -13 50 0 50 0 53 -34
5 -54 -6 -98 -35 -131 -30 -36 -26 -49 7 -22 26 21 28 29 37 120 3 34 10 62
15 62 5 0 8 10 6 22 -3 19 -13 24 -68 34 -35 6 -66 16 -68 23 -2 6 -8 11 -13
11 -6 0 -7 -5 -3 -11 4 -7 0 -9 -12 -6 -11 3 -36 8 -56 11 -27 5 -36 11 -31
21 3 8 9 12 14 9 5 -3 14 6 20 20 7 14 15 23 19 21 13 -8 -6 59 -32 116 -14
30 -39 71 -57 93 -28 35 -36 51 -29 59 2 1 -7 16 -20 34 -12 17 -22 35 -22 40
0 28 -160 126 -247 151 -24 7 -43 17 -43 23 0 6 -4 8 -9 5 -5 -4 -38 0 -73 9
-36 8 -123 15 -203 16 -130 2 -145 0 -207 -24 -61 -24 -67 -25 -71 -9 -4 14
-5 13 -6 -3 0 -12 -14 -29 -31 -38 l-30 -18 0 38 0 38 -62 -2 c-35 -1 -65 -2
-68 -3 -3 0 2 -5 10 -10 8 -5 36 -10 63 -10 39 0 47 -3 47 -18 0 -16 -7 -18
-58 -14 -65 5 -93 -11 -91 -51 l0 -22 9 22 c16 39 69 55 111 32 18 -9 17 -12
-22 -50 -22 -21 -43 -39 -47 -39 -3 0 -14 7 -24 17 -10 9 -18 12 -18 6 0 -5 9
-18 20 -28 19 -17 19 -18 1 -44 -22 -33 -61 -114 -61 -128 0 -6 -5 -13 -10
-15 -6 -2 -12 -14 -14 -28 -2 -14 -11 -52 -21 -85 l-19 -60 -7 47 c-10 63 -35
136 -59 173 -25 38 -25 30 -1 -21 49 -101 51 -235 6 -348 -28 -70 -29 -76 -15
-76 14 0 48 70 65 133 15 56 15 56 20 -76 2 -73 6 -92 24 -111 12 -12 21 -26
21 -30 0 -5 15 -29 34 -55 18 -25 42 -64 52 -86 10 -22 36 -67 59 -99 25 -38
36 -61 28 -63 -27 -9 -64 -46 -59 -59 9 -23 -3 -17 -58 31 -29 24 -83 58 -122
75 -68 32 -70 32 -199 27 -72 -3 -137 -8 -146 -11 -13 -6 -16 2 -15 49 1 50 3
55 24 55 34 0 96 35 109 62 22 45 22 58 5 127 l-18 69 37 11 c20 6 51 27 68
46 60 68 51 160 -24 230 -35 33 -43 48 -47 87 -11 98 -74 168 -150 168 -66 0
-117 -40 -118 -91 0 -20 -8 -30 -29 -39 -16 -6 -37 -21 -47 -31 -18 -20 -18
-20 -30 3 -11 20 -12 13 -11 -49 2 -66 4 -73 22 -73 32 0 82 -36 115 -81 61
-84 29 -184 -74 -233 l-51 -25 38 -1 c31 0 38 -3 35 -17 -3 -13 -12 -17 -31
-16 -26 2 -26 1 -11 -22 20 -30 10 -63 -22 -77 -26 -12 -32 -28 -10 -28 7 0
26 12 40 27 20 20 27 35 24 55 -3 16 1 29 9 32 7 3 13 18 13 34 0 19 10 38 31
58 42 40 59 75 59 125 0 73 -65 157 -134 175 -37 9 -38 15 -13 65 16 33 31 47
57 55 23 8 34 17 32 28 -3 17 26 86 37 86 3 0 7 -16 8 -35 1 -19 7 -42 13 -52
9 -14 10 -9 5 28 -8 63 0 79 41 79 29 0 36 -5 44 -27 6 -16 15 -37 20 -48 9
-18 10 -18 6 5 -2 14 -7 34 -10 45 -5 13 4 7 24 -15 35 -40 53 -97 48 -151 -2
-27 0 -35 8 -28 16 13 60 -24 84 -72 42 -81 13 -155 -76 -199 l-51 -25 13 -45
c8 -25 15 -65 15 -89 1 -36 -4 -48 -29 -74 -26 -26 -40 -31 -91 -35 -60 -4
-60 -5 -38 -22 21 -18 21 -20 7 -62 -11 -29 -21 -42 -30 -39 -57 17 -96 12
-137 -18 l-43 -31 0 -102 c0 -81 3 -105 17 -120 15 -17 15 -24 4 -61 -7 -23
-15 -53 -17 -67 l-6 -25 21 25 c12 14 24 37 28 53 7 36 15 39 42 21 17 -12 19
-19 11 -29 -9 -11 -7 -12 8 -8 13 3 28 -6 47 -28 25 -31 26 -34 9 -40 -16 -6
-15 -7 6 -10 31 -5 87 -85 88 -124 0 -14 9 -36 20 -48 26 -27 90 -197 133
-350 33 -120 56 -180 124 -322 23 -49 50 -124 60 -165 10 -41 26 -99 37 -129
10 -30 18 -55 18 -57 0 -2 -106 -4 -236 -6 l-236 -3 -29 -33 -29 -32 -2 -233
c0 -127 -4 -212 -7 -188 -5 40 -7 43 -20 27 -8 -9 -20 -15 -27 -12 -18 7 -64
-32 -64 -55 0 -19 29 -19 1750 -19 l1750 0 0 161 c0 158 0 160 21 154 11 -4
47 -4 80 0 l59 7 0 59 c0 32 2 59 5 59 2 0 35 -12 72 -26 38 -14 138 -50 223
-81 162 -58 192 -73 148 -73 -15 0 -29 -4 -32 -8 -3 -5 23 -5 57 0 170 21 193
26 222 41 11 7 28 12 37 13 36 3 109 36 118 54 11 20 72 51 155 77 28 9 55 20
62 25 11 8 45 16 83 17 9 1 31 15 49 31 l33 31 -4 -35 c-3 -29 0 -36 20 -46
21 -9 23 -8 18 6 -3 9 -9 27 -13 41 -5 23 -3 25 16 20 15 -4 21 -1 21 11 1 14
3 13 12 -3 25 -44 47 -41 40 5 -4 31 -9 33 -54 30 -14 -1 -29 4 -33 11 -11 17
35 50 60 43 19 -6 20 -6 1 8 -10 8 -16 20 -13 26 8 12 -32 4 -50 -11 -18 -14
-42 9 -36 33 3 11 0 20 -6 20 -6 0 -11 7 -11 15 0 9 -10 15 -27 16 -16 1 -39
5 -53 9 -16 5 -4 6 33 3 39 -4 57 -2 57 6 0 6 -10 11 -22 11 -27 0 -150 30
-160 39 -5 5 27 157 37 178 1 2 36 -5 78 -14 42 -9 79 -14 82 -12 2 3 -2 48
-9 100 -8 52 -14 85 -15 74 -1 -28 -68 -35 -78 -8 -5 12 -11 4 -24 -33 -30
-85 -21 -32 32 178 53 213 64 243 80 232 27 -17 745 -76 956 -79 229 -3 283
-8 343 -30 19 -7 70 -19 113 -26 42 -7 77 -17 77 -22 0 -5 6 -4 14 2 10 9 29
10 65 3 l51 -9 0 700 0 700 -22 36 c-12 20 -25 38 -28 41 -4 3 -10 12 -13 20
-6 14 -3 -329 9 -982 5 -279 4 -309 -11 -314 -9 -4 -17 -5 -19 -3 -2 2 -9 279
-15 616 -7 337 -16 635 -20 663 -8 48 -6 53 26 98 45 63 61 102 74 182 12 78
-5 179 -41 251 -27 53 -123 150 -167 170 -34 14 -43 29 -19 29 8 0 17 6 19 13
4 9 8 9 15 -2 8 -10 10 -11 14 -1 4 13 17 17 66 22 12 1 22 9 23 18 0 8 5 3
10 -12 6 -14 16 -29 23 -31 15 -6 76 43 76 61 0 9 -115 12 -512 11 l-513 -1
-115 -29z m785 -20 c-8 -12 -35 -12 -35 0 0 11 22 20 33 14 4 -2 5 -9 2 -14z
m-95 -244 c15 -18 5 -35 -21 -35 -12 0 -19 7 -19 18 0 33 20 42 40 17z m170
-16 c0 -12 -7 -19 -20 -19 -22 0 -29 35 -7 43 18 6 27 -2 27 -24z m-1143 -37
c1 -11 -6 -18 -17 -19 -17 -2 -18 0 -2 18 9 10 17 19 17 19 0 0 1 -8 2 -18z
m128 11 c-11 -3 -23 -10 -27 -17 -5 -7 -8 -7 -8 0 0 16 11 24 34 23 20 -1 20
-1 1 -6z m435 -7 c0 -8 -4 -18 -10 -21 -5 -3 -7 0 -4 9 3 8 -2 16 -13 19 -14
4 -14 5 5 6 13 1 22 -5 22 -13z m-2217 -3 c-7 -2 -19 -2 -25 0 -7 3 -2 5 12 5
14 0 19 -2 13 -5z m54 -130 c-3 -2 -67 -10 -143 -18 -308 -31 -739 -75 -740
-75 -1 0 -5 22 -9 49 -4 32 -3 56 5 68 10 16 11 16 6 1 -8 -26 8 -22 30 7 15
20 25 24 47 19 16 -3 34 -1 42 6 16 13 86 5 96 -11 9 -15 79 -24 79 -10 0 6
-12 12 -27 12 l-28 1 30 8 c17 4 48 8 70 7 l40 0 -40 -7 c-22 -4 -35 -8 -30
-9 6 -1 29 -6 53 -10 35 -7 40 -6 31 5 -9 11 -6 14 20 14 17 0 31 -5 31 -11 0
-6 -7 -9 -15 -5 -8 3 -15 1 -15 -4 0 -6 13 -10 30 -10 23 0 28 3 23 17 -4 11
-3 14 5 9 7 -4 12 -3 12 2 0 8 38 13 220 28 152 13 170 16 172 33 1 9 3 -13 5
-48 2 -35 2 -65 0 -68z m2008 118 c3 -5 1 -12 -5 -16 -5 -3 -10 1 -10 9 0 18
6 21 15 7z m528 -5 c18 -8 54 -35 82 -60 27 -25 53 -46 58 -46 4 0 19 -12 32
-27 17 -20 20 -31 13 -40 -8 -10 -6 -13 6 -14 32 -3 36 -4 56 -21 11 -10 27
-18 36 -18 14 0 15 -9 9 -57 -8 -70 -27 -106 -78 -146 -31 -26 -49 -32 -101
-35 -46 -3 -72 0 -97 13 -86 43 -116 105 -104 210 11 99 48 153 123 175 22 7
23 8 6 9 -26 1 -80 -35 -107 -70 -11 -16 -23 -58 -30 -102 -13 -92 -1 -141 45
-186 24 -24 29 -34 20 -43 -15 -15 -49 14 -68 59 -18 42 -18 187 0 246 8 26
11 45 6 42 -10 -6 -30 -86 -30 -122 0 -15 -7 -36 -15 -47 -13 -18 -14 -17 -20
7 -14 53 54 257 85 257 6 0 9 3 9 8 -4 26 16 29 64 8z m-2780 -3 c-7 -2 -19
-2 -25 0 -7 3 -2 5 12 5 14 0 19 -2 13 -5z m-90 -10 c-7 -2 -21 -2 -30 0 -10
3 -4 5 12 5 17 0 24 -2 18 -5z m-100 -10 c-7 -2 -19 -2 -25 0 -7 3 -2 5 12 5
14 0 19 -2 13 -5z m2034 -15 c-3 -8 -6 -5 -6 6 -1 11 2 17 5 13 3 -3 4 -12 1
-19z m-2119 5 c-10 -2 -26 -2 -35 0 -10 3 -2 5 17 5 19 0 27 -2 18 -5z m137
-3 c-28 -12 -37 -12 -30 0 3 6 16 10 28 9 21 0 21 -1 2 -9z m1926 -13 c-10 -9
-11 -8 -5 6 3 10 9 15 12 12 3 -3 0 -11 -7 -18z m149 13 c0 -5 -5 -10 -11 -10
-5 0 -7 5 -4 10 3 6 8 10 11 10 2 0 4 -4 4 -10z m293 -5 c-3 -9 -8 -14 -10
-11 -3 3 -2 9 2 15 9 16 15 13 8 -4z m147 5 c0 -5 -5 -10 -11 -10 -5 0 -7 5
-4 10 3 6 8 10 11 10 2 0 4 -4 4 -10z m-2747 -7 c-7 -2 -21 -2 -30 0 -10 3 -4
5 12 5 17 0 24 -2 18 -5z m2392 -3 c3 -5 2 -10 -4 -10 -5 0 -13 5 -16 10 -3 6
-2 10 4 10 5 0 13 -4 16 -10z m-1048 -6 c-3 -3 -12 -4 -19 -1 -8 3 -5 6 6 6
11 1 17 -2 13 -5z m1933 -14 c0 -5 -2 -10 -4 -10 -3 0 -8 5 -11 10 -3 6 -1 10
4 10 6 0 11 -4 11 -10z m-1057 -37 c-3 -9 -9 -11 -15 -5 -5 5 -6 17 -2 26 5
13 9 14 14 5 5 -7 6 -19 3 -26z m180 17 c-3 -12 -8 -19 -11 -16 -5 6 5 36 12
36 2 0 2 -9 -1 -20z m323 -16 c-4 -9 -9 -15 -11 -12 -3 3 -3 13 1 22 4 9 9 15
11 12 3 -3 3 -13 -1 -22z m-1716 -24 c0 -5 -5 -10 -11 -10 -5 0 -7 5 -4 10 3
6 8 10 11 10 2 0 4 -4 4 -10z m1390 6 c0 -2 -8 -10 -17 -17 -16 -13 -17 -12
-4 4 13 16 21 21 21 13z m230 0 c0 -2 -7 -9 -15 -16 -13 -11 -14 -10 -9 4 5
14 24 23 24 12z m-56 -35 c-2 -3 -12 3 -22 13 -16 17 -16 18 5 5 12 -7 20 -15
17 -18z m-1151 12 c-7 -2 -19 -2 -25 0 -7 3 -2 5 12 5 14 0 19 -2 13 -5z m-83
-13 c0 -5 -4 -10 -10 -10 -5 0 -10 5 -10 10 0 6 5 10 10 10 6 0 10 -4 10 -10z
m-57 -17 c-7 -2 -19 -2 -25 0 -7 3 -2 5 12 5 14 0 19 -2 13 -5z m-713 -37 c0
-25 -5 -35 -20 -39 -17 -4 -20 -2 -15 14 4 13 1 21 -10 25 -27 11 -37 -9 -18
-36 10 -14 16 -34 15 -46 -2 -12 4 -24 12 -27 12 -5 16 0 16 16 0 12 5 29 10
37 7 11 10 3 10 -29 0 -38 -2 -43 -20 -38 -10 3 -20 1 -22 -4 -3 -9 -171 -19
-200 -11 -25 6 -24 52 0 52 10 0 23 5 29 11 8 8 14 7 24 -4 12 -12 15 -12 29
1 23 23 23 62 1 62 -10 0 -31 6 -46 14 -25 13 -21 14 67 23 149 16 138 18 138
-21z m937 18 c-3 -3 -12 -4 -19 -1 -8 3 -5 6 6 6 11 1 17 -2 13 -5z m-364 -11
c-7 -2 -19 -2 -25 0 -7 3 -2 5 12 5 14 0 19 -2 13 -5z m307 3 c0 -7 -150 -38
-163 -33 -6 2 15 10 48 16 33 7 65 14 70 16 14 5 45 6 45 1z m-1580 -16 c-14
-4 -36 -8 -50 -9 -20 -1 -22 1 -10 9 8 5 31 9 50 9 32 -1 33 -2 10 -9z m460
-15 c0 -7 13 -15 29 -17 17 -2 28 -1 25 4 -3 4 2 8 10 8 17 0 20 -9 8 -26 -8
-13 -82 -6 -82 8 0 5 -4 6 -10 3 -6 -3 -10 5 -10 19 0 18 4 24 15 20 8 -4 15
-12 15 -19z m750 21 c0 -3 -4 -8 -10 -11 -5 -3 -10 -1 -10 4 0 6 5 11 10 11 6
0 10 -2 10 -4z m-805 -16 c-28 -12 -65 -12 -65 0 0 6 19 10 43 9 32 0 37 -2
22 -9z m-505 -10 c0 -5 -4 -10 -10 -10 -5 0 -10 5 -10 10 0 6 5 10 10 10 6 0
10 -4 10 -10z m198 -2 c-3 -8 -26 -14 -54 -16 -31 -2 -54 -9 -61 -19 -8 -10
-13 -12 -13 -5 0 7 -9 12 -20 12 -11 0 -20 4 -20 10 0 10 38 18 110 23 25 2
49 4 53 5 5 1 7 -4 5 -10z m1237 -13 c-22 -8 -51 -13 -65 -13 -15 0 -4 6 25
13 65 17 91 17 40 0z m-1425 -35 c0 -11 -6 -20 -14 -20 -21 0 -31 21 -15 31
22 14 29 11 29 -11z m128 13 c-10 -2 -26 -2 -35 0 -10 3 -2 5 17 5 19 0 27 -2
18 -5z m327 -3 c-29 -7 -29 -8 10 -10 l40 -3 -40 -7 c-22 -4 -53 -12 -68 -18
-17 -7 -26 -8 -22 -2 4 6 -8 11 -27 12 -23 1 -16 3 22 8 l55 7 -65 3 -65 3 60
7 c33 4 76 7 95 7 l35 1 -30 -8z m830 1 c-11 -9 -94 -26 -84 -17 4 4 33 13 89
25 2 1 0 -3 -5 -8z m-100 -21 c-3 -5 -16 -10 -28 -9 -20 1 -20 2 3 9 14 4 26
8 28 9 2 1 0 -3 -3 -9z m-1062 -7 c-7 -2 -19 -2 -25 0 -7 3 -2 5 12 5 14 0 19
-2 13 -5z m184 -9 c-3 -3 -12 -4 -19 -1 -8 3 -5 6 6 6 11 1 17 -2 13 -5z m816
-1 c-7 -2 -19 -2 -25 0 -7 3 -2 5 12 5 14 0 19 -2 13 -5z m-1127 -22 c0 -11
-5 -17 -13 -14 -7 3 -13 11 -13 19 0 8 6 14 13 14 7 0 13 -8 13 -19z m137 2
c-7 -2 -21 -2 -30 0 -10 3 -4 5 12 5 17 0 24 -2 18 -5z m837 -3 c0 -5 -5 -10
-11 -10 -5 0 -7 5 -4 10 3 6 8 10 11 10 2 0 4 -4 4 -10z m1593 -15 c-3 -9 -8
-14 -10 -11 -3 3 -2 9 2 15 9 16 15 13 8 -4z m108 -15 c10 0 19 -4 19 -9 0 -5
-9 -7 -19 -4 -14 4 -21 -1 -24 -19 -2 -12 -4 -3 -4 22 -1 25 1 37 4 28 2 -10
13 -18 24 -18z m142 15 c-3 -9 -8 -14 -10 -11 -3 3 -2 9 2 15 9 16 15 13 8 -4z
m-2653 -5 c0 -6 -25 -9 -57 -8 l-58 1 45 7 c69 11 70 11 70 0z m-152 -56 c0
-37 -3 -45 -16 -42 -12 2 -17 15 -19 46 -1 35 2 42 17 42 15 0 18 -8 18 -46z
m482 3 c0 -18 -5 -38 -10 -43 -11 -11 -2 -74 11 -74 11 0 22 -60 17 -96 l-4
-29 -12 28 c-6 15 -19 30 -28 34 -23 9 -49 -10 -49 -35 0 -12 -12 -33 -25 -48
l-25 -26 50 6 c61 7 115 7 127 0 4 -3 8 -39 8 -80 0 -72 1 -74 23 -70 12 3 71
8 131 11 85 5 111 4 117 -7 5 -7 9 -43 9 -79 l0 -66 -97 -6 c-54 -4 -173 -9
-264 -13 l-166 -7 -7 129 c-4 71 -9 139 -12 150 -4 16 0 23 16 27 15 4 20 11
16 24 -2 10 -8 80 -12 155 l-7 137 34 4 c19 2 62 5 97 5 l62 2 0 -33z m313
-88 c-1 -4 -49 -10 -105 -13 -57 -4 -115 -9 -129 -12 -23 -4 -27 -1 -32 30 -8
49 2 79 22 70 9 -3 27 -8 41 -10 14 -2 43 -6 65 -10 36 -5 46 -2 85 28 l45 34
6 -55 c3 -31 4 -59 2 -62z m2011 105 c3 -8 2 -12 -4 -9 -6 3 -10 10 -10 16 0
14 7 11 14 -7z m-2674 -4 c0 -5 -2 -10 -4 -10 -3 0 -8 5 -11 10 -3 6 -1 10 4
10 6 0 11 -4 11 -10z m2325 0 c3 -5 1 -10 -4 -10 -6 0 -11 5 -11 10 0 6 2 10
4 10 3 0 8 -4 11 -10z m316 -7 c13 -16 12 -17 -3 -4 -17 13 -22 21 -14 21 2 0
10 -8 17 -17z m-2688 0 c-13 -2 -33 -2 -45 0 -13 2 -3 4 22 4 25 0 35 -2 23
-4z m65 -20 c-10 -2 -28 -2 -40 0 -13 2 -5 4 17 4 22 1 32 -1 23 -4z m-8 -23
c0 -5 -12 -10 -27 -9 l-28 1 25 8 c14 4 26 8 28 9 1 1 2 -3 2 -9z m-63 -6 c-3
-3 -12 -4 -19 -1 -8 3 -5 6 6 6 11 1 17 -2 13 -5z m-77 -29 c0 -8 -7 -15 -15
-15 -8 0 -15 7 -15 15 0 8 7 15 15 15 8 0 15 -7 15 -15z m138 -2 c-10 -2 -26
-2 -35 0 -10 3 -2 5 17 5 19 0 27 -2 18 -5z m12 -23 c0 -5 -21 -9 -47 -8 l-48
1 45 7 c25 4 46 8 48 8 1 1 2 -2 2 -8z m-142 -23 c2 -12 -3 -17 -17 -17 -12 0
-21 6 -21 13 0 31 32 34 38 4z m110 -14 c-10 -2 -28 -2 -40 0 -13 2 -5 4 17 4
22 1 32 -1 23 -4z m32 -24 c0 -7 -18 -10 -50 -7 -28 1 -52 -1 -54 -7 -2 -5 -7
-6 -12 -2 -14 14 19 27 69 27 27 0 47 -5 47 -11z m-144 -24 c-2 -7 -2 -16 1
-19 4 -3 7 -33 9 -67 2 -51 0 -60 -14 -57 -13 2 -17 15 -18 49 0 25 -4 51 -8
57 -3 6 -2 13 4 17 5 3 10 15 10 26 0 12 4 17 11 14 6 -4 8 -13 5 -20z m194
10 c0 -11 -11 -15 -42 -13 -40 1 -41 1 -9 5 26 3 31 7 20 14 -11 7 -9 9 9 9
13 0 22 -6 22 -15z m1827 -7 c2 -18 0 -20 -7 -8 -7 10 -10 11 -10 3 0 -7 -12
-13 -26 -13 -35 0 -26 23 12 31 16 4 29 7 29 8 1 0 2 -9 2 -21z m903 12 c0 -5
-5 -10 -11 -10 -5 0 -7 5 -4 10 3 6 8 10 11 10 2 0 4 -4 4 -10z m-981 -21 c-9
-17 -13 -19 -20 -8 -6 10 -9 11 -9 2 0 -7 -9 -13 -20 -13 -13 0 -20 6 -19 18
0 10 3 12 6 5 3 -10 8 -9 20 2 8 8 23 15 34 15 17 0 18 -3 8 -21z m911 10
c-25 -4 -56 -7 -70 -7 l-25 0 25 8 c14 4 45 8 70 8 l45 -1 -45 -8z m-1020 -25
c0 -8 -4 -14 -10 -14 -5 0 -10 6 -10 13 0 8 -4 7 -10 -3 -8 -12 -10 -11 -10 7
0 16 5 20 20 16 11 -3 20 -12 20 -19z m30 10 c0 -8 -4 -12 -10 -9 -5 3 -10 10
-10 16 0 5 5 9 10 9 6 0 10 -7 10 -16z m860 6 c0 -5 -8 -10 -17 -10 -15 0 -16
2 -3 10 19 12 20 12 20 0z m-1002 -35 c-2 -2 -18 -7 -37 -10 -25 -4 -31 -3
-25 7 6 9 3 9 -9 -1 -14 -11 -17 -11 -17 0 0 11 -2 11 -10 -1 -5 -8 -10 -11
-10 -6 0 5 -7 3 -15 -4 -10 -9 -15 -9 -15 -1 0 6 -5 11 -11 11 -5 0 -7 -4 -4
-10 3 -5 -3 -10 -14 -10 -25 0 -28 29 -3 31 9 1 31 3 47 5 17 2 47 5 67 7 21
2 41 7 45 11 5 4 10 0 11 -9 2 -9 2 -18 0 -20z m52 15 c0 -13 -7 -20 -20 -20
-25 0 -27 27 -2 33 9 3 18 5 20 6 1 0 2 -8 2 -19z m910 16 c0 -2 -9 -6 -20 -9
-11 -3 -20 -1 -20 4 0 5 9 9 20 9 11 0 20 -2 20 -4z m-2010 -16 c0 -5 -6 -10
-14 -10 -8 0 -18 5 -21 10 -3 6 3 10 14 10 12 0 21 -4 21 -10z m1870 0 c-14
-4 -38 -8 -55 -8 l-30 0 30 8 c17 4 41 8 55 8 l25 0 -25 -8z m57 4 c-3 -3 -12
-4 -19 -1 -8 3 -5 6 6 6 11 1 17 -2 13 -5z m-2484 -11 c-7 -2 -21 -2 -30 0
-10 3 -4 5 12 5 17 0 24 -2 18 -5z m2322 -3 c-11 -5 -33 -8 -50 -8 l-30 0 30
8 c17 4 39 8 50 8 l20 1 -20 -9z m-88 -6 c-3 -3 -12 -4 -19 -1 -8 3 -5 6 6 6
11 1 17 -2 13 -5z m-867 -20 c0 -13 -8 -15 -35 -12 -19 2 -35 1 -35 -4 0 -4
-22 -6 -50 -5 -79 2 -62 23 19 22 38 0 67 3 64 8 -2 4 5 7 16 7 13 0 21 -7 21
-16z m30 1 c0 -8 -2 -15 -4 -15 -2 0 -6 7 -10 15 -3 8 -1 15 4 15 6 0 10 -7
10 -15z m700 4 c0 -5 -14 -9 -31 -9 -16 0 -28 3 -26 8 7 10 57 12 57 1z m63 4
c-7 -2 -19 -2 -25 0 -7 3 -2 5 12 5 14 0 19 -2 13 -5z m-2166 -9 c-3 -3 -12
-4 -19 -1 -8 3 -5 6 6 6 11 1 17 -2 13 -5z m2023 -4 c-8 -5 -33 -9 -55 -9
l-40 2 35 7 c19 4 44 8 55 9 16 0 17 -1 5 -9z m-840 -16 c0 -8 -4 -12 -10 -9
-5 3 -10 10 -10 16 0 5 5 9 10 9 6 0 10 -7 10 -16z m735 6 c-3 -5 -10 -10 -16
-10 -5 0 -9 5 -9 10 0 6 7 10 16 10 8 0 12 -4 9 -10z m-56 -4 c-2 -2 -20 -6
-39 -10 -25 -4 -31 -3 -20 4 14 9 69 15 59 6z m-1862 -12 c-3 -3 -12 -4 -19
-1 -8 3 -5 6 6 6 11 1 17 -2 13 -5z m1688 -4 c3 -5 1 -10 -4 -10 -6 0 -11 5
-11 10 0 6 2 10 4 10 3 0 8 -4 11 -10z m35 6 c0 -3 -4 -8 -10 -11 -5 -3 -10
-1 -10 4 0 6 5 11 10 11 6 0 10 -2 10 -4z m53 -3 c-7 -2 -21 -2 -30 0 -10 3
-4 5 12 5 17 0 24 -2 18 -5z m-120 -10 c-7 -2 -19 -2 -25 0 -7 3 -2 5 12 5 14
0 19 -2 13 -5z m-1665 -34 l27 -2 -26 -4 c-21 -3 -25 -9 -23 -33 2 -32 -12
-42 -18 -12 -5 23 5 92 10 70 2 -11 14 -19 30 -19z m45 24 c-7 -2 -19 -2 -25
0 -7 3 -2 5 12 5 14 0 19 -2 13 -5z m54 1 c-3 -3 -12 -4 -19 -1 -8 3 -5 6 6 6
11 1 17 -2 13 -5z m1521 1 c-7 -8 -87 -9 -95 -2 -3 4 18 7 47 7 29 0 51 -2 48
-5z m-130 -12 c-10 -2 -26 -2 -35 0 -10 3 -2 5 17 5 19 0 27 -2 18 -5z m-148
-7 c0 -3 -4 -8 -10 -11 -5 -3 -10 -1 -10 4 0 6 5 11 10 11 6 0 10 -2 10 -4z
m53 -3 c-7 -2 -19 -2 -25 0 -7 3 -2 5 12 5 14 0 19 -2 13 -5z m-793 -27 c0
-26 -26 -38 -49 -24 -29 18 -27 36 4 30 15 -2 25 0 25 7 0 7 5 9 10 6 6 -3 10
-12 10 -19z m673 17 c-7 -2 -19 -2 -25 0 -7 3 -2 5 12 5 14 0 19 -2 13 -5z
m307 -3 c0 -5 -10 -10 -22 -9 -22 0 -22 1 -3 9 11 5 21 9 23 9 1 1 2 -3 2 -9z
m47 4 c-3 -3 -12 -4 -19 -1 -8 3 -5 6 6 6 11 1 17 -2 13 -5z m-414 -11 c-7 -2
-19 -2 -25 0 -7 3 -2 5 12 5 14 0 19 -2 13 -5z m316 3 c-2 -2 -22 -6 -44 -9
-28 -5 -34 -4 -20 3 19 8 73 14 64 6z m-1619 -27 c0 -24 -23 -21 -28 4 -2 10
3 17 12 17 10 0 16 -9 16 -21z m1340 2 c0 -5 -20 -11 -45 -13 -25 -2 -45 0
-45 4 0 4 19 9 43 11 23 2 43 4 45 5 1 1 2 -2 2 -7z m50 5 c0 -2 -9 -6 -20 -9
-11 -3 -20 -1 -20 4 0 5 9 9 20 9 11 0 20 -2 20 -4z m53 -3 c-7 -2 -21 -2 -30
0 -10 3 -4 5 12 5 17 0 24 -2 18 -5z m1757 -15 c0 -14 -7 -18 -32 -16 -18 1
-33 -3 -36 -10 -7 -23 -22 -12 -22 17 0 28 2 29 45 29 37 -1 45 -4 45 -20z
m127 2 c-25 -20 -77 -24 -77 -6 0 6 -5 4 -10 -4 -8 -12 -10 -12 -11 5 l0 20
-9 -20 c-8 -19 -9 -19 -9 2 -1 20 4 21 68 20 68 0 69 -1 48 -17z m23 -10 c0
-5 -7 -10 -16 -10 -8 0 -12 5 -9 10 3 6 10 10 16 10 5 0 9 -4 9 -10z m-450
-15 c0 -9 -9 -15 -25 -15 -31 0 -32 -12 -2 -25 25 -11 34 -49 17 -71 -7 -7
-28 -14 -46 -14 -26 0 -34 4 -34 19 0 14 6 17 25 13 18 -3 25 0 25 12 0 10 -9
16 -25 16 -22 0 -25 4 -25 33 0 43 5 47 52 47 27 0 38 -4 38 -15z m-1277 -2
c-7 -2 -21 -2 -30 0 -10 3 -4 5 12 5 17 0 24 -2 18 -5z m-1553 -23 c0 -11 -4
-20 -8 -20 -4 0 -8 9 -8 20 0 11 4 20 8 20 4 0 8 -9 8 -20z m1375 10 c-11 -5
-27 -9 -35 -9 -9 0 -8 4 5 9 11 5 27 9 35 9 9 0 8 -4 -5 -9z m58 3 c-7 -2 -19
-2 -25 0 -7 3 -2 5 12 5 14 0 19 -2 13 -5z m-130 -10 c-7 -2 -21 -2 -30 0 -10
3 -4 5 12 5 17 0 24 -2 18 -5z m-1176 -9 c-3 -3 -12 -4 -19 -1 -8 3 -5 6 6 6
11 1 17 -2 13 -5z m1106 -1 c-7 -2 -19 -2 -25 0 -7 3 -2 5 12 5 14 0 19 -2 13
-5z m-1190 -10 c-7 -2 -19 -2 -25 0 -7 3 -2 5 12 5 14 0 19 -2 13 -5z m2193
-12 c8 6 14 8 14 3 0 -5 5 -2 11 6 8 12 9 10 7 -10 -2 -19 -9 -25 -28 -27 -43
-3 -52 4 -38 27 11 17 14 18 16 5 3 -13 7 -14 18 -4z m-2306 -1 c0 -5 -5 -10
-11 -10 -5 0 -7 5 -4 10 3 6 8 10 11 10 2 0 4 -4 4 -10z m2567 -1 c6 -6 41
-11 79 -10 37 0 73 -4 81 -10 10 -9 13 -8 13 0 0 8 11 11 28 9 21 -2 27 -8 27
-28 0 -19 -6 -26 -24 -28 -13 -2 -28 2 -32 10 -7 10 -9 10 -9 1 0 -7 -4 -13
-10 -13 -5 0 -10 9 -10 20 0 11 -4 20 -10 20 -5 0 -10 -9 -10 -20 0 -28 -20
-25 -21 3 -2 21 -2 21 -6 1 -3 -18 -12 -22 -48 -22 -32 -1 -47 4 -55 16 -9 16
-11 16 -24 0 -22 -29 -36 -21 -36 22 0 37 2 40 28 40 15 0 33 -5 39 -11z
m-356 -11 c0 -10 2 -10 6 0 7 17 23 15 23 -3 0 -18 -37 -20 -43 -2 -3 9 -9 8
-23 -4 -23 -20 -134 -25 -134 -6 0 8 -3 8 -8 2 -10 -14 -32 -17 -32 -5 0 17
29 23 45 10 11 -9 15 -9 15 -1 0 6 13 10 30 9 17 -1 30 -7 30 -13 0 -6 3 -6 8
1 14 22 82 31 83 12z m-2098 -5 c-7 -2 -19 -2 -25 0 -7 3 -2 5 12 5 14 0 19
-2 13 -5z m1851 -14 c4 6 12 9 17 5 14 -8 0 -24 -22 -24 -10 0 -19 2 -19 4 0
2 -3 13 -6 23 -6 17 -6 17 8 -1 11 -13 17 -16 22 -7z m1291 -1 c-3 -13 -9 -33
-12 -45 -3 -13 -12 -23 -20 -23 -8 0 -13 6 -10 13 17 47 18 57 3 57 -9 0 -16
5 -16 10 0 6 14 10 31 10 28 0 31 -2 24 -22z m-1065 2 c0 -5 -5 -10 -11 -10
-5 0 -7 5 -4 10 3 6 8 10 11 10 2 0 4 -4 4 -10z m-2087 -17 c-7 -2 -21 -2 -30
0 -10 3 -4 5 12 5 17 0 24 -2 18 -5z m54 1 c-3 -3 -12 -4 -19 -1 -8 3 -5 6 6
6 11 1 17 -2 13 -5z m-54 -31 c-7 -2 -21 -2 -30 0 -10 3 -4 5 12 5 17 0 24 -2
18 -5z m2257 -13 c0 -5 -10 -10 -22 -9 -22 0 -22 1 -3 9 11 5 21 9 23 9 1 1 2
-3 2 -9z m-2280 -10 c0 -5 -4 -10 -10 -10 -5 0 -10 5 -10 10 0 6 5 10 10 10 6
0 10 -4 10 -10z m2010 0 c0 -5 -8 -10 -17 -10 -15 0 -16 2 -3 10 19 12 20 12
20 0z m70 0 c0 -5 -15 -10 -32 -9 -31 1 -32 1 -8 9 35 11 40 11 40 0z m70 6
c0 -8 -51 -13 -56 -5 -3 5 9 9 25 9 17 0 31 -2 31 -4z m47 -2 c-3 -3 -12 -4
-19 -1 -8 3 -5 6 6 6 11 1 17 -2 13 -5z m-2144 -11 c-7 -2 -21 -2 -30 0 -10 3
-4 5 12 5 17 0 24 -2 18 -5z m1787 -5 c0 -4 -7 -8 -15 -8 -8 0 -15 4 -15 8 0
5 7 9 15 9 8 0 15 -4 15 -9z m40 2 c0 -5 -7 -10 -15 -10 -8 0 -15 5 -15 10 0
6 7 10 15 10 8 0 15 -4 15 -10z m50 6 c0 -2 -9 -6 -20 -9 -11 -3 -20 -1 -20 4
0 5 9 9 20 9 11 0 20 -2 20 -4z m-290 -22 c0 -2 -13 -4 -30 -4 -16 0 -30 4
-30 8 0 5 14 7 30 4 17 -2 30 -6 30 -8z m60 6 c-36 -11 -50 -11 -50 0 0 6 17
10 38 9 33 -1 34 -2 12 -9z m77 4 c-3 -3 -12 -4 -19 -1 -8 3 -5 6 6 6 11 1 17
-2 13 -5z m-210 -10 c-3 -3 -12 -4 -19 -1 -8 3 -5 6 6 6 11 1 17 -2 13 -5z
m-1557 -14 c0 -5 -2 -10 -4 -10 -3 0 -8 5 -11 10 -3 6 -1 10 4 10 6 0 11 -4
11 -10z m53 3 c-7 -2 -19 -2 -25 0 -7 3 -2 5 12 5 14 0 19 -2 13 -5z m2030 0
c-7 -2 -21 -2 -30 0 -10 3 -4 5 12 5 17 0 24 -2 18 -5z m100 0 c-7 -2 -21 -2
-30 0 -10 3 -4 5 12 5 17 0 24 -2 18 -5z m75 0 c-10 -2 -28 -2 -40 0 -13 2 -5
4 17 4 22 1 32 -1 23 -4z m-478 -19 c0 -2 -17 -4 -37 -3 -29 0 -33 2 -18 8 18
7 55 4 55 -5z m30 6 c0 -5 -4 -10 -10 -10 -5 0 -10 5 -10 10 0 6 5 10 10 10 6
0 10 -4 10 -10z m60 6 c0 -9 -40 -13 -46 -5 -3 5 6 9 20 9 14 0 26 -2 26 -4z
m108 -3 c-10 -2 -26 -2 -35 0 -10 3 -2 5 17 5 19 0 27 -2 18 -5z m-453 -13 c3
-5 1 -10 -4 -10 -6 0 -11 5 -11 10 0 6 2 10 4 10 3 0 8 -4 11 -10z m55 1 c0
-5 -9 -7 -20 -4 -11 3 -20 7 -20 9 0 2 9 4 20 4 11 0 20 -4 20 -9z m98 2 c-16
-2 -40 -2 -55 0 -16 2 -3 4 27 4 30 0 43 -2 28 -4z m-93 -33 c4 -6 -10 -9 -37
-9 l-43 2 35 7 c19 4 36 8 37 9 1 0 5 -3 8 -9z m95 -6 c0 -2 -7 -4 -15 -4 -8
0 -15 4 -15 10 0 5 7 7 15 4 8 -4 15 -8 15 -10z m84 4 c-7 -11 -61 -10 -68 0
-3 5 12 9 34 8 21 0 36 -4 34 -8z m94 5 c-16 -2 -40 -2 -55 0 -16 2 -3 4 27 4
30 0 43 -2 28 -4z m-1851 -9 c-3 -3 -12 -4 -19 -1 -8 3 -5 6 6 6 11 1 17 -2
13 -5z m46 -1 c-7 -2 -19 -2 -25 0 -7 3 -2 5 12 5 14 0 19 -2 13 -5z m427 -27
c0 -17 -2 -18 -10 -6 -9 14 -14 7 -11 -13 1 -5 -6 -7 -16 -5 -10 2 -19 13 -21
25 -3 18 1 22 27 21 25 -1 31 -5 31 -22z m-480 -6 c14 -4 18 -9 10 -9 -8 -1
-25 -4 -37 -7 -17 -5 -23 -2 -23 10 0 17 11 19 50 6z m130 6 c0 -3 -4 -8 -10
-11 -5 -3 -10 -1 -10 4 0 6 5 11 10 11 6 0 10 -2 10 -4z m2465 -6 c3 -6 -4
-10 -17 -10 -18 0 -20 2 -8 10 19 12 18 12 25 0z m39 -2 c-3 -4 -9 -8 -15 -8
-5 0 -9 4 -9 8 0 5 7 9 15 9 8 0 12 -4 9 -9z m126 -4 c0 -2 -11 -4 -25 -4 -14
0 -25 4 -25 9 0 4 11 6 25 3 14 -2 25 -6 25 -8z m-570 -10 c0 -2 -17 -4 -37
-3 -29 0 -33 2 -18 8 18 7 55 4 55 -5z m217 10 c-3 -3 -47 -8 -99 -10 -51 -3
-88 -2 -81 3 12 9 189 16 180 7z m106 -1 c-7 -2 -19 -2 -25 0 -7 3 -2 5 12 5
14 0 19 -2 13 -5z m174 1 c-3 -3 -12 -4 -19 -1 -8 3 -5 6 6 6 11 1 17 -2 13
-5z m-917 -12 c0 -5 -39 -8 -87 -9 -53 0 -80 3 -68 8 26 10 155 11 155 1z m90
-2 c0 -5 -16 -10 -35 -10 -19 0 -35 5 -35 10 0 6 16 10 35 10 19 0 35 -4 35
-10z m158 3 c-10 -2 -28 -2 -40 0 -13 2 -5 4 17 4 22 1 32 -1 23 -4z m78 -2
c-3 -5 -15 -7 -26 -4 -28 7 -25 13 6 13 14 0 23 -4 20 -9z m-518 -8 c-10 -2
-26 -2 -35 0 -10 3 -2 5 17 5 19 0 27 -2 18 -5z m-1535 -10 c-7 -2 -19 -2 -25
0 -7 3 -2 5 12 5 14 0 19 -2 13 -5z m87 3 c0 -3 -4 -8 -10 -11 -5 -3 -10 -1
-10 4 0 6 5 11 10 11 6 0 10 -2 10 -4z m-62 -31 c23 -9 12 -25 -18 -25 -21 0
-30 5 -31 18 -1 16 -2 16 -6 0 -3 -11 -14 -18 -27 -18 -18 0 -23 6 -23 23 0
23 1 24 46 15 25 -4 52 -10 59 -13z m2152 9 c0 -2 -14 -4 -31 -4 -16 0 -28 4
-25 9 5 8 56 3 56 -5z m60 0 c0 -2 -11 -4 -25 -4 -14 0 -25 4 -25 9 0 4 11 6
25 3 14 -2 25 -6 25 -8z m35 6 c3 -5 1 -10 -4 -10 -6 0 -11 5 -11 10 0 6 2 10
4 10 3 0 8 -4 11 -10z m50 0 c3 -6 -4 -10 -17 -10 -18 0 -20 2 -8 10 19 12 18
12 25 0z m65 0 c0 -5 -4 -10 -10 -10 -5 0 -10 5 -10 10 0 6 5 10 10 10 6 0 10
-4 10 -10z m79 6 c-10 -11 -69 -16 -69 -6 0 5 17 10 37 10 20 0 34 -2 32 -4z
m46 -6 c-3 -5 -12 -7 -20 -3 -21 7 -19 13 6 13 11 0 18 -4 14 -10z m45 6 c0
-11 -19 -15 -25 -6 -3 5 1 10 9 10 9 0 16 -2 16 -4z m103 -3 c-7 -2 -21 -2
-30 0 -10 3 -4 5 12 5 17 0 24 -2 18 -5z m115 0 c-10 -2 -28 -2 -40 0 -13 2
-5 4 17 4 22 1 32 -1 23 -4z m-1233 -13 c4 -6 -9 -10 -32 -9 -34 1 -35 2 -13
9 35 11 38 11 45 0z m30 0 c3 -5 1 -10 -4 -10 -6 0 -11 5 -11 10 0 6 2 10 4
10 3 0 8 -4 11 -10z m67 -1 c-15 -6 -30 -5 -40 1 -13 7 -8 9 23 9 35 0 37 -1
17 -10z m94 2 c-3 -5 -15 -7 -26 -4 -28 7 -25 13 6 13 14 0 23 -4 20 -9z m104
5 c0 -9 -50 -12 -62 -5 -8 6 1 9 25 9 20 0 37 -2 37 -4z m98 -3 c-10 -2 -26
-2 -35 0 -10 3 -2 5 17 5 19 0 27 -2 18 -5z m80 0 c-10 -2 -28 -2 -40 0 -13 2
-5 4 17 4 22 1 32 -1 23 -4z m-3943 -23 c9 -10 15 -26 12 -35 -8 -19 -56 -20
-81 -2 -18 13 -17 15 9 35 34 27 37 27 60 2z m2015 16 c0 -2 -7 -7 -16 -10 -8
-3 -12 -2 -9 4 6 10 25 14 25 6z m2295 -26 c4 -6 -14 -9 -47 -8 l-53 1 45 7
c25 4 46 8 47 8 1 1 5 -2 8 -8z m95 -6 c0 -2 -7 -4 -15 -4 -8 0 -15 4 -15 10
0 5 7 7 15 4 8 -4 15 -8 15 -10z m169 1 c2 -3 -14 -5 -37 -5 -23 0 -42 4 -42
10 0 9 69 5 79 -5z m261 7 c0 -4 -53 -8 -117 -9 -65 0 -109 3 -98 7 28 10 215
13 215 2z m-1330 -6 c0 -2 -9 -6 -20 -9 -11 -3 -20 -1 -20 4 0 5 9 9 20 9 11
0 20 -2 20 -4z m37 -2 c-3 -3 -12 -4 -19 -1 -8 3 -5 6 6 6 11 1 17 -2 13 -5z
m46 -1 c-7 -2 -19 -2 -25 0 -7 3 -2 5 12 5 14 0 19 -2 13 -5z m174 1 c-3 -3
-12 -4 -19 -1 -8 3 -5 6 6 6 11 1 17 -2 13 -5z m50 0 c-3 -3 -12 -4 -19 -1 -8
3 -5 6 6 6 11 1 17 -2 13 -5z m80 0 c-3 -3 -12 -4 -19 -1 -8 3 -5 6 6 6 11 1
17 -2 13 -5z m106 -1 c-18 -2 -48 -2 -65 0 -18 2 -4 4 32 4 36 0 50 -2 33 -4z
m64 1 c-3 -3 -12 -4 -19 -1 -8 3 -5 6 6 6 11 1 17 -2 13 -5z m81 -1 c-10 -2
-26 -2 -35 0 -10 3 -2 5 17 5 19 0 27 -2 18 -5z m55 0 c-7 -2 -19 -2 -25 0 -7
3 -2 5 12 5 14 0 19 -2 13 -5z m284 1 c-3 -3 -12 -4 -19 -1 -8 3 -5 6 6 6 11
1 17 -2 13 -5z m-1817 -21 c0 -13 -9 -18 -28 -20 -15 0 -111 -4 -214 -8 -110
-4 -188 -11 -188 -17 0 -6 51 -8 134 -4 l134 5 6 -97 c3 -53 8 -127 11 -163
l5 -67 -198 -2 c-108 -1 -237 -3 -285 -5 -50 -1 -90 2 -94 8 -3 6 -1 7 5 3 9
-5 12 6 11 36 l-2 43 -8 -35 c-7 -31 -7 -29 -6 18 1 28 -2 53 -8 55 -5 2 -2
11 7 20 15 15 17 15 30 0 7 -8 20 -34 29 -57 16 -41 42 -57 61 -38 6 6 6 16 0
28 -6 11 -17 35 -26 55 -17 40 -38 53 -67 44 -15 -5 -19 -1 -20 17 -1 19 -3
17 -8 -7 -6 -29 -8 -30 -72 -33 -76 -3 -80 2 -77 88 1 33 2 37 5 16 3 -20 7
-25 13 -17 6 10 12 10 28 2 40 -21 55 -14 50 24 -2 22 0 35 7 35 7 0 10 -13 9
-32 -3 -32 -3 -33 4 -4 4 16 16 33 27 37 22 8 17 10 -54 13 -24 1 -54 -4 -67
-10 -13 -7 -24 -9 -24 -4 0 4 -3 15 -6 24 -8 21 7 23 456 41 217 9 400 18 405
20 6 2 11 4 13 4 1 1 2 -7 2 -16z m-745 -3 c-3 -5 -12 -10 -20 -10 -8 0 -17 5
-20 10 -4 6 5 10 20 10 15 0 24 -4 20 -10z m1925 -10 c0 -6 -26 -9 -62 -8
l-63 1 60 7 c33 4 61 7 63 8 1 1 2 -2 2 -8z m205 0 c3 -5 1 -10 -4 -10 -6 0
-11 5 -11 10 0 6 2 10 4 10 3 0 8 -4 11 -10z m175 -6 c0 -2 -19 -4 -42 -3 -35
1 -38 2 -18 8 23 7 60 4 60 -5z m-4187 -22 c13 -12 15 -17 5 -24 -9 -5 -7 -8
7 -8 15 0 17 -2 6 -9 -10 -6 -10 -10 -1 -16 6 -4 9 -13 6 -21 -3 -8 0 -14 6
-14 6 0 22 -12 36 -27 l25 -27 -21 -9 c-23 -11 -52 5 -52 28 0 8 -4 15 -9 17
-4 2 -33 32 -63 68 l-55 65 46 -4 c25 -1 54 -10 64 -19z m3400 21 c-7 -2 -19
-2 -25 0 -7 3 -2 5 12 5 14 0 19 -2 13 -5z m214 1 c-3 -3 -12 -4 -19 -1 -8 3
-5 6 6 6 11 1 17 -2 13 -5z m40 0 c-3 -3 -12 -4 -19 -1 -8 3 -5 6 6 6 11 1 17
-2 13 -5z m196 -1 c-7 -2 -19 -2 -25 0 -7 3 -2 5 12 5 14 0 19 -2 13 -5z m80
0 c-7 -2 -21 -2 -30 0 -10 3 -4 5 12 5 17 0 24 -2 18 -5z m164 1 c-3 -3 -12
-4 -19 -1 -8 3 -5 6 6 6 11 1 17 -2 13 -5z m201 -1 c-15 -2 -42 -2 -60 0 -18
2 -6 4 27 4 33 0 48 -2 33 -4z m175 0 c-13 -2 -33 -2 -45 0 -13 2 -3 4 22 4
25 0 35 -2 23 -4z m125 0 c-10 -2 -26 -2 -35 0 -10 3 -2 5 17 5 19 0 27 -2 18
-5z m55 0 c-7 -2 -19 -2 -25 0 -7 3 -2 5 12 5 14 0 19 -2 13 -5z m-2023 -23
c0 -6 -28 -9 -67 -8 l-68 1 55 7 c30 4 61 7 68 8 6 1 12 -2 12 -8z m430 0 c0
-5 -4 -10 -10 -10 -5 0 -10 5 -10 10 0 6 5 10 10 10 6 0 10 -4 10 -10z m373
-7 c-13 -2 -33 -2 -45 0 -13 2 -3 4 22 4 25 0 35 -2 23 -4z m90 0 c-7 -2 -19
-2 -25 0 -7 3 -2 5 12 5 14 0 19 -2 13 -5z m67 3 c0 -2 -7 -6 -15 -10 -8 -3
-15 -1 -15 4 0 6 7 10 15 10 8 0 15 -2 15 -4z m58 -3 c-10 -2 -26 -2 -35 0
-10 3 -2 5 17 5 19 0 27 -2 18 -5z m123 -2 c-12 -8 -51 -4 -51 5 0 2 15 4 33
4 22 0 28 -3 18 -9z m-1261 -20 c0 -6 -4 -13 -10 -16 -5 -3 -10 1 -10 9 0 9 5
16 10 16 6 0 10 -4 10 -9z m-677 -8 c-7 -2 -19 -2 -25 0 -7 3 -2 5 12 5 14 0
19 -2 13 -5z m-18 -23 c-27 -12 -35 -12 -35 0 0 6 12 10 28 9 24 0 25 -1 7 -9z
m1625 -6 c0 -2 -17 -4 -37 -3 -33 1 -35 2 -13 8 23 7 50 4 50 -5z m-930 -39
l3 50 4 -43 c3 -27 -1 -50 -9 -59 -11 -14 -14 -9 -18 33 -3 27 -3 54 0 59 3 6
8 -12 11 -40 l6 -50 3 50z m1018 38 c-10 -2 -28 -2 -40 0 -13 2 -5 4 17 4 22
1 32 -1 23 -4z m79 1 c-3 -3 -12 -4 -19 -1 -8 3 -5 6 6 6 11 1 17 -2 13 -5z
m56 -1 c-7 -2 -19 -2 -25 0 -7 3 -2 5 12 5 14 0 19 -2 13 -5z m-1026 -25 c-3
-8 -6 -5 -6 6 -1 11 2 17 5 13 3 -3 4 -12 1 -19z m800 -4 c-3 -3 -12 -4 -19
-1 -8 3 -5 6 6 6 11 1 17 -2 13 -5z m100 0 c-3 -3 -12 -4 -19 -1 -8 3 -5 6 6
6 11 1 17 -2 13 -5z m183 -4 c0 -5 -15 -9 -32 -9 l-33 1 30 8 c17 4 31 8 33 9
1 0 2 -3 2 -9z m98 -7 c-10 -2 -26 -2 -35 0 -10 3 -2 5 17 5 19 0 27 -2 18 -5z
m75 0 c-7 -2 -19 -2 -25 0 -7 3 -2 5 12 5 14 0 19 -2 13 -5z m119 -2 c-12 -7
-62 -4 -62 5 0 2 17 4 38 4 23 0 32 -3 24 -9z m125 -7 c-3 -3 -12 -4 -19 -1
-8 3 -5 6 6 6 11 1 17 -2 13 -5z m110 0 c-3 -3 -12 -4 -19 -1 -8 3 -5 6 6 6
11 1 17 -2 13 -5z m40 0 c-3 -3 -12 -4 -19 -1 -8 3 -5 6 6 6 11 1 17 -2 13 -5z
m-874 -11 c-7 -2 -19 -2 -25 0 -7 3 -2 5 12 5 14 0 19 -2 13 -5z m57 -5 c0
-11 -28 -10 -35 1 -3 6 4 9 15 8 11 -1 20 -5 20 -9z m947 6 c-3 -3 -12 -4 -19
-1 -8 3 -5 6 6 6 11 1 17 -2 13 -5z m241 -1 c-10 -2 -28 -2 -40 0 -13 2 -5 4
17 4 22 1 32 -1 23 -4z m-1060 -10 c-10 -2 -26 -2 -35 0 -10 3 -2 5 17 5 19 0
27 -2 18 -5z m99 1 c-3 -3 -12 -4 -19 -1 -8 3 -5 6 6 6 11 1 17 -2 13 -5z
m110 -10 c-3 -3 -12 -4 -19 -1 -8 3 -5 6 6 6 11 1 17 -2 13 -5z m228 -5 c15
-6 9 -7 -19 -4 -22 3 -42 8 -45 10 -8 9 43 4 64 -6z m314 -9 c-6 -5 -18 -6
-26 -3 -19 8 -16 11 13 11 17 0 22 -3 13 -8z m-4259 -31 c0 -11 -4 -17 -10
-14 -5 3 -10 13 -10 21 0 8 5 14 10 14 6 0 10 -9 10 -21z m2435 11 c3 -5 1
-10 -4 -10 -6 0 -11 5 -11 10 0 6 2 10 4 10 3 0 8 -4 11 -10z m112 -16 c-3 -3
-12 -4 -19 -1 -8 3 -5 6 6 6 11 1 17 -2 13 -5z m-37 -24 c20 -7 16 -8 -22 -9
-27 -1 -48 4 -48 9 0 12 34 12 70 0z m49 -75 c-1 -33 -3 -52 -6 -42 -3 11 -14
17 -34 17 -18 0 -28 -4 -24 -10 9 -14 -19 -12 -34 3 -10 10 -11 8 -5 -7 7 -18
6 -18 -19 -1 -29 18 -35 41 -14 48 6 2 38 2 70 -1 37 -2 57 0 57 7 0 7 -28 11
-77 11 -60 0 -74 3 -65 12 8 8 37 11 78 10 64 -3 65 -2 59 20 -5 18 -4 20 4 8
6 -8 10 -42 10 -75z m-806 35 c-13 -5 -23 -16 -23 -25 0 -8 -9 -15 -20 -15
-11 0 -20 7 -20 15 0 9 6 12 17 8 12 -5 15 -2 10 10 -5 14 0 17 26 16 29 0 30
-1 10 -9z m-36 -66 c-3 -3 -12 -4 -19 -1 -8 3 -5 6 6 6 11 1 17 -2 13 -5z
m723 -20 c0 -2 -7 -4 -15 -4 -8 0 -15 4 -15 10 0 5 7 7 15 4 8 -4 15 -8 15
-10z m-1987 -7 c20 0 34 -8 45 -26 9 -14 24 -31 32 -38 12 -10 1 -12 -57 -13
-96 0 -167 -16 -230 -51 -29 -16 -55 -29 -58 -29 -12 0 -33 60 -29 81 4 15 3
20 -3 12 -6 -9 -14 -4 -26 17 l-18 29 38 10 c71 18 88 20 183 14 52 -3 108 -6
123 -6z m1577 5 c0 -4 -9 -8 -20 -8 -11 0 -20 4 -20 8 0 4 9 8 20 8 11 0 20
-4 20 -8z m80 -2 c-20 -13 -60 -13 -60 0 0 6 17 10 38 10 27 0 33 -3 22 -10z
m1130 0 c0 -5 -4 -10 -10 -10 -5 0 -10 5 -10 10 0 6 5 10 10 10 6 0 10 -4 10
-10z m58 -9 c3 -8 -1 -12 -9 -9 -7 2 -15 10 -17 17 -3 8 1 12 9 9 7 -2 15 -10
17 -17z m-1421 3 c-3 -3 -12 -4 -19 -1 -8 3 -5 6 6 6 11 1 17 -2 13 -5z m608
-4 c3 -5 -1 -10 -9 -10 -9 0 -16 5 -16 10 0 6 4 10 9 10 6 0 13 -4 16 -10z
m55 0 c0 -5 -10 -10 -22 -9 -22 0 -22 1 -3 9 11 5 21 9 23 9 1 1 2 -3 2 -9z
m-390 -10 c0 -6 -25 -9 -57 -8 l-58 1 55 7 c30 4 56 7 58 8 1 1 2 -2 2 -8z
m100 3 c0 -5 -20 -8 -45 -8 -25 0 -45 3 -45 8 0 4 20 7 45 7 25 0 45 -3 45 -7z
m78 0 c-10 -2 -26 -2 -35 0 -10 3 -2 5 17 5 19 0 27 -2 18 -5z m105 0 c-13 -2
-35 -2 -50 0 -16 2 -5 4 22 4 28 0 40 -2 28 -4z m1099 -7 c7 4 8 2 4 -5 -9
-13 -26 -5 -25 12 0 9 2 8 6 -1 2 -6 10 -9 15 -6z m-1664 -31 c-3 -3 -9 2 -12
12 -6 14 -5 15 5 6 7 -7 10 -15 7 -18z m37 5 c3 -5 1 -10 -4 -10 -6 0 -11 5
-11 10 0 6 2 10 4 10 3 0 8 -4 11 -10z m45 1 c0 -6 -4 -13 -10 -16 -5 -3 -10
1 -10 9 0 9 5 16 10 16 6 0 10 -4 10 -9z m74 -19 c-14 -2 -32 2 -38 8 -8 8 -7
9 7 5 10 -4 17 -2 17 4 0 8 6 7 20 -1 20 -13 20 -13 -6 -16z m91 6 c6 -4 -6
-7 -25 -7 -19 1 -27 3 -17 6 9 2 17 9 17 15 0 7 3 7 8 2 4 -5 12 -12 17 -16z
m438 15 c-7 -2 -21 -2 -30 0 -10 3 -4 5 12 5 17 0 24 -2 18 -5z m111 -45 c4
-24 3 -38 -4 -38 -5 0 -10 19 -10 42 0 49 5 47 14 -4z m-385 -52 c-2 -19 0
-38 4 -42 4 -4 7 -30 6 -58 0 -38 -3 -46 -9 -31 -5 12 -9 14 -9 6 -1 -8 -4
-12 -7 -9 -3 4 0 16 6 28 10 20 10 21 -8 16 -22 -7 -32 15 -32 76 0 35 -2 37
-37 41 -25 2 -17 4 25 5 l64 2 -3 -34z m2698 2 c-3 -8 -6 -5 -6 6 -1 11 2 17
5 13 3 -3 4 -12 1 -19z m-2310 -85 c-2 -16 -4 -3 -4 27 0 30 2 43 4 28 2 -16
2 -40 0 -55z m943 -3 c0 -5 -2 -10 -4 -10 -3 0 -8 5 -11 10 -3 6 -1 10 4 10 6
0 11 -4 11 -10z m-2140 -56 c0 -20 -4 -25 -16 -20 -9 3 -20 6 -25 6 -14 0 -11
28 4 33 27 11 37 6 37 -19z m-10 -69 c7 -8 8 -15 2 -15 -5 0 -15 7 -22 15 -7
8 -8 15 -2 15 5 0 15 -7 22 -15z m1217 -47 c-2 -13 -4 -5 -4 17 -1 22 1 32 4
23 2 -10 2 -28 0 -40z m888 12 c-3 -5 -1 -10 5 -10 6 0 8 -5 4 -12 -4 -7 -3
-8 4 -4 6 4 9 13 5 21 -7 21 3 19 28 -6 15 -15 18 -24 10 -32 -6 -6 -11 -16
-11 -21 0 -6 4 -4 10 4 15 24 23 -11 10 -44 -8 -21 -15 -26 -28 -21 -9 3 -29
9 -44 12 -15 3 -25 9 -22 14 3 5 8 7 12 5 4 -2 13 2 20 10 8 9 9 14 2 14 -6 0
-8 5 -5 10 3 6 -1 13 -10 17 -10 3 -20 1 -24 -6 -5 -8 -15 -9 -32 -2 -23 9
-23 10 -2 10 16 1 21 6 17 16 -4 9 0 15 10 15 9 0 16 5 16 10 0 6 7 10 16 10
8 0 12 -4 9 -10z m-2025 -59 c0 -17 -4 -33 -10 -36 -6 -4 -10 8 -10 29 0 20 5
36 10 36 6 0 10 -13 10 -29z m2042 -121 c-18 -17 -40 -30 -50 -29 -10 0 -5 6
14 14 17 8 36 21 43 29 8 9 16 16 20 16 3 0 -9 -14 -27 -30z m-402 -8 c0 -5
-13 -7 -30 -4 -16 2 -30 6 -30 8 0 2 14 4 30 4 17 0 30 -4 30 -8z m-1570 -50
c0 -27 -3 -33 -12 -24 -16 16 -17 71 0 65 6 -3 12 -21 12 -41z m813 21 c-7 -2
-19 -2 -25 0 -7 3 -2 5 12 5 14 0 19 -2 13 -5z m-89 -9 c26 -4 45 -11 43 -17
-8 -26 -133 -78 -260 -110 l-98 -24 3 66 3 66 55 11 c63 13 185 17 254 8z
m734 -15 c61 -11 62 -12 46 -30 -13 -15 -30 -19 -73 -18 -98 1 -156 13 -152
29 2 8 4 20 4 26 0 14 83 11 175 -7z m-241 -5 c-3 -3 -12 -4 -19 -1 -8 3 -5 6
6 6 11 1 17 -2 13 -5z m933 -8 c0 -8 -4 -18 -10 -21 -5 -3 -10 3 -10 14 0 12
5 21 10 21 6 0 10 -6 10 -14z m-555 -50 c14 -4 25 -11 25 -17 0 -6 -7 -8 -16
-5 -9 4 -37 11 -62 18 l-45 11 23 19 c22 18 23 18 36 -1 8 -10 25 -22 39 -25z
m-240 -12 c36 -9 76 -13 101 -9 40 6 130 -10 148 -25 4 -5 4 -15 0 -23 -8 -12
-31 -9 -162 23 -85 21 -156 41 -159 44 -10 10 9 7 72 -10z m-1058 -31 c-3 -10
-5 -4 -5 12 0 17 2 24 5 18 2 -7 2 -21 0 -30z m457 31 c9 -3 16 -10 16 -14 0
-10 -49 0 -56 11 -6 10 17 12 40 3z m-6 -96 c17 -17 15 -48 -3 -48 -23 0 -95
-24 -95 -32 0 -4 21 -10 48 -13 26 -3 54 -10 63 -15 34 -18 234 2 291 30 l37
18 -17 -24 c-9 -12 -30 -26 -46 -30 -17 -3 -37 -15 -45 -25 -13 -15 -36 -20
-112 -25 -63 -5 -102 -3 -115 4 -17 10 -14 11 16 12 19 0 42 5 50 11 11 7 3 9
-32 7 -27 -2 -48 -1 -48 2 0 3 -26 10 -59 17 -63 12 -111 37 -111 59 0 15 28
32 85 50 52 16 78 17 93 2z m225 -4 c59 -20 53 -34 -9 -23 -27 5 -71 5 -103 0
-31 -5 -57 -8 -57 -7 -1 0 -5 11 -8 24 -7 21 -5 22 62 22 37 0 89 -7 115 -16z
m1148 -89 c30 -14 31 -15 7 -10 -36 7 -36 -9 -2 -40 20 -18 23 -25 11 -25 -9
0 -18 -9 -22 -19 -6 -20 -36 -19 -54 3 -10 12 7 106 20 106 3 0 22 -7 40 -15z
m-1394 -61 c-3 -3 -12 -4 -19 -1 -8 3 -5 6 6 6 11 1 17 -2 13 -5z m-2053 -207
c12 -6 27 -10 34 -9 23 5 25 -29 3 -58 -11 -16 -21 -43 -21 -60 l0 -30 -65 0
c-36 0 -65 2 -65 5 0 3 7 16 15 29 14 21 14 23 -10 34 -34 15 -31 34 8 69 36
31 69 38 101 20z m1196 -7 c27 -27 27 -99 1 -131 -18 -22 -28 -24 -123 -27
-93 -3 -106 -2 -131 18 -23 18 -27 29 -27 69 0 26 7 56 16 69 14 21 23 22 130
22 101 0 116 -2 134 -20z m-700 -25 c10 -13 10 -19 -5 -35 -18 -20 -17 -20 21
-20 31 1 36 3 22 11 -40 23 -10 59 43 51 33 -5 39 -21 9 -29 -15 -4 -17 -9
-10 -22 5 -9 6 -22 2 -28 -9 -13 -139 -15 -148 -2 -3 6 4 21 15 33 l22 23 -21
6 c-12 3 -19 10 -15 16 9 16 51 13 65 -4z m178 -22 c11 -35 10 -40 -10 -56
-51 -43 -91 11 -48 66 29 37 44 34 58 -10z m91 23 c10 -11 7 -19 -10 -35 l-23
-21 28 0 c44 0 25 -25 -22 -28 -36 -3 -42 0 -42 17 0 11 10 27 22 35 l22 16
-22 0 c-13 0 -22 6 -22 15 0 20 53 20 69 1z m-625 -23 c4 -11 1 -22 -9 -29
-13 -10 -14 -12 -1 -17 10 -4 22 6 35 29 23 38 40 44 48 14 7 -26 17 -25 37 3
14 20 16 21 29 5 12 -16 15 -16 29 -1 22 21 39 8 32 -25 -6 -26 -5 -26 15 6
23 35 51 43 51 13 0 -11 4 -21 9 -23 5 -2 5 -13 0 -27 -8 -19 -12 -21 -24 -11
-10 9 -19 9 -27 2 -15 -11 -62 3 -54 16 3 5 -8 9 -24 8 -19 -1 -32 -7 -35 -18
-5 -13 -12 -15 -40 -7 -23 7 -41 6 -55 -1 -12 -7 -27 -7 -37 -2 -10 5 -24 7
-30 5 -18 -6 -16 28 3 55 18 26 39 29 48 5z m-603 -255 c-2 -38 1 -47 16 -51
10 -3 -2 -5 -27 -6 l-45 -1 5 52 5 53 3 -47 c2 -31 8 -48 16 -48 17 0 18 81 2
93 -7 5 -3 7 9 5 16 -3 19 -10 16 -50z m198 -18 c1 -3 -12 -5 -29 -5 -16 0
-30 1 -30 1 0 1 7 19 16 40 l17 39 13 -35 c7 -19 13 -37 13 -40z m900 23 c-1
-24 -3 -29 -6 -15 -2 12 -11 22 -19 22 -17 0 -18 -21 -1 -40 10 -12 9 -12 -5
-1 -24 18 -23 42 2 48 11 3 20 9 20 14 0 5 2 9 5 9 3 0 4 -17 4 -37z m214 20
c2 -10 8 -25 11 -33 5 -11 -1 -15 -24 -15 -16 0 -30 0 -30 1 0 1 5 15 11 33
12 35 24 40 32 14z m85 -54 c-20 -13 -33 -5 -36 24 -3 22 1 27 17 27 12 0 22
6 23 13 0 6 3 -3 5 -22 3 -21 0 -37 -9 -42z m119 19 c-2 -13 -4 -5 -4 17 -1
22 1 32 4 23 2 -10 2 -28 0 -40z m107 8 c1 -19 -2 -32 -5 -28 -12 12 -15 81
-3 69 3 -3 7 -22 8 -41z m115 7 c-1 -24 -3 -29 -6 -15 -2 12 -11 22 -19 22
-17 0 -18 -21 -1 -40 10 -12 9 -12 -5 -1 -14 11 -21 11 -33 1 -19 -16 -35 -4
-35 25 0 22 4 24 42 22 25 -1 43 3 46 11 7 23 12 12 11 -25z m147 19 c-3 -3
-1 -11 5 -19 14 -17 -1 -16 -23 1 -13 9 -14 16 -6 24 6 6 15 9 20 6 5 -3 7 -9
4 -12z m-1630 -30 c1 -18 1 -19 -3 -2 -6 27 -31 25 -36 -2 -4 -19 -4 -18 -6 5
-1 24 2 28 22 25 15 -2 22 -10 23 -26z m21 -9 c-3 -10 -5 -4 -5 12 0 17 2 24
5 18 2 -7 2 -21 0 -30z m92 10 c-2 -24 -2 -25 -6 -5 -2 12 -9 22 -14 22 -5 0
-14 -10 -19 -22 l-9 -23 0 23 c-1 12 -5 22 -10 22 -5 0 -12 -10 -14 -22 -4
-20 -4 -19 -6 5 -1 25 2 27 39 27 37 0 40 -2 39 -27z m58 11 c7 -19 -20 -49
-36 -40 -6 4 -11 18 -11 32 0 17 5 24 20 24 11 0 23 -7 27 -16z m73 6 c0 -5
-7 -7 -15 -4 -10 4 -15 0 -15 -15 0 -22 15 -29 23 -11 3 6 4 5 3 -2 -5 -24
-31 -13 -34 15 -3 22 1 27 17 27 12 0 21 -4 21 -10z m57 -20 c1 -22 1 -22 -4
-2 -2 12 -11 22 -19 22 -8 0 -14 -10 -15 -22 0 -13 -3 -17 -6 -10 -8 21 6 44
24 40 11 -2 19 -13 20 -28z m41 23 c-9 -2 -19 -14 -21 -26 -4 -18 -5 -17 -6 6
-1 22 3 27 22 26 15 -1 17 -3 5 -6z m90 -18 c0 -30 -15 -42 -31 -26 -9 9 -8
11 6 6 10 -4 17 -2 17 4 0 6 -7 11 -15 11 -8 0 -15 7 -15 15 0 8 8 15 19 15
13 0 19 -7 19 -25z m32 -25 c5 0 11 5 13 10 3 6 4 5 3 -2 -5 -24 -31 -14 -32
12 -1 22 0 22 3 3 2 -13 8 -23 13 -23z m75 21 c0 -13 -6 -25 -13 -27 -7 -1 -8
0 -2 3 15 7 12 23 -5 23 -8 0 -15 7 -15 16 0 9 7 14 17 12 11 -2 18 -12 18
-27z m42 -23 c-2 -13 -4 -5 -4 17 -1 22 1 32 4 23 2 -10 2 -28 0 -40z m60 22
c1 -22 1 -22 -4 -2 -2 12 -11 22 -19 22 -8 0 -14 -10 -15 -22 0 -13 -3 -17 -6
-10 -8 21 6 44 24 40 11 -2 19 -13 20 -28z m92 3 c-2 -24 -2 -25 -6 -5 -2 12
-11 22 -19 22 -8 0 -15 -10 -15 -22 l-2 -23 -4 23 c-2 12 -8 22 -13 22 -5 0
-11 -10 -13 -22 -4 -20 -4 -19 -6 5 -1 25 2 27 39 27 37 0 40 -2 39 -27z m53
-5 c4 -26 3 -28 -7 -15 -15 21 -29 22 -21 1 3 -8 2 -13 -3 -10 -5 3 -8 17 -8
31 0 39 33 33 39 -7z m116 1 c3 -22 -1 -26 -20 -25 -17 1 -23 8 -25 29 -2 24
2 28 20 25 15 -2 23 -11 25 -29z m50 6 c0 -30 -15 -42 -31 -26 -9 9 -8 11 6 6
10 -4 17 -2 17 4 0 6 -7 11 -15 11 -8 0 -15 7 -15 15 0 8 8 15 19 15 13 0 19
-7 19 -25z m254 -7 c4 -26 3 -28 -7 -15 -15 21 -29 22 -21 1 3 -8 2 -13 -3
-10 -5 3 -8 17 -8 31 0 39 33 33 39 -7z m38 28 c0 -3 -4 -8 -10 -11 -5 -3 -10
-1 -10 4 0 6 5 11 10 11 6 0 10 -2 10 -4z m77 -12 c7 -19 -20 -49 -36 -40 -6
4 -11 18 -11 32 0 17 5 24 20 24 11 0 23 -7 27 -16z m223 -8 c0 -32 -18 -43
-37 -23 -20 20 -10 47 17 47 15 0 20 -7 20 -24z m-2520 -130 c0 -3 -4 -8 -10
-11 -5 -3 -10 -1 -10 4 0 6 5 11 10 11 6 0 10 -2 10 -4z"/>
<path d="M3371 3214 c0 -11 3 -14 6 -6 3 7 2 16 -1 19 -3 4 -6 -2 -5 -13z"/>
<path d="M2733 3163 c9 -2 25 -2 35 0 9 3 1 5 -18 5 -19 0 -27 -2 -17 -5z"/>
<path d="M2923 3163 c9 -2 23 -2 30 0 6 3 -1 5 -18 5 -16 0 -22 -2 -12 -5z"/>
<path d="M2655 3151 c-7 -12 12 -24 25 -16 6 3 10 12 9 18 0 9 -2 9 -6 0 -2
-7 -9 -13 -14 -13 -6 0 -7 5 -4 10 3 6 4 10 1 10 -3 0 -7 -4 -11 -9z"/>
<path d="M2828 3153 c6 -2 18 -2 25 0 6 3 1 5 -13 5 -14 0 -19 -2 -12 -5z"/>
<path d="M2758 3143 c7 -3 16 -2 19 1 4 3 -2 6 -13 5 -11 0 -14 -3 -6 -6z"/>
<path d="M5958 3253 c7 -3 16 -2 19 1 4 3 -2 6 -13 5 -11 0 -14 -3 -6 -6z"/>
<path d="M3246 2939 c-19 -19 -19 -19 0 -19 22 0 57 20 36 20 -7 0 -10 5 -7
10 10 17 -9 10 -29 -11z"/>
<path d="M3052 2780 c2 -53 5 -60 23 -60 20 0 21 3 11 60 -6 38 -15 60 -23 60
-10 0 -13 -16 -11 -60z"/>
<path d="M3011 2781 c-7 -5 -11 -15 -9 -22 2 -12 6 -11 20 3 19 19 11 32 -11
19z"/>
<path d="M3071 2314 c0 -11 3 -14 6 -6 3 7 2 16 -1 19 -3 4 -6 -2 -5 -13z"/>
<path d="M5830 2480 c0 -5 5 -10 10 -10 6 0 10 5 10 10 0 6 -4 10 -10 10 -5 0
-10 -4 -10 -10z"/>
<path d="M5191 2384 c0 -11 3 -14 6 -6 3 7 2 16 -1 19 -3 4 -6 -2 -5 -13z"/>
<path d="M5240 2360 c0 -5 7 -10 15 -10 8 0 15 5 15 10 0 6 -7 10 -15 10 -8 0
-15 -4 -15 -10z"/>
<path d="M5420 2360 c0 -5 5 -10 10 -10 6 0 10 5 10 10 0 6 -4 10 -10 10 -5 0
-10 -4 -10 -10z"/>
<path d="M2840 2000 c0 -5 9 -10 20 -10 11 0 20 5 20 10 0 6 -9 10 -20 10 -11
0 -20 -4 -20 -10z"/>
<path d="M2955 2000 c-18 -8 -17 -9 8 -9 16 -1 26 3 22 9 -3 6 -7 10 -8 9 -1
0 -11 -4 -22 -9z"/>
<path d="M3353 1955 c0 -27 2 -38 4 -22 2 15 2 37 0 50 -2 12 -4 0 -4 -28z"/>
<path d="M3218 1983 c-10 -2 -18 -11 -18 -18 0 -18 -7 -22 -54 -30 -28 -6 -37
-5 -32 4 4 6 2 11 -3 11 -6 0 -12 -8 -12 -17 -5 -58 -4 -73 1 -73 3 0 6 -9 7
-20 1 -11 -4 -20 -12 -20 -9 0 -11 -7 -7 -22 l5 -22 8 22 c6 16 17 22 39 22
27 0 30 -3 30 -30 0 -33 -14 -39 -28 -14 -5 10 -15 14 -21 10 -9 -6 -9 -11 0
-22 9 -11 7 -16 -12 -22 -22 -9 -22 -10 -4 -15 57 -15 78 -17 91 -6 19 15 18
29 -2 29 -11 0 -14 8 -12 33 3 27 7 32 28 31 14 -1 53 -2 88 -3 l62 -1 0 -32
c0 -17 2 -29 5 -26 3 3 2 36 -2 74 -6 61 -8 65 -14 34 -6 -35 -6 -35 -8 10 -2
36 -4 41 -11 24 -8 -21 -43 -33 -99 -35 -24 0 -24 -1 9 -15 l35 -14 -40 5
c-22 3 -46 5 -52 5 -7 0 -13 7 -13 15 0 9 -7 18 -15 21 -8 4 -15 12 -15 19 0
16 50 26 70 14 12 -7 10 -8 -7 -9 -13 0 -23 -4 -23 -9 0 -13 37 -2 51 15 6 8
25 14 41 14 24 0 28 3 23 19 -3 10 1 24 10 31 12 10 16 8 25 -11 l10 -24 -3
25 c-2 23 -6 25 -52 27 -27 0 -58 -1 -67 -4z m29 -29 c-3 -3 -12 -4 -19 -1 -8
3 -5 6 6 6 11 1 17 -2 13 -5z"/>
<path d="M2793 1905 c0 -27 2 -38 4 -22 2 15 2 37 0 50 -2 12 -4 0 -4 -28z"/>
<path d="M2894 1942 c-23 -15 -24 -47 -1 -85 l23 -38 20 38 c10 21 22 40 27
41 14 7 7 31 -12 42 -23 12 -42 13 -57 2z"/>
<path d="M3299 1902 c11 -8 11 -10 0 -15 -10 -4 -8 -6 4 -6 21 -1 18 21 -4 27
-12 3 -12 2 0 -6z"/>
<path d="M3031 1864 c0 -11 3 -14 6 -6 3 7 2 16 -1 19 -3 4 -6 -2 -5 -13z"/>
<path d="M2680 1860 c0 -12 57 -12 85 0 15 6 6 9 -32 9 -29 1 -53 -3 -53 -9z"/>
<path d="M3310 1720 c-8 -5 -10 -10 -5 -10 6 0 3 -5 -5 -10 -11 -7 -8 -10 16
-10 17 0 37 7 44 15 8 9 8 15 2 15 -6 0 -16 2 -24 5 -7 3 -20 0 -28 -5z"/>
<path d="M3234 1705 c-18 -14 -17 -14 15 -15 29 0 32 2 21 15 -15 18 -12 18
-36 0z"/>
<path d="M2941 1706 c10 -8 129 -13 129 -5 0 5 -30 9 -67 9 -36 0 -64 -2 -62
-4z"/>
<path d="M1220 436 c0 -8 5 -18 10 -21 6 -3 10 1 10 9 0 8 -4 18 -10 21 -5 3
-10 -1 -10 -9z"/>
<path d="M2222 423 c1 -37 1 -37 5 -5 4 30 7 32 43 32 36 0 39 -2 43 -32 4
-32 4 -32 5 5 l2 37 -50 0 -50 0 2 -37z"/>
<path d="M2397 436 c4 -13 3 -17 -5 -12 -7 4 -12 3 -12 -2 0 -13 28 -23 34
-13 3 4 -1 17 -9 27 -15 19 -15 19 -8 0z"/>
<path d="M2268 423 c6 -2 18 -2 25 0 6 3 1 5 -13 5 -14 0 -19 -2 -12 -5z"/>
<path d="M2268 403 c6 -2 18 -2 25 0 6 3 1 5 -13 5 -14 0 -19 -2 -12 -5z"/>
<path d="M1900 419 c-10 -18 -9 -20 7 -17 10 2 19 11 21 21 5 24 -15 21 -28
-4z"/>
<path d="M976 201 c-4 -7 -5 -15 -2 -18 9 -9 19 4 14 18 -4 11 -6 11 -12 0z"/>
<path d="M2100 196 c0 -9 5 -16 10 -16 6 0 10 4 10 9 0 6 -4 13 -10 16 -5 3
-10 -1 -10 -9z"/>
<path d="M2180 180 c0 -13 5 -20 13 -17 6 2 12 10 12 17 0 7 -6 15 -12 18 -8
2 -13 -5 -13 -18z"/>
<path d="M2460 179 c0 -24 23 -21 28 4 2 10 -3 17 -12 17 -10 0 -16 -9 -16
-21z"/>
<path d="M1200 179 c0 -24 23 -21 28 4 2 10 -3 17 -12 17 -10 0 -16 -9 -16
-21z"/>
<path d="M1938 193 c7 -3 16 -2 19 1 4 3 -2 6 -13 5 -11 0 -14 -3 -6 -6z"/>
<path d="M1930 170 c0 -5 4 -10 9 -10 6 0 13 5 16 10 3 6 -1 10 -9 10 -9 0
-16 -4 -16 -10z"/>
<path d="M2350 179 c0 -24 23 -21 28 4 2 10 -3 17 -12 17 -10 0 -16 -9 -16
-21z"/>
<path d="M2572 183 c5 -25 28 -28 28 -4 0 12 -6 21 -16 21 -9 0 -14 -7 -12
-17z"/>
<path d="M704 3558 c12 -42 26 -181 21 -198 -3 -10 -1 -21 5 -25 6 -4 10 15
10 54 0 50 4 65 28 92 26 32 16 32 -20 1 -16 -14 -18 -13 -18 9 -1 13 -8 38
-16 54 -8 17 -12 22 -10 13z"/>
<path d="M845 3494 c-26 -28 -28 -37 -16 -69 6 -15 9 -11 14 22 5 27 15 48 29
57 12 9 17 16 10 16 -7 0 -24 -12 -37 -26z"/>
<path d="M1220 3500 c0 -13 -7 -20 -19 -20 -11 0 -23 -4 -26 -10 -3 -5 3 -10
15 -10 20 0 21 -4 16 -67 -6 -71 -5 -70 19 44 3 12 15 23 28 26 l22 4 -23 8
c-17 5 -22 13 -19 26 3 11 1 19 -4 19 -5 0 -9 -9 -9 -20z"/>
<path d="M913 3430 c0 -36 2 -50 4 -32 2 17 2 47 0 65 -2 17 -4 3 -4 -33z"/>
<path d="M948 3460 c-13 -8 -18 -22 -17 -48 1 -28 3 -31 6 -12 3 14 10 31 15
38 12 14 79 16 96 2 8 -6 8 -5 0 4 -17 19 -79 29 -100 16z"/>
<path d="M1113 3445 c-16 -12 -22 -12 -26 -2 -3 6 -6 1 -6 -13 -1 -14 -4 -43
-8 -64 -4 -26 -3 -37 4 -33 6 4 13 24 17 45 7 46 27 67 57 59 16 -4 18 -3 8 9
-14 18 -19 18 -46 -1z"/>
<path d="M460 3424 c0 -8 5 -12 10 -9 6 4 8 11 5 16 -9 14 -15 11 -15 -7z"/>
<path d="M1385 3414 c-17 -18 -14 -56 7 -81 12 -15 64 -17 73 -3 10 17 23 11
28 -12 l4 -23 2 23 c1 17 7 22 28 22 14 0 35 7 45 17 21 18 83 20 104 2 9 -7
14 -8 14 -1 0 12 -54 32 -86 32 -13 0 -33 9 -45 21 -28 28 -63 22 -67 -13 -3
-28 -44 -68 -68 -68 -7 0 -21 11 -30 25 -13 20 -14 28 -4 40 15 18 61 20 78 3
9 -9 12 -9 12 0 0 13 -40 32 -65 32 -7 0 -21 -7 -30 -16z m173 -26 c-2 -17
-11 -24 -30 -26 -24 -3 -28 0 -28 22 0 22 4 26 31 26 26 0 30 -3 27 -22z"/>
<path d="M1061 3409 c-3 -39 -60 -63 -106 -44 l-20 8 20 -16 c11 -9 30 -17 42
-17 32 0 76 41 70 65 -3 14 -5 15 -6 4z"/>
<path d="M1173 3385 c0 -22 2 -30 4 -17 2 12 2 30 0 40 -3 9 -5 -1 -4 -23z"/>
<path d="M236 3377 c3 -10 9 -15 12 -12 3 3 0 11 -7 18 -10 9 -11 8 -5 -6z"/>
<path d="M615 3380 c3 -5 8 -10 11 -10 2 0 4 5 4 10 0 6 -5 10 -11 10 -5 0 -7
-4 -4 -10z"/>
<path d="M530 3356 c7 -7 14 -6 21 1 9 9 7 12 -9 10 -14 -1 -18 -5 -12 -11z"/>
<path d="M1161 3324 c0 -11 3 -14 6 -6 3 7 2 16 -1 19 -3 4 -6 -2 -5 -13z"/>
<path d="M1250 3322 c0 -9 89 -23 99 -15 9 7 -8 13 -52 19 -30 4 -47 3 -47 -4z"/>
<path d="M1560 3322 c0 -16 41 -42 66 -42 12 0 32 9 45 21 23 19 23 20 2 10
-32 -16 -74 -13 -95 6 -10 9 -18 11 -18 5z"/>
<path d="M410 3260 c0 -5 5 -10 11 -10 5 0 7 5 4 10 -3 6 -8 10 -11 10 -2 0
-4 -4 -4 -10z"/>
<path d="M8 3253 c7 -3 16 -2 19 1 4 3 -2 6 -13 5 -11 0 -14 -3 -6 -6z"/>
<path d="M40 3250 c0 -5 5 -10 10 -10 6 0 10 5 10 10 0 6 -4 10 -10 10 -5 0
-10 -4 -10 -10z"/>
<path d="M141 3234 c0 -11 3 -14 6 -6 3 7 2 16 -1 19 -3 4 -6 -2 -5 -13z"/>
<path d="M560 3239 c0 -5 5 -7 10 -4 6 3 10 8 10 11 0 2 -4 4 -10 4 -5 0 -10
-5 -10 -11z"/>
<path d="M516 3221 c-4 -5 3 -7 14 -4 23 6 26 13 6 13 -8 0 -17 -4 -20 -9z"/>
<path d="M75 3197 c-24 -27 -29 -42 -8 -24 11 9 23 14 27 10 4 -4 4 0 0 10 -7
20 -6 20 -19 4z"/>
<path d="M85 3105 c-60 -29 -85 -48 -85 -65 0 -9 6 -8 22 4 13 9 55 32 93 51
51 25 63 34 45 35 -14 0 -47 -11 -75 -25z"/>
<path d="M335 3110 c3 -5 8 -10 11 -10 2 0 4 5 4 10 0 6 -5 10 -11 10 -5 0 -7
-4 -4 -10z"/>
<path d="M391 3084 c0 -11 3 -14 6 -6 3 7 2 16 -1 19 -3 4 -6 -2 -5 -13z"/>
<path d="M1980 2541 c0 -10 31 -31 45 -31 11 0 -5 20 -26 30 -12 7 -19 7 -19
1z"/>
<path d="M608 2383 c7 -3 16 -2 19 1 4 3 -2 6 -13 5 -11 0 -14 -3 -6 -6z"/>
<path d="M420 2266 c0 -2 7 -6 15 -10 8 -3 15 -1 15 4 0 6 -7 10 -15 10 -8 0
-15 -2 -15 -4z"/>
<path d="M490 2250 c0 -5 5 -10 11 -10 5 0 7 5 4 10 -3 6 -8 10 -11 10 -2 0
-4 -4 -4 -10z"/>
<path d="M660 2230 c0 -11 4 -20 9 -20 5 0 7 9 4 20 -3 11 -7 20 -9 20 -2 0
-4 -9 -4 -20z"/>
<path d="M1800 2245 c0 -5 5 -17 10 -25 5 -8 10 -10 10 -5 0 6 -5 17 -10 25
-5 8 -10 11 -10 5z"/>
<path d="M380 2236 c0 -2 8 -10 18 -17 15 -13 16 -12 3 4 -13 16 -21 21 -21
13z"/>
<path d="M2014 1839 c7 -34 79 -192 114 -249 l22 -35 0 48 c0 38 -5 53 -25 71
-25 23 -25 23 -5 41 26 23 25 31 -7 78 -17 24 -37 40 -55 44 -15 3 -28 12 -28
19 0 8 -5 14 -11 14 -8 0 -9 -11 -5 -31z"/>
<path d="M1949 1806 c-19 -14 -57 -40 -85 -60 -28 -19 -57 -49 -64 -65 -7 -17
-13 -71 -14 -120 -1 -77 -3 -88 -16 -78 -8 6 -6 1 5 -10 11 -11 65 -49 120
-83 73 -46 117 -66 164 -76 35 -7 72 -16 82 -19 17 -6 19 0 19 72 0 54 -6 95
-20 133 -32 84 -144 330 -151 330 -3 0 -21 -11 -40 -24z"/>
<path d="M0 1729 c0 -8 9 -32 20 -54 26 -51 25 -98 -2 -146 -23 -41 -19 -61 7
-39 21 18 45 -4 45 -41 0 -19 5 -29 15 -29 20 0 19 33 -2 73 -10 20 -17 57
-17 97 -1 58 -5 71 -33 110 -18 24 -33 37 -33 29z"/>
<path d="M180 1726 c0 -2 7 -7 16 -10 8 -3 12 -2 9 4 -6 10 -25 14 -25 6z"/>
<path d="M83 1713 c9 -2 17 -13 17 -24 0 -10 4 -19 8 -19 13 0 11 34 -2 42 -6
4 -18 7 -26 7 -11 -1 -10 -3 3 -6z"/>
<path d="M115 1639 c3 -4 -1 -10 -7 -12 -9 -4 -8 -5 2 -6 8 0 24 4 35 8 17 7
17 8 -7 13 -15 3 -25 2 -23 -3z"/>
<path d="M189 1633 c-5 -35 -3 -47 9 -50 14 -5 15 12 2 42 -5 11 -9 14 -11 8z"/>
<path d="M2758 1613 c7 -3 16 -2 19 1 4 3 -2 6 -13 5 -11 0 -14 -3 -6 -6z"/>
<path d="M2708 1588 c6 -6 18 -8 28 -6 14 3 12 5 -9 10 -19 3 -25 2 -19 -4z"/>
<path d="M110 1586 c0 -2 7 -7 16 -10 8 -3 12 -2 9 4 -6 10 -25 14 -25 6z"/>
<path d="M200 1531 c0 -12 6 -21 16 -21 9 0 14 7 12 17 -5 25 -28 28 -28 4z"/>
<path d="M2717 1533 c-4 -3 -7 -15 -7 -25 0 -26 24 -17 28 10 3 21 -8 29 -21
15z"/>
<path d="M2681 1514 c0 -11 3 -14 6 -6 3 7 2 16 -1 19 -3 4 -6 -2 -5 -13z"/>
<path d="M155 1500 c-3 -5 -1 -10 4 -10 6 0 11 5 11 10 0 6 -2 10 -4 10 -3 0
-8 -4 -11 -10z"/>
<path d="M108 1483 c7 -3 16 -2 19 1 4 3 -2 6 -13 5 -11 0 -14 -3 -6 -6z"/>
<path d="M2635 1382 c-3 -3 -5 -12 -5 -20 0 -12 3 -12 15 -2 12 10 15 10 15
-4 0 -19 16 -21 23 -3 5 13 -38 39 -48 29z"/>
<path d="M6031 1223 c-31 -21 -27 -58 9 -83 17 -12 30 -29 30 -38 0 -48 117
-150 158 -138 51 16 165 26 178 15 9 -7 14 -8 14 -1 0 5 16 13 35 16 33 7 35
9 35 47 l0 40 -69 -2 c-37 -1 -73 1 -80 5 -14 9 -15 53 -1 61 6 3 10 14 9 23
0 11 -2 13 -6 4 -4 -10 -8 -10 -19 -1 -15 12 -125 41 -132 34 -3 -2 -11 2 -19
10 -8 8 -31 15 -51 16 -20 0 -45 2 -54 4 -9 2 -26 -4 -37 -12z m240 -215 c-25
-9 -41 2 -41 30 0 9 8 8 32 -4 l33 -17 -24 -9z"/>
<path d="M4997 1184 c-15 -8 -25 -19 -22 -24 4 -6 2 -10 -3 -10 -9 0 -28 -70
-38 -145 -4 -27 -12 -54 -18 -58 -7 -6 -6 -7 4 -4 10 3 21 -8 32 -29 10 -19
13 -34 8 -34 -8 0 -30 -60 -30 -82 0 -13 28 -9 33 5 4 8 6 8 6 1 1 -7 15 -27
33 -45 32 -35 30 -21 -3 16 -19 21 -22 66 -4 59 5 -3 17 -19 25 -37 14 -30 19
-32 69 -35 46 -3 53 -1 43 11 -7 8 -9 16 -6 19 3 3 7 22 10 41 4 35 2 37 -46
59 -33 15 -53 32 -61 50 -6 15 -14 26 -18 24 -4 -3 -13 -1 -21 4 -12 7 -12 12
-3 21 10 10 21 6 51 -14 41 -29 82 -36 82 -14 0 8 -19 32 -42 54 -92 87 -109
110 -93 123 8 6 19 9 25 5 5 -3 10 -1 10 4 0 6 -7 11 -16 11 -8 0 -13 4 -9 10
3 5 13 6 22 3 11 -4 14 -3 9 5 -4 7 -1 12 8 12 24 0 46 -12 40 -22 -3 -5 -11
-4 -20 3 -8 6 -14 8 -14 3 0 -5 14 -17 32 -27 26 -15 29 -15 18 -2 -11 13 -11
18 -2 24 9 5 4 11 -13 19 -33 15 -44 15 -78 -4z m-17 -178 c0 -2 -7 -9 -15
-16 -12 -10 -15 -10 -15 4 0 9 7 16 15 16 8 0 15 -2 15 -4z m25 -74 c-3 -3
-11 0 -18 7 -9 10 -8 11 6 5 10 -3 15 -9 12 -12z"/>
<path d="M5150 1136 c0 -2 8 -10 18 -17 15 -13 16 -12 3 4 -13 16 -21 21 -21
13z"/>
<path d="M2730 1120 c0 -5 5 -10 10 -10 6 0 10 5 10 10 0 6 -4 10 -10 10 -5 0
-10 -4 -10 -10z"/>
<path d="M5111 1117 c2 -1 13 -9 24 -17 19 -14 19 -14 6 3 -7 9 -18 17 -24 17
-6 0 -8 -1 -6 -3z"/>
<path d="M2797 1104 c-13 -14 -7 -21 16 -19 12 1 44 3 70 4 27 0 46 5 43 9 -6
10 -120 15 -129 6z"/>
<path d="M5107 1079 c7 -7 15 -10 18 -7 3 3 -2 9 -12 12 -14 6 -15 5 -6 -5z"/>
<path d="M6294 962 c-7 -4 -12 -26 -12 -49 -1 -24 -4 -48 -8 -55 -4 -7 -6 -33
-5 -59 1 -26 -3 -50 -8 -54 -6 -3 -8 -11 -5 -17 4 -7 2 -8 -4 -4 -6 4 -23 4
-37 0 -18 -4 -23 -9 -15 -14 9 -6 9 -16 -3 -41 -8 -19 -28 -69 -43 -111 l-28
-77 -51 -16 c-27 -9 -63 -25 -78 -37 -25 -17 -34 -19 -72 -9 -64 16 -99 14
-129 -10 -22 -17 -26 -28 -26 -69 l0 -49 -32 6 c-18 3 -51 12 -73 19 -22 8
-47 14 -56 14 -9 0 -27 8 -40 19 l-23 18 105 33 c131 41 190 62 186 67 -2 2
-24 -3 -48 -12 -24 -8 -66 -21 -94 -28 -112 -32 -205 -61 -288 -89 -49 -16
-93 -28 -99 -26 -5 2 36 18 91 36 56 18 101 36 101 40 -1 25 -55 52 -106 52
-19 0 -33 4 -30 9 4 5 0 12 -6 14 -7 3 -1 6 14 6 15 1 30 6 33 11 4 6 14 10
23 9 45 -4 72 2 72 16 0 8 -5 15 -11 15 -5 0 -7 -4 -4 -10 3 -6 -1 -7 -10 -4
-14 6 -14 8 1 19 15 11 15 12 -5 18 -11 3 -19 1 -15 -4 3 -5 -2 -6 -10 -3 -9
3 -13 10 -10 15 3 5 -5 13 -18 18 -13 6 -17 10 -8 11 8 0 -3 7 -24 15 -34 12
-43 12 -67 0 l-27 -14 24 -66 c13 -36 24 -78 23 -93 0 -29 -4 -24 -25 33 -7
19 -7 19 -11 2 -4 -14 -10 -17 -26 -12 -51 14 -65 15 -71 0 -3 -8 -14 -15 -24
-15 -15 0 -18 -6 -14 -32 3 -18 1 -30 -3 -26 -4 4 -20 1 -35 -7 -14 -7 -50
-15 -78 -17 -45 -3 -51 -6 -56 -29 -6 -32 -52 -89 -72 -89 -8 0 -14 -4 -14
-10 0 -5 -4 -10 -9 -10 -5 0 -48 -37 -96 -82 l-87 -82 74 -23 c73 -23 73 -23
805 -23 538 0 745 3 784 12 41 10 53 10 57 0 6 -19 22 -14 22 8 0 11 7 20 15
20 8 0 15 5 15 10 0 6 -8 10 -17 8 -26 -4 -28 34 -3 57 18 16 20 30 20 121 0
100 -1 103 -29 131 -15 15 -35 29 -42 30 -8 1 -57 17 -109 36 -76 28 -96 39
-98 56 -2 12 -8 18 -14 15 -13 -8 -15 -14 43 121 24 55 47 103 52 106 11 8 6
59 -7 77 -7 9 -5 16 5 22 22 14 31 -4 28 -54 -3 -32 0 -46 8 -46 7 0 13 -7 13
-15 0 -17 47 -96 63 -106 5 -4 7 -14 4 -24 -4 -9 -3 -14 3 -10 6 3 10 2 10 -4
0 -5 15 -33 33 -62 l32 -53 3 42 c2 23 -2 51 -9 64 -9 16 -9 23 0 26 15 5 14
52 -1 53 -7 1 -21 0 -31 0 -25 -3 -31 23 -12 59 9 17 15 36 13 42 -2 6 -10 -3
-17 -20 -14 -34 -25 -40 -38 -19 -4 8 -15 16 -24 19 -20 8 -14 68 7 68 8 0 11
-6 7 -15 -4 -13 2 -16 33 -14 39 3 39 3 36 40 -3 31 -9 39 -30 44 -18 4 -30 2
-38 -10 -9 -12 -17 -13 -40 -5 -17 7 -24 14 -17 18 7 5 7 14 0 32 l-11 25 -4
-27 c-2 -16 -8 -28 -13 -28 -12 0 -11 47 2 71 13 25 8 51 -7 41z m-520 -723
c-4 -7 0 -9 13 -5 22 7 40 -9 40 -35 0 -23 -26 -19 -72 10 l-40 25 30 7 c17 4
31 7 33 8 2 0 0 -4 -4 -10z m656 -174 c0 -30 -88 -46 -98 -17 -4 14 31 30 71
31 18 1 27 -4 27 -14z"/>
<path d="M6426 945 c3 -11 15 -44 26 -73 10 -30 16 -63 13 -75 -2 -12 -2 -16
1 -9 3 6 9 10 14 7 4 -3 8 11 8 31 0 19 -3 32 -6 29 -4 -4 -19 20 -35 52 -15
32 -25 49 -21 38z"/>
<path d="M1778 880 c-10 -11 -13 -22 -8 -25 6 -4 10 -16 10 -28 0 -27 45 -34
56 -8 9 22 12 53 7 69 -8 19 -47 14 -65 -8z"/>
<path d="M5155 870 c-3 -5 1 -10 10 -10 9 0 13 5 10 10 -3 6 -8 10 -10 10 -2
0 -7 -4 -10 -10z"/>
<path d="M6172 844 c-24 -19 -41 -34 -38 -34 13 0 75 43 80 55 7 19 9 20 -42
-21z"/>
<path d="M5142 797 c-7 -8 -6 -17 3 -30 11 -16 13 -16 19 -1 14 38 0 58 -22
31z"/>
<path d="M6050 780 c-8 -5 -10 -10 -5 -10 6 0 17 5 25 10 8 5 11 10 5 10 -5 0
-17 -5 -25 -10z"/>
<path d="M6009 765 c-3 -2 -45 -16 -95 -29 -49 -13 -82 -25 -74 -25 20 -1 159
37 179 49 9 5 11 10 5 10 -6 0 -13 -2 -15 -5z"/>
<path d="M5290 699 c24 -7 316 -11 295 -4 -5 2 -80 5 -165 8 -85 2 -144 1
-130 -4z"/>
<path d="M5773 703 c9 -2 25 -2 35 0 9 3 1 5 -18 5 -19 0 -27 -2 -17 -5z"/>
<path d="M5633 693 c20 -2 54 -2 75 0 20 2 3 4 -38 4 -41 0 -58 -2 -37 -4z"/>
<path d="M5125 634 l-30 -26 40 6 c22 3 48 6 58 6 15 0 15 2 -3 20 -25 25 -28
25 -65 -6z"/>
<path d="M1805 610 c3 -5 8 -10 11 -10 2 0 4 5 4 10 0 6 -5 10 -11 10 -5 0 -7
-4 -4 -10z"/>
<path d="M5270 606 c6 -8 18 -12 27 -9 12 5 12 7 1 14 -7 5 -19 9 -27 9 -11 0
-11 -3 -1 -14z"/>
<path d="M5030 560 c0 -15 21 -23 32 -12 6 6 2 11 -11 15 -12 3 -21 1 -21 -3z"/>
<path d="M5203 513 c15 -2 39 -2 55 0 15 2 2 4 -28 4 -30 0 -43 -2 -27 -4z"/>
<path d="M5090 490 c12 -22 25 -26 36 -9 7 12 -12 29 -34 29 -10 0 -10 -5 -2
-20z"/>
<path d="M3890 218 c-19 -6 -30 -12 -25 -14 6 -2 33 3 60 10 29 8 40 14 25 14
-14 0 -41 -4 -60 -10z"/>
</g>
</svg>
